<svg fill="currentColor" width="170" height="54" viewBox="0 0 170 54" xmlns="http://www.w3.org/2000/svg">
  <path fill-rule="evenodd" clip-rule="evenodd" d="M69.4938 34.3498C71.1256 35.9865 73.1488 36.8048 75.6599 36.8048C78.1706 36.8048 80.1295 35.9865 81.7615 34.3498C83.3587 32.681 84.208 30.6512 84.208 28.1318C84.208 25.6124 83.3587 23.5826 81.7615 21.9458C80.1295 20.277 78.1065 19.4587 75.6599 19.4587C73.2132 19.4587 71.1256 20.277 69.4938 21.9458C67.8964 23.5826 67.1115 25.6767 67.1115 28.1318C67.1115 30.5868 67.8941 32.681 69.4938 34.3498ZM84.2103 14.5807H89.9856V41.6828H84.2103V37.7887C81.9918 40.8966 78.8267 42.4046 74.7162 42.4046C70.9967 42.4046 67.8319 40.9977 65.2219 38.2485C62.5795 35.4992 61.2745 32.1591 61.2745 28.1341C61.2745 24.1089 62.5795 20.7689 65.2219 18.0196C67.8319 15.2382 70.9967 13.8635 74.7162 13.8635C78.8267 13.8635 81.9918 15.3692 84.2103 18.4127V14.5831V14.5807Z" />
  <path fill-rule="evenodd" clip-rule="evenodd" d="M96.8096 14.675H102.682V41.7311H96.8096V14.675ZM102.386 9.47982C101.664 10.2637 100.78 10.6223 99.7629 10.6223C98.7453 10.6223 97.8914 10.2637 97.1048 9.47982C96.3815 8.76033 96.0229 7.87764 96.0229 6.89838C96.0229 5.91912 96.3838 5.00423 97.1048 4.28473C97.8273 3.49856 98.7113 3.13996 99.7629 3.13996C100.815 3.13996 101.666 3.49856 102.454 4.28473C103.176 5.00193 103.535 5.88464 103.535 6.89838C103.535 7.91211 103.11 8.76033 102.386 9.47982Z" />
  <path fill-rule="evenodd" clip-rule="evenodd" d="M115.248 19.1438C116.742 15.8014 119.468 14.1279 123.525 14.1279V20.4862C121.318 20.2908 119.371 20.8471 117.748 22.0264C116.093 23.3044 115.248 25.2722 115.248 28.026V41.7287H109.437V14.5854H115.248V19.1415V19.1438Z"/>
  <path fill-rule="evenodd" clip-rule="evenodd" d="M127.954 14.675H133.754V41.7311H127.954V14.675ZM133.464 9.47982C132.69 10.2637 131.855 10.6223 130.854 10.6223C129.852 10.6223 128.984 10.2637 128.276 9.47982C127.502 8.76033 127.148 7.87764 127.148 6.89838C127.148 5.91912 127.502 5.00423 128.212 4.28473C128.92 3.49856 129.788 3.13996 130.854 3.13996C131.853 3.13996 132.755 3.49856 133.464 4.28473C134.173 5.00193 134.527 5.88464 134.527 6.89838C134.527 7.91211 134.173 8.76033 133.464 9.47982Z"/>
  <path fill-rule="evenodd" clip-rule="evenodd" d="M147.262 34.3498C148.897 35.9865 150.924 36.8048 153.378 36.8048C155.831 36.8048 157.859 35.9865 159.493 34.3498C161.097 32.681 161.947 30.6512 161.947 28.1318C161.947 25.6124 161.095 23.5826 159.493 21.9458C157.859 20.277 155.831 19.4587 153.378 19.4587C150.924 19.4587 148.897 20.277 147.262 21.9458C145.658 23.5826 144.809 25.6767 144.809 28.1318C144.809 30.5868 145.661 32.681 147.262 34.3498ZM161.947 14.5807H167.8V41.6828H161.947V37.7887C159.724 40.8966 156.551 42.4046 152.494 42.4046C148.765 42.4046 145.529 40.9977 142.912 38.2485C140.263 35.4992 138.953 32.1591 138.953 28.1341C138.953 24.1089 140.261 20.7689 142.912 18.0196C145.529 15.2382 148.765 13.8635 152.494 13.8635C156.549 13.8635 159.721 15.3692 161.947 18.4127V14.5831V14.5807Z" />
  <path d="M32.1078 47.7468C32.1078 50.5926 29.7947 52.9557 26.8923 52.9557C23.9899 52.9557 21.6767 50.5926 21.6767 47.7468C21.6767 44.9009 19.3635 42.5379 16.4612 42.5379C13.5587 42.5379 11.2456 40.1748 11.2456 37.329C11.2456 34.4831 13.6117 32.12 16.4612 32.12C19.3106 32.12 21.6767 34.4303 21.6767 37.329C21.6767 40.2276 24.0428 42.5379 26.8923 42.5379C29.7417 42.5379 32.1078 44.8481 32.1078 47.7468ZM16.4312 21.6999C17.7087 21.6999 18.871 21.2379 19.7686 20.477C20.9356 19.5253 21.6744 18.0748 21.6744 16.4358C21.6744 13.59 24.0405 11.2269 26.89 11.2269C29.7394 11.2269 32.1055 8.91666 32.1055 6.01796C32.1055 3.11927 29.7923 0.809046 26.89 0.809046C23.9875 0.809046 21.6744 3.14455 21.6744 6.01796C21.6744 8.89139 19.3612 11.2269 16.4589 11.2269C13.5565 11.2269 11.2433 13.59 11.2433 16.4358C11.2433 16.445 11.2433 16.4542 11.2433 16.4634C11.2433 16.4726 11.2433 16.4818 11.2433 16.491C11.2433 19.3368 8.94393 21.6999 6.05537 21.6999C3.16678 21.6999 0.867432 24.0101 0.867432 26.9088C0.867432 29.8075 3.22202 32.1177 6.05537 32.1177C8.88868 32.1177 11.2433 29.7546 11.2433 26.9088C11.2433 24.063 13.5979 21.6999 16.4312 21.6999ZM47.7568 21.6999C44.9074 21.6999 42.5412 19.3368 42.5412 16.491C42.5412 13.6451 40.228 11.2821 37.3257 11.2821C37.3165 11.2821 37.3073 11.2821 37.2981 11.2821C37.2888 11.2821 37.2796 11.2821 37.2704 11.2821C34.421 11.2821 32.0549 13.5923 32.0549 16.491C32.0549 19.3897 29.7417 21.6999 26.8393 21.6999C23.9369 21.6999 21.6238 24.0101 21.6238 26.9088C21.6238 29.8075 23.9899 32.1177 26.8393 32.1177C29.6888 32.1177 32.0549 29.7546 32.0549 26.9088C32.0549 24.063 34.421 21.6999 37.2704 21.6999C37.2796 21.6999 37.2888 21.6999 37.2981 21.6999C37.3073 21.6999 37.3165 21.6999 37.3257 21.6999C40.228 21.6999 42.5412 24.0101 42.5412 26.9088C42.5412 29.8075 44.9074 32.1177 47.7568 32.1177C50.6062 32.1177 52.9723 29.7546 52.9723 26.9088C52.9723 24.063 50.6592 21.6999 47.7568 21.6999ZM37.2958 32.1177C34.4601 32.1177 32.1078 34.4395 32.1078 37.3543C32.1078 40.2691 34.4624 42.5907 37.2958 42.5907C40.1291 42.5907 42.4837 40.2139 42.4837 37.3543C42.4837 34.4946 40.1844 32.1177 37.2958 32.1177Z"/>
</svg>