<svg width="293" height="177" viewBox="0 0 293 177" fill="none" xmlns="http://www.w3.org/2000/svg">
<path d="M17.5994 112.848C9.46542 112.848 5.70848 118.877 5.70848 124.703C5.70848 130.527 9.25805 136.353 17.5994 136.353C20.6265 136.353 23.8588 135.109 26.1582 132.921L29.7 136.353C26.3657 139.576 22.0829 141.14 17.5983 141.14C5.9148 141.14 0.699219 133.128 0.699219 124.703C0.699219 116.278 6.12223 107.961 17.5983 107.961C21.8744 107.961 26.0495 109.523 29.3905 112.848L25.9486 116.178C23.6503 113.884 20.6265 112.848 17.5994 112.848ZM32.625 140.41V108.375H37.8362V135.621H54.7352V140.409H32.625V140.41ZM74.4618 141.14C63.293 141.14 57.9698 133.021 57.9698 124.595C57.9698 114.823 64.8548 107.852 74.4618 107.852C85.5134 107.852 90.9317 115.862 90.9317 124.595C90.9317 133.229 85.6036 141.14 74.4618 141.14ZM74.5528 112.537C67.1542 112.537 63.0855 117.73 63.0855 124.703C63.1865 130.319 66.5264 136.451 74.4618 136.451C82.486 136.451 85.8203 130.836 85.8203 124.703C85.8203 118.771 82.3805 112.639 74.5528 112.537ZM107.613 141.03C100.421 140.822 94.3716 136.243 94.3716 127.195V108.476H99.4973V127.195C99.4973 133.021 102.923 136.146 107.613 136.353C112.736 136.659 116.488 133.336 116.488 127.195V108.476H121.596V127.195C121.597 136.659 115.332 141.347 107.613 141.03ZM138.606 140.41C134.75 140.41 130.255 140.41 126.4 140.41V108.375H138.606C149.567 108.375 154.565 116.177 154.66 124.08C154.876 132.192 149.764 140.41 138.606 140.41ZM138.606 113.261H131.507V135.521H138.606C146.416 135.521 149.764 129.799 149.658 124.08C149.567 118.671 146.215 113.261 138.606 113.261ZM192.224 140.512H187.627L183.35 129.172L179.908 118.461L176.359 129.282L172.193 140.514H167.717L156.018 108.477H161.759L169.908 133.128L178.245 108.477H181.577L190.034 133.128L198.063 108.477H203.802L192.224 140.512ZM231.648 140.512L228.527 133.75H211.104L208.077 140.512H202.659L217.044 108.476H222.679L237.077 140.512H231.648ZM219.853 113.784L213.093 129.075H226.644L219.853 113.784ZM251.264 127.305V140.41H246.154V127.305L233.746 108.585V108.375H239.888L248.653 122.517L257.822 108.375H263.996V108.585L251.264 127.305ZM279.431 112.014C275.139 112.014 272.023 113.784 272.023 116.901C272.023 120.025 275.574 120.86 279.831 121.478C286.407 122.42 292.782 124.18 292.782 131.358C292.782 138.538 286.204 141.237 279.431 141.237C273.273 141.237 268.579 139.368 265.66 133.96L269.521 131.357C271.807 135.203 275.776 136.658 279.522 136.658C283.381 136.658 287.672 135.414 287.672 131.357C287.672 127.925 283.906 126.68 279.431 126.054C273.071 125.224 267.023 123.555 267.023 116.693C267.023 110.037 273.581 107.543 279.431 107.543C284.013 107.543 288.707 108.681 291.425 112.952L287.365 115.553C285.789 113.37 282.765 112.014 279.431 112.014Z" fill="currentColor"/>
<path d="M155.57 152.839C153.618 151.469 151.201 150.76 148.365 150.76H142.23V170.609H148.365C151.201 170.609 153.618 169.852 155.57 168.435C156.639 167.678 157.475 166.592 158.034 165.268C158.591 163.945 158.917 162.339 158.917 160.59C158.917 158.842 158.638 157.281 158.034 155.959C157.475 154.635 156.639 153.596 155.57 152.839ZM145.809 154.162H147.761C149.899 154.162 151.665 154.588 153.013 155.439C154.501 156.336 155.244 158.085 155.244 160.59C155.244 163.189 154.501 164.985 153.013 165.977C151.712 166.828 149.992 167.301 147.808 167.301H145.855V154.162H145.809Z" fill="currentColor"/>
<path d="M162.635 150.572C162.031 150.572 161.519 150.808 161.148 151.185C160.729 151.611 160.543 152.083 160.543 152.698C160.543 153.312 160.776 153.832 161.148 154.257C161.566 154.682 162.077 154.872 162.681 154.872C163.286 154.872 163.797 154.636 164.215 154.257C164.633 153.832 164.819 153.312 164.819 152.698C164.819 152.083 164.587 151.564 164.215 151.185C163.75 150.76 163.239 150.572 162.635 150.572Z" fill="currentColor"/>
<path d="M164.309 156.668H160.869V170.657H164.309V156.668Z" fill="currentColor"/>
<path d="M176.3 157.849C175.278 156.904 174.115 156.336 172.815 156.336C170.909 156.336 169.328 156.998 168.119 158.322C166.864 159.645 166.26 161.299 166.26 163.331C166.26 165.315 166.864 166.97 168.074 168.34C169.282 169.664 170.909 170.325 172.815 170.325C174.162 170.325 175.278 169.947 176.207 169.191V169.521C176.207 170.703 175.882 171.601 175.278 172.215C174.674 172.829 173.837 173.161 172.815 173.161C171.234 173.161 170.211 172.547 169.003 170.845L166.632 173.161L166.679 173.255C167.19 173.964 167.98 174.673 169.003 175.382C170.025 176.044 171.327 176.374 172.86 176.374C174.906 176.374 176.58 175.712 177.788 174.483C178.996 173.208 179.647 171.507 179.647 169.427V156.668H176.254V157.849H176.3ZM175.37 166.072C174.766 166.781 173.976 167.112 173 167.112C172.024 167.112 171.234 166.781 170.629 166.072C170.025 165.363 169.746 164.465 169.746 163.331C169.746 162.196 170.025 161.251 170.629 160.542C171.234 159.833 172.024 159.503 173 159.503C173.976 159.503 174.766 159.833 175.37 160.542C175.975 161.251 176.3 162.15 176.3 163.331C176.3 164.465 175.975 165.363 175.37 166.072Z" fill="currentColor"/>
<path d="M185.504 156.668H182.063V170.657H185.504V156.668Z" fill="currentColor"/>
<path d="M183.83 150.572C183.226 150.572 182.715 150.808 182.343 151.185C181.925 151.611 181.739 152.083 181.739 152.698C181.739 153.312 181.971 153.832 182.343 154.257C182.761 154.682 183.272 154.872 183.876 154.872C184.481 154.872 184.992 154.636 185.41 154.257C185.829 153.832 186.015 153.312 186.015 152.698C186.015 152.083 185.782 151.564 185.41 151.185C184.899 150.76 184.388 150.572 183.83 150.572Z" fill="currentColor"/>
<path d="M192.894 152.886H189.5V156.667H187.549V159.88H189.547V165.693C189.547 167.489 189.919 168.812 190.616 169.568C191.314 170.324 192.569 170.703 194.335 170.703C194.892 170.703 195.451 170.703 196.008 170.655H196.147V167.441L194.939 167.489C194.102 167.489 193.545 167.347 193.312 167.063C193.033 166.78 192.894 166.166 192.894 165.221V159.88H196.101V156.667H192.894V152.886Z" fill="currentColor"/>
<path d="M214.926 150.808H211.487V170.656H214.926V150.808Z" fill="currentColor"/>
<path d="M248.857 165.647C248.253 166.356 247.602 166.97 247.137 167.301C246.672 167.632 246.068 167.774 245.325 167.774C244.302 167.774 243.465 167.396 242.815 166.64C242.164 165.883 241.792 164.891 241.792 163.709C241.792 162.528 242.117 161.535 242.768 160.78C243.419 160.023 244.255 159.645 245.278 159.645C246.394 159.645 247.555 160.354 248.578 161.535L250.855 159.315C249.368 157.329 247.462 156.432 245.185 156.432C243.28 156.432 241.652 157.141 240.305 158.511C238.956 159.881 238.305 161.63 238.305 163.709C238.305 165.788 239.003 167.537 240.305 168.908C241.652 170.278 243.28 170.987 245.185 170.987C247.695 170.987 249.694 169.9 251.088 167.869L248.857 165.647Z" fill="currentColor"/>
<path d="M263.173 158.605C262.662 157.897 262.011 157.329 261.174 156.951C260.337 156.525 259.408 156.336 258.339 156.336C256.386 156.336 254.853 157.045 253.645 158.511C252.482 159.928 251.925 161.677 251.925 163.756C251.925 165.883 252.576 167.631 253.831 168.955C255.086 170.278 256.759 170.939 258.804 170.939C261.128 170.939 263.033 169.994 264.475 168.104L264.567 168.01L262.29 165.788C262.104 166.024 261.779 166.356 261.5 166.592C261.174 166.922 260.849 167.158 260.477 167.348C259.966 167.631 259.362 167.726 258.711 167.726C257.735 167.726 256.945 167.442 256.341 166.876C255.782 166.356 255.457 165.647 255.364 164.749H264.521L264.567 163.473C264.567 162.575 264.428 161.677 264.196 160.873C264.01 160.07 263.638 159.314 263.173 158.605ZM255.596 161.914C255.782 161.251 256.062 160.685 256.48 160.259C256.945 159.787 257.549 159.551 258.292 159.551C259.129 159.551 259.78 159.787 260.198 160.259C260.617 160.685 260.849 161.251 260.896 161.914H255.596Z" fill="currentColor"/>
<path d="M276.374 157.707C275.304 156.809 273.864 156.336 272.051 156.336C270.89 156.336 269.82 156.573 268.845 157.093C267.961 157.565 267.078 158.322 266.52 159.314L266.567 159.361L268.798 161.535C269.727 160.07 270.704 159.551 272.051 159.551C272.795 159.551 273.353 159.739 273.818 160.117C274.282 160.496 274.514 161.015 274.514 161.63V162.291C273.678 162.007 272.795 161.914 271.959 161.914C270.239 161.914 268.845 162.339 267.775 163.141C266.706 163.945 266.194 165.127 266.194 166.639C266.194 167.962 266.659 169.002 267.543 169.805C268.426 170.561 269.541 170.939 270.89 170.939C272.19 170.939 273.445 170.42 274.561 169.475V170.609H277.955V161.63C277.955 159.928 277.443 158.605 276.374 157.707ZM270.239 165.268C270.61 164.985 271.168 164.843 271.865 164.843C272.702 164.843 273.585 165.032 274.468 165.363V166.733C273.725 167.442 272.702 167.821 271.494 167.821C270.89 167.821 270.424 167.678 270.1 167.395C269.774 167.112 269.634 166.781 269.634 166.356C269.681 165.93 269.867 165.552 270.239 165.268Z" fill="currentColor"/>
<path d="M290.83 157.99C289.853 156.904 288.506 156.336 286.786 156.336C285.438 156.336 284.322 156.715 283.486 157.518V156.668H280.092V170.656H283.532V162.905C283.532 161.866 283.765 161.015 284.276 160.401C284.741 159.787 285.438 159.503 286.321 159.503C287.112 159.503 287.716 159.739 288.134 160.306C288.553 160.826 288.785 161.582 288.785 162.527V170.609H292.224V162.527C292.271 160.59 291.759 159.078 290.83 157.99Z" fill="currentColor"/>
<path d="M207.722 157.707C206.653 156.809 205.212 156.336 203.398 156.336C202.237 156.336 201.167 156.573 200.192 157.093C199.308 157.565 198.425 158.322 197.867 159.314L197.914 159.361L200.145 161.535C201.075 160.07 202.051 159.551 203.398 159.551C204.143 159.551 204.7 159.739 205.165 160.117C205.63 160.496 205.863 161.015 205.863 161.63V162.291C205.026 162.007 204.143 161.914 203.306 161.914C201.586 161.914 200.192 162.339 199.122 163.141C198.053 163.945 197.542 165.127 197.542 166.639C197.542 167.962 198.007 169.002 198.89 169.805C199.773 170.561 200.889 170.939 202.237 170.939C203.538 170.939 204.793 170.42 205.908 169.475V170.609H209.302V161.63C209.302 159.928 208.791 158.605 207.722 157.707ZM201.586 165.268C201.957 164.985 202.516 164.843 203.212 164.843C204.049 164.843 204.933 165.032 205.816 165.363V166.733C205.072 167.442 204.049 167.821 202.841 167.821C202.237 167.821 201.772 167.678 201.447 167.395C201.121 167.112 200.982 166.781 200.982 166.356C201.028 165.93 201.214 165.552 201.586 165.268Z" fill="currentColor"/>
<path d="M226.872 170.941C221.34 170.941 216.832 166.357 216.832 160.734C216.832 155.109 221.34 150.526 226.872 150.526C232.403 150.526 236.911 155.109 236.911 160.734C236.911 166.357 232.45 170.941 226.872 170.941ZM226.872 154.07C223.293 154.07 220.365 157.047 220.365 160.686C220.365 164.324 223.293 167.302 226.872 167.302C230.451 167.302 233.379 164.324 233.379 160.686C233.379 157.047 230.497 154.07 226.872 154.07Z" fill="currentColor"/>
<path d="M122.044 170.825C121.101 170.825 120.349 170.523 119.785 169.917V170.644H117.966V159.071H119.818V163.149C120.424 162.62 121.166 162.356 122.044 162.356C123.181 162.356 124.112 162.757 124.838 163.561C125.564 164.365 125.927 165.377 125.927 166.599C125.927 167.821 125.564 168.833 124.838 169.637C124.102 170.429 123.17 170.825 122.044 170.825ZM120.354 168.448C120.733 168.932 121.253 169.174 121.914 169.174C122.575 169.174 123.095 168.932 123.473 168.448C123.852 167.964 124.042 167.347 124.042 166.599C124.042 165.851 123.852 165.234 123.473 164.75C123.095 164.266 122.575 164.024 121.914 164.024C121.253 164.024 120.733 164.266 120.354 164.75C119.975 165.234 119.785 165.851 119.785 166.599C119.785 167.347 119.975 167.964 120.354 168.448ZM135.069 162.554L130.618 173.847H128.668L129.903 170.743L126.751 162.554H128.863L130.943 168.399L133.055 162.554H135.069Z" fill="currentColor"/>
<path fill-rule="evenodd" clip-rule="evenodd" d="M128.64 77.6619C127.961 76.9266 127.403 76.3482 126.874 75.7448C124.869 73.4576 123.244 70.9171 122.042 68.1058C121.85 67.6554 121.614 67.4918 121.126 67.5007C119.393 67.5325 117.658 67.5177 115.924 67.5113C114.394 67.5067 113.584 66.729 113.539 65.1826C113.508 64.1468 113.507 63.1089 113.54 62.0735C113.589 60.5518 114.389 59.7907 115.886 59.7886C117.137 59.786 118.388 59.7882 119.719 59.7882C119.406 56.3224 119.461 52.9498 120.193 49.5096C119.81 49.5096 119.516 49.5096 119.221 49.5096C103.855 49.5096 88.4909 49.5105 73.1254 49.5088C71.0332 49.5088 69.4825 48.2659 69.1036 46.299C68.656 43.9766 70.3997 41.7575 72.746 41.6665C72.9842 41.6576 73.2228 41.6635 73.461 41.6635C89.7365 41.6635 106.012 41.6597 122.287 41.678C122.887 41.6784 123.204 41.4837 123.5 40.962C125.5 37.441 128.125 34.4808 131.349 32.073C131.518 31.9466 131.68 31.8094 131.826 31.5151C131.563 31.5151 131.299 31.5151 131.035 31.5151C118.639 31.5151 106.243 31.5232 93.846 31.496C93.0895 31.4942 92.2698 31.3587 91.5876 31.0436C89.9701 30.297 89.1673 28.4125 89.5746 26.6662C89.9768 24.9399 91.5479 23.6733 93.3223 23.6716C98.7828 23.6656 104.244 23.669 109.705 23.669C119.696 23.669 129.686 23.664 139.677 23.6831C140.262 23.684 140.546 23.5385 140.743 22.9454C141.757 19.8772 143.234 17.0446 145.084 14.4122C145.256 14.1678 145.423 13.9194 145.672 13.5568C145.264 13.5381 144.976 13.5125 144.687 13.5125C130.19 13.5104 115.691 13.5193 101.193 13.4883C100.377 13.4866 99.4861 13.3186 98.7634 12.9538C97.2091 12.1689 96.4923 10.2879 96.9342 8.6271C97.4149 6.81666 98.8848 5.67414 100.763 5.67414C118.274 5.672 135.784 5.67072 153.295 5.6822C153.859 5.68263 154.332 5.54997 154.815 5.2532C159.303 2.4958 164.162 0.961304 169.404 0.612259C184.651 -0.403512 198.301 9.79122 202.592 24.5798C202.836 25.4226 203.063 26.275 203.224 27.1373C203.309 27.5918 203.492 27.7921 203.921 27.9452C213.425 31.331 219.737 37.9397 222.534 47.7502C227.035 63.5397 218.197 79.7392 203.162 84.252C200.804 84.9599 198.393 85.3635 195.937 85.3772C184.848 85.4389 173.758 85.4981 162.668 85.5083C140.737 85.528 118.806 85.5169 96.8743 85.4998C96.2182 85.4989 95.5174 85.4064 94.9136 85.1621C93.2093 84.4714 92.3187 82.6658 92.6578 80.8044C92.9757 79.0562 94.5358 77.727 96.349 77.6628C96.5438 77.6559 96.7386 77.661 96.9342 77.661C107.163 77.661 117.391 77.661 127.621 77.661C127.897 77.6619 128.173 77.6619 128.64 77.6619Z" fill="currentColor"/>
<path fill-rule="evenodd" clip-rule="evenodd" d="M87.6302 67.5132C83.2129 67.5132 78.7957 67.514 74.378 67.5127C72.5917 67.5119 71.8362 66.7597 71.8287 64.9646C71.8241 63.9288 71.8115 62.8926 71.8425 61.8577C71.8788 60.6404 72.7246 59.7942 73.9247 59.7934C83.0838 59.7857 92.2431 59.7853 101.402 59.7942C102.604 59.7951 103.468 60.6778 103.506 61.936C103.54 63.1248 103.541 64.3166 103.506 65.5054C103.472 66.6908 102.513 67.5089 101.207 67.5114C98.175 67.5174 95.1433 67.5136 92.1124 67.5136C90.618 67.5132 89.1245 67.5132 87.6302 67.5132Z" fill="currentColor"/>
</svg>
