<svg width="1920" height="1080" viewBox="0 0 1920 1080" fill="none" xmlns="http://www.w3.org/2000/svg">
<g clip-path="url(#clip0_147_1439)">
<rect width="1920" height="1080" fill="#FBFBFB"/>
<path d="M1551.86 -323L1044 -141.894L1121.46 529.617L1551.86 768L1982.26 529.617L2059.72 -141.894L1551.86 -323Z" fill="#D9E0E5"/>
<path d="M1551.86 -323V-201.899V-202.445V350.147V768L1982.26 529.617L2059.72 -141.894L1551.86 -323Z" fill="#E2ECF2"/>
<path d="M459.123 357L381.176 532.371H410.239L425.909 493.131H492.07L507.74 532.371H536.803L459.123 357ZM481.892 468.942H436.355L459.123 413.979L481.892 468.942Z" fill="url(#paint0_linear_147_1439)"/>
<path d="M336.759 361.391H364.084V531.912H336.759V479.707H263.325V531.912H236V361.147H263.325V456.776H336.759V361.391Z" fill="#161616"/>
<path d="M683.165 484.098L705.366 493.612C689.752 518.251 662.428 534.596 631.444 534.596C583.626 534.596 545.566 494.832 545.566 446.286C545.566 397.496 583.626 358.22 631.444 358.22C660.72 358.22 686.581 372.369 702.683 395.056L683.409 408.473C671.211 391.397 654.621 380.663 631.444 380.663C597.776 380.663 569.719 410.669 569.719 446.286C569.719 481.659 597.776 511.908 631.444 511.908C653.889 511.908 671.942 500.443 683.165 484.098Z" fill="#161616"/>
<path d="M787.942 449.945L851.374 531.668H816.487L765.253 462.874L761.349 457.507L759.642 459.703L756.226 463.85V531.912H729.39L729.146 360.903H756.226V411.645V428.477L768.425 412.621L811.119 360.903H844.543L788.674 426.77L778.671 438.723L787.942 449.945Z" fill="#161616"/>
<path d="M926.059 434.332C960.947 436.284 988.027 460.679 986.32 488.001C985.1 515.568 955.58 536.303 920.692 534.596C891.904 532.888 868.97 516.543 862.139 496.052L891.904 488.001C896.539 500.199 906.298 506.785 922.156 507.517C940.209 508.493 955.579 500.931 956.067 486.294C957.287 472.145 943.137 460.679 924.839 459.703C924.107 459.703 923.62 459.703 922.888 459.215C888.976 456.532 866.043 432.137 867.263 405.546C868.97 377.736 895.563 356.512 930.207 358.708C954.116 359.927 973.633 371.393 983.636 386.762L957.287 397.74C951.92 389.445 941.185 384.81 928.743 384.078C911.177 382.859 894.343 392.373 893.855 406.766C893.123 420.915 908.005 433.356 926.059 434.332Z" fill="#161616"/>
<path d="M996.898 361.635H1126.69V386.03H1075.46V531.668H1046.67V386.03H996.898V361.635Z" fill="#161616"/>
<path d="M1253.97 531.668C1253.97 531.668 1249.09 519.471 1242.74 504.346H1169.06C1163.21 519.471 1158.33 531.668 1158.33 531.668H1131L1205.9 357L1281.29 531.668H1253.97ZM1206.39 481.659C1231.28 481.659 1234.2 482.146 1234.2 482.146C1234.2 482.146 1229.81 472.632 1228.1 468.241C1224.44 457.995 1220.79 449.701 1219.08 444.822C1210.78 424.086 1206.39 410.181 1206.39 410.181C1206.39 410.181 1201.02 424.33 1192.73 444.822C1190.78 450.189 1187.61 458.727 1183.7 468.241C1181.99 472.632 1177.85 482.146 1177.85 482.146C1177.85 482.146 1181.26 481.659 1206.39 481.659Z" fill="#161616"/>
<path d="M1431.27 484.098L1453.47 493.612C1437.86 518.251 1410.54 534.596 1379.55 534.596C1331.73 534.596 1293.68 494.832 1293.68 446.286C1293.68 397.496 1331.73 358.22 1379.55 358.22C1408.83 358.22 1434.69 372.369 1450.79 395.056L1431.52 408.473C1419.32 391.397 1402.73 380.663 1379.55 380.663C1345.88 380.663 1317.83 410.669 1317.83 446.286C1317.83 481.659 1345.88 511.908 1379.55 511.908C1402 511.908 1420.05 500.443 1431.27 484.098Z" fill="#161616"/>
<path d="M1536.05 449.945L1599.48 531.668H1564.6L1513.36 462.874L1509.46 457.507L1507.75 459.703L1504.33 463.85V531.912H1477.5L1477.25 360.903H1504.33V411.645V428.477L1516.53 412.621L1559.23 360.903H1592.65L1536.78 426.77L1526.78 438.723L1536.05 449.945Z" fill="#161616"/>
<path d="M1292.19 595.16C1292.19 595.16 1289.21 596.84 1283.1 596.84C1278.51 596.84 1274.76 596.84 1274.76 596.84V610.129H1266.74V556.667H1273.54H1274.76H1285.7C1295.33 557.126 1303.05 565.909 1303.05 576.677C1303.05 584.926 1298.61 592.105 1292.19 595.16ZM1274.76 563.847V589.661H1284.93C1290.82 589.355 1295.71 583.78 1295.71 576.677C1295.71 570.109 1291.28 564.61 1285.7 563.847H1274.76Z" fill="#161616"/>
<path d="M1345.78 610.052C1345.78 610.052 1344.25 606.234 1342.26 601.499H1319.17C1317.34 606.234 1315.81 610.052 1315.81 610.052H1307.25L1330.72 555.369L1354.34 610.052H1345.78ZM1330.87 594.396C1338.67 594.396 1339.58 594.549 1339.58 594.549C1339.58 594.549 1338.21 591.57 1337.67 590.195C1336.53 586.988 1335.38 584.391 1334.84 582.864C1332.24 576.372 1330.87 572.019 1330.87 572.019C1330.87 572.019 1329.19 576.448 1326.59 582.864C1325.98 584.544 1324.98 587.217 1323.76 590.195C1323.22 591.57 1321.92 594.549 1321.92 594.549C1321.92 594.549 1322.99 594.396 1330.87 594.396Z" fill="#161616"/>
<path d="M1378.32 584.467L1398.2 610.052H1387.27L1371.21 588.515L1369.99 586.835L1369.46 587.522L1368.39 588.821V610.129H1359.98L1359.9 556.591H1368.39V572.477V577.747L1372.21 572.782L1385.59 556.591H1396.06L1378.55 577.212L1375.42 580.954L1378.32 584.467Z" fill="#161616"/>
<path d="M1411.66 610.129H1403.33V556.667H1411.66V610.129Z" fill="#161616"/>
<path d="M1437.88 579.579C1448.81 580.19 1457.29 587.828 1456.76 596.382C1456.38 605.012 1447.13 611.504 1436.19 610.969C1427.17 610.434 1419.99 605.317 1417.85 598.902L1427.17 596.382C1428.63 600.2 1431.68 602.262 1436.65 602.491C1442.31 602.797 1447.13 600.429 1447.28 595.847C1447.66 591.417 1443.23 587.828 1437.49 587.522C1437.26 587.522 1437.11 587.522 1436.88 587.37C1426.26 586.529 1419.07 578.892 1419.45 570.567C1419.99 561.861 1428.32 555.216 1439.18 555.904C1446.67 556.286 1452.78 559.875 1455.92 564.687L1447.66 568.123C1445.98 565.527 1442.62 564.076 1438.72 563.847C1433.21 563.465 1427.94 566.443 1427.79 570.949C1427.56 575.379 1432.22 579.274 1437.88 579.579Z" fill="#161616"/>
<path d="M1460.07 556.82H1500.74V564.458H1484.69V610.052H1475.67V564.458H1460.07V556.82Z" fill="#161616"/>
<path d="M1540.62 610.052C1540.62 610.052 1539.1 606.234 1537.11 601.499H1514.02C1512.19 606.234 1510.66 610.052 1510.66 610.052H1502.1L1525.56 555.369L1549.19 610.052H1540.62ZM1525.72 594.396C1533.51 594.396 1534.43 594.549 1534.43 594.549C1534.43 594.549 1533.06 591.57 1532.52 590.195C1531.37 586.988 1530.23 584.391 1529.69 582.864C1527.09 576.372 1525.72 572.019 1525.72 572.019C1525.72 572.019 1524.04 576.448 1521.44 582.864C1520.82 584.544 1519.83 587.217 1518.61 590.195C1518.07 591.57 1516.77 594.549 1516.77 594.549C1516.77 594.549 1517.84 594.396 1525.72 594.396Z" fill="#161616"/>
<path d="M1554.83 609.823V555.522L1584.33 584.62L1590.75 591.265L1590.68 583.093V556.744H1599.47V610.816L1568.51 580.878L1563.23 575.226L1563.31 581.871V609.823H1554.83Z" fill="#161616"/>
<rect x="1634.11" y="357" width="50.3824" height="177.388" fill="#DD0031"/>
<path d="M1642.87 420.068L1642.87 398.983L1660.61 413.587C1662.25 414.927 1663.79 415.229 1665.06 415.229C1666.33 415.229 1667.6 415.056 1668.6 414.019C1669.6 413.069 1670.19 411.254 1670.19 410.044C1670.19 408.445 1669.51 407.106 1668.51 406.155C1667.51 405.205 1666.1 404.47 1664.47 404.47L1664.47 399.717C1671.19 400.063 1674.86 404.47 1674.91 409.655C1674.91 410.476 1674.86 411.167 1674.77 411.772C1674.45 413.976 1673.32 415.877 1671.46 417.519C1669.51 419.161 1667.37 420.025 1665.06 420.025C1662.61 420.025 1660.34 419.247 1658.48 417.735L1647.68 408.705L1647.72 420.068L1642.87 420.068Z" fill="#FBFBFB"/>
<path d="M1652.72 444.457C1645.91 444.457 1642.5 439.704 1642.5 434.39C1642.5 431.408 1643.19 429.118 1645.64 426.742C1647.31 425.1 1649.54 424.279 1653.08 424.279L1664.42 424.279C1671.91 424.279 1675.04 429.68 1675.04 434.606C1675.04 439.186 1671.59 444.457 1664.42 444.457L1652.72 444.457ZM1664.56 439.79C1667.83 439.79 1670.05 437.025 1670.05 434.476C1670.05 431.797 1668.1 429.032 1664.29 429.032L1653.08 429.032C1648.04 429.032 1647 432.575 1647 434.39C1647 435.988 1647.77 439.79 1652.94 439.79L1664.56 439.79Z" fill="#FBFBFB"/>
<path d="M1642.87 469.394L1642.87 448.309L1660.61 462.913C1662.25 464.252 1663.79 464.555 1665.06 464.555C1666.33 464.555 1667.6 464.382 1668.6 463.345C1669.6 462.395 1670.19 460.58 1670.19 459.37C1670.19 457.771 1669.51 456.432 1668.51 455.481C1667.51 454.531 1666.1 453.796 1664.47 453.796L1664.47 449.043C1671.19 449.389 1674.86 453.796 1674.91 458.981C1674.91 459.802 1674.86 460.493 1674.77 461.098C1674.45 463.302 1673.32 465.203 1671.46 466.845C1669.51 468.487 1667.37 469.351 1665.06 469.351C1662.61 469.351 1660.34 468.573 1658.48 467.061L1647.68 458.031L1647.72 469.394L1642.87 469.394Z" fill="#FBFBFB"/>
<path d="M1659.57 489.03C1658.12 491.277 1655.8 492.4 1652.72 492.4C1651.17 492.4 1650.08 492.271 1649.22 491.968C1647.09 491.19 1645.45 489.937 1644.32 488.209C1643.23 486.481 1642.69 484.536 1642.69 482.376C1642.69 479.654 1643.55 477.407 1645.27 475.506C1647.04 473.648 1649.36 472.611 1652.13 472.611L1652.13 477.537C1649.4 477.58 1647.22 479.827 1647.22 482.549C1647.22 485.357 1649.49 487.647 1652.26 487.647C1652.31 487.647 1652.4 487.647 1652.44 487.647C1652.49 487.647 1652.58 487.647 1652.62 487.647C1655.21 487.647 1657.3 485.617 1657.3 483.154C1657.3 482.981 1657.3 481.728 1657.3 481.209L1661.66 481.209C1661.66 481.425 1661.75 482.549 1661.75 482.938C1661.75 485.228 1663.7 487.129 1666.01 487.129C1667.87 487.129 1669.37 486.049 1670.05 484.493C1670.23 483.975 1670.46 483.413 1670.46 482.808C1670.46 480.475 1668.51 478.574 1666.24 478.574C1666.1 478.574 1666.01 478.574 1665.83 478.574L1665.83 473.518C1671.82 474.123 1674.86 477.45 1674.86 482.851C1674.86 485.357 1674.04 487.431 1672.55 489.246C1670.91 491.061 1668.78 492.011 1666.24 492.011C1663.38 492.011 1661.2 491.018 1659.57 489.03Z" fill="#FBFBFB"/>
<path d="M914.898 950.941V965.752H1026.28V950.941H1056.4C1056.6 948.631 1056.74 946.307 1056.74 943.952C1056.74 900.412 1019.44 864.978 972.967 863.801V851.925H968.198V863.801C921.723 864.978 884.426 900.412 884.426 943.952C884.426 946.307 884.56 948.631 884.768 950.941H914.883H914.898ZM959.004 950.39L957.574 951.716H959.764V958.838H949.826V951.716H952.016L950.586 950.39C949.438 949.332 948.797 947.931 948.797 946.426C948.797 943.356 951.48 940.853 954.788 940.853C958.096 940.853 960.778 943.356 960.778 946.426C960.778 947.931 960.152 949.332 958.99 950.39H959.004ZM974.799 950.39L973.369 951.716H975.559V958.838H965.62V951.716H967.811L966.38 950.39C965.233 949.332 964.592 947.931 964.592 946.426C964.592 943.356 967.274 940.853 970.582 940.853C973.89 940.853 976.573 943.356 976.573 946.426C976.573 947.931 975.947 949.332 974.784 950.39H974.799ZM990.594 950.39L989.164 951.716H991.354V958.838H981.415V951.716H983.606L982.175 950.39C981.028 949.332 980.387 947.931 980.387 946.426C980.387 943.356 983.069 940.853 986.377 940.853C989.685 940.853 992.367 943.356 992.367 946.426C992.367 947.931 991.742 949.332 990.579 950.39H990.594Z" fill="#DD0031"/>
<path d="M946.577 1079.79C948.425 1066.78 952.373 1043.3 958.736 1026.47C959.123 1025.46 959.511 1024.46 959.913 1023.51C962.163 1018.11 964.681 1013.58 967.513 1010.62C969.107 1008.94 972.117 1008.94 973.711 1010.62C976.528 1013.58 979.061 1018.11 981.311 1023.51C981.713 1024.48 982.1 1025.46 982.488 1026.47C988.851 1043.3 992.799 1066.78 994.647 1079.79H1076.5L1066.71 955.575H1031.3V970.387H909.921V955.575H874.516L864.727 1079.79H946.577Z" fill="#DD0031"/>
<path d="M1250.78 920.471L1251.24 920.144V916.91C1251.24 916.91 1108.1 931.006 1086.79 1018.16C1086.79 1018.16 1077.91 1054.18 1076.5 1080.27H1109.41V1080.13C1109.5 1077.9 1111.83 1024.9 1133.3 992.443C1155.98 958.141 1197.7 932.586 1250.79 920.457L1250.78 920.471Z" fill="#DD0031"/>
<path d="M1247.63 925.791C1196.92 938.084 1157.18 962.775 1135.49 995.601C1115.85 1025.3 1112.78 1074.62 1112.5 1079.94L1112.59 1080.27H1166.27L1166.3 1080.04C1166.35 1079.73 1168.66 1063.71 1173.86 1044.74C1180.49 1014.48 1198.67 969.138 1247.63 925.806V925.791Z" fill="#DD0031"/>
<path d="M1256.53 937.324C1245.12 949.722 1206.08 994.231 1200.99 1027.31C1197.31 1051.33 1196.64 1069.66 1196.69 1080.27H1246.93L1253.3 1052.64C1253.06 1022.63 1253.3 974.07 1256.51 937.324H1256.53Z" fill="#DD0031"/>
<path d="M1198 1026.33C1203.85 988.151 1250.33 938.218 1257.12 931.096C1257.29 929.472 1257.45 927.877 1257.63 926.312C1257.63 926.312 1201.16 980.075 1191.92 1022.87C1182.68 1065.67 1185.53 1080.28 1185.53 1080.28H1193.59C1193.54 1069.44 1194.21 1050.91 1197.98 1026.33H1198Z" fill="#DD0031"/>
<path d="M1170.73 1064.53C1169.28 1071.46 1168.4 1076.77 1168.03 1079.14H1182.26C1181.67 1044.45 1191.49 1010.86 1195.57 998.478C1182.47 1016.08 1174.59 1046.1 1170.73 1064.53Z" fill="#DD0031"/>
<path d="M1440.57 1018.16C1419.26 931.006 1276.12 916.91 1276.12 916.91V920.144L1276.59 920.471C1329.68 932.601 1371.4 958.156 1394.08 992.457C1415.54 1024.91 1417.86 1077.91 1417.95 1080.15V1080.28H1450.87C1449.45 1054.19 1440.57 1018.18 1440.57 1018.18V1018.16Z" fill="#DD0031"/>
<path d="M1279.73 925.791C1328.69 969.138 1346.86 1014.47 1353.5 1044.73C1358.7 1063.7 1361.01 1079.72 1361.06 1080.03L1361.09 1080.25H1414.77L1414.86 1079.93C1414.58 1074.61 1411.51 1025.28 1391.87 995.587C1370.18 962.76 1330.44 938.07 1279.73 925.776V925.791Z" fill="#DD0031"/>
<path d="M1270.82 937.324C1273.96 973.295 1274.26 1020.6 1274.05 1050.73L1281.1 1080.28H1330.66C1330.7 1069.67 1330.05 1051.35 1326.35 1027.33C1321.27 994.231 1282.23 949.737 1270.82 937.339V937.324Z" fill="#DD0031"/>
<path d="M1269.73 926.297C1269.91 927.861 1270.07 929.456 1270.24 931.08C1277.03 938.203 1323.51 988.15 1329.36 1026.31C1333.13 1050.88 1333.82 1069.42 1333.76 1080.27H1341.82C1341.82 1080.27 1344.67 1065.65 1335.43 1022.85C1326.19 980.059 1269.72 926.297 1269.72 926.297H1269.73Z" fill="#DD0031"/>
<path d="M1331.81 998.478C1335.89 1010.86 1345.71 1044.45 1345.11 1079.14H1359.34C1358.97 1076.77 1358.09 1071.46 1356.65 1064.53C1352.8 1046.1 1344.92 1016.08 1331.81 998.478Z" fill="#DD0031"/>
<path d="M1263.78 1021.32L1253.46 1066.11L1250.72 1078.02H1253.67H1273.68H1277.3L1273.93 1063.86L1263.78 1021.32Z" fill="#DD0031"/>
<path d="M1558.25 999.129L1559.21 998.801L1566.06 906.58L1561.92 852.267L1550.33 905.045L1537.81 1031.45H1539.27L1558.24 999.144L1558.25 999.129ZM1560.49 907.549L1559.46 910.633H1554.29L1553.26 907.549H1560.5H1560.49Z" fill="#DD0031"/>
<path d="M1807.13 999.13L1826.1 1031.43H1827.56L1815.04 905.031L1803.45 852.252L1799.31 906.566L1806.16 998.787L1807.12 999.115L1807.13 999.13ZM1804.9 907.549H1812.14L1811.11 910.633H1805.94L1804.91 907.549H1804.9Z" fill="#DD0031"/>
<path d="M1491.62 1043.95H1462.77L1450.87 1079.15H1493.96L1498.97 1075.66L1491.62 1043.95Z" fill="#DD0031"/>
<path d="M1491.86 1040.79L1506.04 850.047L1499.77 767.779L1482.22 847.722L1463.1 1040.81H1491.86V1040.79ZM1486.61 851.492H1497.58L1496.02 856.156H1488.18L1486.61 851.492Z" fill="#DD0031"/>
<path d="M1873.77 1040.79H1902.3L1883.18 847.708L1865.63 767.765L1859.36 850.032L1873.54 1040.78H1873.78L1873.77 1040.79ZM1867.81 851.492H1878.77L1877.21 856.156H1869.37L1867.81 851.492Z" fill="#DD0031"/>
<path d="M1902.61 1043.95H1873.77L1866.42 1075.66L1871.43 1079.15H1914.52L1902.61 1043.95Z" fill="#DD0031"/>
<path d="M1565.41 1057.87L1675.39 979.401L1676.24 978.79V970.192L1675.39 970.773L1562.79 1046.54L1559.78 1048.57L1546.01 1057.85L1541.3 1061.01L1520.21 1075.2L1519.04 1075.99H1540L1541.11 1075.2L1561 1061.01L1565.41 1057.87Z" fill="#DD0031"/>
<path d="M1838.78 1061.27L1838.63 1061.01L1834.35 1053.73L1823.13 1034.61L1821.27 1031.45L1806.77 1006.74L1804.18 1002.33L1700.72 966.735L1697.82 941.657L1689.03 952.699V941.523H1689.46L1689.03 938.513V933.626H1688.33L1682.69 894.272L1677.06 933.626H1676.36V938.513L1675.93 941.523H1676.36V952.699L1667.57 941.657L1664.66 966.735L1561.21 1002.33L1558.61 1006.74L1544.11 1031.45L1542.25 1034.61L1531.03 1053.73L1526.76 1061.01L1526.61 1061.27L1502.93 1077.82L1501.02 1079.16H1508.55L1514.42 1075.21L1535.52 1061.01L1540.21 1057.85L1559 1045.2L1562.01 1043.18L1580.35 1030.84L1675.41 966.869L1676.36 966.229V982.694L1675.41 983.379L1546.69 1075.2L1541.15 1079.15H1566.64V1079.94H1577.13H1798.76V1079.15H1824.24L1824.18 1079.1L1818.69 1075.2L1689.98 983.379L1689.03 982.694V966.229L1689.98 966.869L1803.37 1043.18L1806.38 1045.2L1825.17 1057.85L1829.87 1061.01L1850.97 1075.21L1856.84 1079.16H1864.36L1862.46 1077.82L1838.78 1061.27ZM1576.36 1078.36H1568.34V1069.1L1572.81 1060.01L1576.36 1062.88V1078.36ZM1586.87 1078.36H1578.85V1061.71L1583.32 1052.62L1586.87 1055.48V1078.36ZM1597.37 1078.36H1589.35V1054.32L1593.82 1045.23L1597.37 1048.09V1078.36ZM1607.88 1078.36H1599.86V1046.93L1604.33 1037.84L1607.88 1040.7V1078.36ZM1618.38 1078.36H1610.36V1039.54L1614.83 1030.45L1618.38 1033.31V1078.36ZM1628.89 1078.36H1620.87V1032.15L1625.34 1023.06L1628.89 1025.92V1078.36ZM1639.39 1078.36H1631.37V1024.76L1635.84 1015.67L1639.39 1018.53V1078.36ZM1649.9 1078.36H1641.88V1017.37L1646.35 1008.28L1649.9 1011.14V1078.36ZM1660.4 1078.36H1652.38V1009.98L1656.85 1000.89L1660.4 1003.75V1078.36ZM1670.91 1078.36H1662.89V1002.59L1667.36 993.497L1670.91 996.358V1078.36ZM1681.41 1078.36H1673.39V995.196L1677.6 986.628L1677.85 986.091L1678.07 986.27L1681.4 988.952V1078.34L1681.41 1078.36ZM1692.08 1078.36H1684.06V988.967L1687.39 986.285L1687.61 986.106L1687.86 986.643L1692.07 995.211V1078.37L1692.08 1078.36ZM1702.59 1078.36H1694.57V996.358L1698.11 993.497L1702.59 1002.59V1078.36ZM1713.09 1078.36H1705.07V1003.75L1708.62 1000.89L1713.09 1009.98V1078.36ZM1723.6 1078.36H1715.58V1011.14L1719.13 1008.28L1723.6 1017.37V1078.36ZM1734.1 1078.36H1726.08V1018.53L1729.63 1015.67L1734.1 1024.76V1078.36ZM1744.61 1078.36H1736.59V1025.92L1740.14 1023.06L1744.61 1032.15V1078.36ZM1755.11 1078.36H1747.09V1033.31L1750.64 1030.45L1755.11 1039.54V1078.36ZM1765.62 1078.36H1757.6V1040.7L1761.15 1037.84L1765.62 1046.93V1078.36ZM1776.12 1078.36H1768.1V1048.09L1771.65 1045.23L1776.12 1054.32V1078.36ZM1786.63 1078.36H1778.61V1055.48L1782.16 1052.62L1786.63 1061.71V1078.36ZM1797.13 1078.36H1789.11V1062.88L1792.66 1060.01L1797.13 1069.1V1078.36Z" fill="#DD0031"/>
<path d="M1824.09 1061.01L1819.38 1057.85L1805.61 1048.57L1802.6 1046.54L1689.99 970.773L1689.14 970.192V978.79L1689.99 979.401L1799.98 1057.87L1804.39 1061.01L1824.28 1075.2L1825.38 1075.99H1846.35L1845.17 1075.2L1824.09 1061.01Z" fill="#DD0031"/>
<path d="M265.891 925.239H265.385V936.415H265.891V925.239Z" fill="#DD0031"/>
<path d="M255.698 925.239H255.191V936.415H255.698V925.239Z" fill="#DD0031"/>
<path d="M859.69 919.681V913.631C859.69 913.259 859.645 912.871 859.555 912.514C859.466 912.141 859.332 911.784 859.153 911.426C858.989 911.068 858.781 910.711 858.542 910.368C858.304 910.025 858.036 909.683 857.738 909.355C856.411 907.88 854.594 906.553 852.835 905.495C852.448 905.257 852.06 905.034 851.673 904.825C851.3 904.616 850.928 904.423 850.57 904.229C849.691 903.767 848.901 903.394 848.305 903.126C847.59 902.798 847.143 902.635 847.143 902.635L845.713 892.755L844.282 902.635C844.282 902.635 843.835 902.813 843.12 903.126C842.524 903.394 841.734 903.767 840.855 904.229C840.497 904.408 840.14 904.616 839.752 904.825C839.38 905.034 838.992 905.257 838.59 905.495C836.832 906.568 835.014 907.88 833.688 909.355C833.39 909.683 833.121 910.025 832.883 910.368C832.645 910.711 832.436 911.068 832.272 911.426C832.093 911.784 831.959 912.141 831.87 912.514C831.78 912.886 831.736 913.259 831.736 913.631V919.681H827.265V922.989H833.077V938.65H827.265V944.074C827.489 944.118 827.697 944.163 827.906 944.223C828.323 944.327 828.711 944.476 829.083 944.625C829.441 944.789 829.784 944.968 830.111 945.176C831.065 945.802 831.795 946.592 832.376 947.471C832.57 947.754 832.734 948.067 832.898 948.365C833.136 948.812 833.33 949.274 833.494 949.736C833.598 950.034 833.702 950.347 833.792 950.63C833.926 951.077 834.015 951.494 834.105 951.897C834.164 952.165 834.194 952.418 834.239 952.657C834.254 952.776 834.269 952.895 834.284 952.999C834.313 953.223 834.328 953.417 834.343 953.595C834.388 954.117 834.388 954.445 834.388 954.445H834.746V981.654C834.582 981.743 834.403 981.862 834.209 981.981C833.926 982.16 833.643 982.369 833.375 982.622C833.285 982.697 833.196 982.786 833.106 982.876C832.838 983.144 832.6 983.427 832.406 983.755C832.272 983.963 832.168 984.202 832.093 984.44C832.019 984.679 831.959 984.932 831.944 985.2C831.944 985.334 831.944 985.468 831.944 985.617C831.959 985.9 832.019 986.198 832.123 986.496C832.123 986.496 833.419 987.867 833.345 989.67C833.315 990.177 833.181 990.728 832.883 991.294C832.704 991.637 832.451 991.965 832.138 992.308H829.307C828.979 991.965 828.74 991.622 828.547 991.294C828.234 990.728 828.1 990.192 828.085 989.67C828.01 987.867 829.307 986.496 829.307 986.496C829.456 986.049 829.515 985.647 829.486 985.26C829.441 984.291 828.934 983.501 828.308 982.876C827.176 981.758 825.641 981.192 825.641 981.192C825.641 981.192 824.106 981.758 822.974 982.876C822.348 983.501 821.841 984.291 821.797 985.26C821.782 985.647 821.827 986.064 821.976 986.496C821.976 986.496 823.272 987.867 823.197 989.67C823.168 990.177 823.034 990.728 822.735 991.294C822.557 991.637 822.303 991.965 821.976 992.308H819.144C818.817 991.965 818.578 991.622 818.399 991.294C818.086 990.728 817.952 990.192 817.937 989.67C817.863 987.867 819.159 986.496 819.159 986.496C819.308 986.049 819.368 985.647 819.338 985.26C819.293 984.291 818.787 983.501 818.161 982.876C817.028 981.758 815.494 981.192 815.494 981.192C815.494 981.192 813.959 981.758 812.826 982.876C812.201 983.501 811.694 984.291 811.649 985.26C811.634 985.647 811.679 986.064 811.828 986.496C811.828 986.496 813.124 987.867 813.05 989.67C813.02 990.177 812.886 990.728 812.588 991.294C812.409 991.637 812.156 991.965 811.843 992.308H809.012C808.684 991.965 808.446 991.622 808.267 991.294C807.954 990.728 807.82 990.192 807.805 989.67C807.73 987.867 809.027 986.496 809.027 986.496C809.176 986.049 809.235 985.647 809.206 985.26C809.161 984.291 808.654 983.501 808.028 982.876C806.896 981.758 805.361 981.192 805.361 981.192C805.361 981.192 804.869 981.371 804.229 981.743C803.752 982.026 803.186 982.399 802.694 982.876C802.068 983.501 801.561 984.291 801.517 985.26C801.502 985.647 801.547 986.064 801.695 986.496C801.695 986.496 802.992 987.867 802.917 989.67C802.888 990.177 802.753 990.728 802.455 991.294C802.277 991.637 802.023 991.965 801.71 992.308H798.879C798.551 991.965 798.313 991.622 798.134 991.294C797.821 990.728 797.687 990.192 797.672 989.67C797.598 987.867 798.894 986.496 798.894 986.496C799.043 986.049 799.103 985.647 799.073 985.26C799.028 984.291 798.522 983.501 797.896 982.876C796.763 981.758 795.229 981.192 795.229 981.192C795.229 981.192 793.694 981.758 792.561 982.876C791.935 983.501 791.429 984.291 791.384 985.26C791.369 985.647 791.414 986.064 791.563 986.496C791.563 986.496 792.859 987.867 792.785 989.67C792.755 990.177 792.621 990.728 792.323 991.294C792.144 991.637 791.891 991.965 791.578 992.308H788.747C788.419 991.965 788.18 991.622 788.002 991.294C787.689 990.728 787.555 990.192 787.54 989.67C787.465 987.867 788.762 986.496 788.762 986.496C788.911 986.049 788.97 985.647 788.94 985.26C788.896 984.291 788.389 983.501 787.763 982.876C786.631 981.758 785.096 981.192 785.096 981.192C785.096 981.192 783.561 981.758 782.429 982.876C782.265 983.039 782.116 983.218 781.982 983.397C781.579 983.919 781.281 984.544 781.252 985.26C781.237 985.647 781.281 986.064 781.43 986.496C781.43 986.496 781.698 986.78 781.982 987.256C782.324 987.838 782.697 988.687 782.652 989.685C782.652 989.834 782.622 989.998 782.593 990.147C782.503 990.624 782.309 991.116 781.982 991.622C781.833 991.861 781.654 992.084 781.43 992.323H778.599C778.271 991.98 778.033 991.637 777.854 991.309C777.541 990.743 777.407 990.207 777.392 989.685C777.318 987.882 778.614 986.511 778.614 986.511C778.763 986.064 778.823 985.662 778.793 985.275C778.748 984.306 778.242 983.516 777.616 982.89C776.483 981.773 774.948 981.207 774.948 981.207C774.948 981.207 773.414 981.773 772.281 982.89C771.655 983.516 771.149 984.306 771.104 985.275C771.089 985.662 771.134 986.079 771.283 986.511C771.283 986.511 772.579 987.882 772.505 989.685C772.475 990.192 772.341 990.743 772.043 991.309C771.864 991.652 771.611 991.98 771.298 992.323H768.467C768.139 991.98 767.9 991.637 767.722 991.309C767.409 990.743 767.275 990.207 767.26 989.685C767.185 987.882 768.481 986.511 768.481 986.511C768.63 986.064 768.69 985.662 768.66 985.275C768.616 984.306 768.109 983.516 767.483 982.89C766.351 981.773 764.816 981.207 764.816 981.207C764.816 981.207 763.281 981.773 762.149 982.89C761.523 983.516 761.016 984.306 760.971 985.275C760.957 985.662 761.001 986.079 761.15 986.511C761.15 986.511 762.447 987.882 762.372 989.685C762.342 990.192 762.208 990.743 761.91 991.309C761.731 991.652 761.478 991.98 761.165 992.323H758.334C758.006 991.98 757.768 991.637 757.574 991.309C757.261 990.743 757.127 990.207 757.112 989.685C757.038 987.882 758.334 986.511 758.334 986.511C758.483 986.064 758.543 985.662 758.513 985.275C758.468 984.306 757.961 983.516 757.336 982.89C756.203 981.773 754.668 981.207 754.668 981.207C754.668 981.207 753.134 981.773 752.001 982.89C751.718 983.174 751.465 983.501 751.256 983.859C751.018 984.276 750.854 984.753 750.824 985.275C750.809 985.662 750.854 986.079 751.003 986.511C751.003 986.511 751.107 986.631 751.256 986.824C751.629 987.331 752.284 988.404 752.225 989.7C752.195 990.43 751.912 991.235 751.256 992.04C751.167 992.144 751.107 992.233 751.003 992.338H748.172C747.844 991.995 747.605 991.652 747.427 991.324C747.114 990.758 746.98 990.222 746.965 989.7C746.89 987.897 748.187 986.526 748.187 986.526C748.336 986.079 748.395 985.677 748.365 985.289C748.321 984.321 747.814 983.531 747.188 982.905C746.056 981.788 744.521 981.222 744.521 981.222C744.521 981.222 742.986 981.788 741.854 982.905C741.228 983.531 740.721 984.321 740.677 985.289C740.662 985.677 740.706 986.094 740.855 986.526C740.855 986.526 742.152 987.897 742.077 989.7C742.047 990.207 741.913 990.758 741.615 991.324C741.436 991.667 741.183 991.995 740.87 992.338H738.039C737.711 991.995 737.473 991.652 737.294 991.324C736.981 990.758 736.847 990.222 736.832 989.7C736.758 987.897 738.054 986.526 738.054 986.526C738.203 986.079 738.263 985.677 738.233 985.289C738.188 984.321 737.681 983.531 737.056 982.905C735.923 981.788 734.388 981.222 734.388 981.222C734.388 981.222 732.854 981.788 731.721 982.905C731.095 983.531 730.589 984.321 730.544 985.289C730.529 985.677 730.574 986.094 730.723 986.526C730.723 986.526 732.019 987.897 731.945 989.7C731.915 990.207 731.781 990.758 731.483 991.324C731.304 991.667 731.051 991.995 730.738 992.338H727.906C727.579 991.995 727.34 991.652 727.161 991.324C726.849 990.758 726.714 990.222 726.7 989.7C726.625 987.897 727.921 986.526 727.921 986.526C728.07 986.079 728.13 985.677 728.1 985.289C728.056 984.321 727.549 983.531 726.923 982.905C725.791 981.788 724.256 981.222 724.256 981.222C724.256 981.222 722.721 981.788 721.589 982.905C720.963 983.531 720.456 984.321 720.411 985.289C720.397 985.677 720.441 986.094 720.59 986.526C720.59 986.526 721.887 987.897 721.812 989.7C721.782 990.207 721.648 990.758 721.35 991.324C721.171 991.667 720.918 991.995 720.605 992.338H717.774C717.446 991.995 717.208 991.652 717.029 991.324C716.716 990.758 716.582 990.222 716.567 989.7C716.492 987.897 717.789 986.526 717.789 986.526C717.938 986.079 717.997 985.677 717.968 985.289C717.923 984.321 717.416 983.531 716.791 982.905C715.658 981.788 714.123 981.222 714.123 981.222C714.123 981.222 712.588 981.788 711.456 982.905C710.83 983.531 710.324 984.321 710.279 985.289C710.264 985.677 710.309 986.094 710.458 986.526C710.458 986.526 711.754 987.897 711.68 989.7C711.65 990.207 711.516 990.758 711.218 991.324C711.039 991.667 710.785 991.995 710.458 992.338H707.626C707.299 991.995 707.06 991.652 706.867 991.324C706.554 990.758 706.419 990.222 706.405 989.7C706.33 987.897 707.626 986.526 707.626 986.526C707.775 986.079 707.835 985.677 707.805 985.289C707.761 984.321 707.254 983.531 706.628 982.905C705.496 981.788 703.961 981.222 703.961 981.222C703.961 981.222 702.426 981.788 701.294 982.905C700.668 983.531 700.161 984.321 700.116 985.289C700.102 985.677 700.146 986.094 700.295 986.526C700.295 986.526 701.592 987.897 701.517 989.7C701.487 990.207 701.353 990.758 701.055 991.324C700.876 991.667 700.623 991.995 700.31 992.338H697.479C697.151 991.995 696.913 991.652 696.719 991.324C696.406 990.758 696.272 990.222 696.257 989.7C696.183 987.897 697.479 986.526 697.479 986.526C697.628 986.079 697.688 985.677 697.658 985.289C697.613 984.321 697.107 983.531 696.481 982.905C695.348 981.788 693.813 981.222 693.813 981.222C693.813 981.222 692.279 981.788 691.146 982.905C690.52 983.531 690.014 984.321 689.969 985.289C689.954 985.677 689.999 986.094 690.148 986.526C690.148 986.526 691.444 987.897 691.37 989.7C691.34 990.207 691.206 990.758 690.908 991.324C690.729 991.667 690.476 991.995 690.163 992.338H687.332C687.004 991.995 686.765 991.652 686.572 991.324C686.259 990.758 686.125 990.222 686.11 989.7C686.035 987.897 687.332 986.526 687.332 986.526C687.481 986.079 687.54 985.677 687.51 985.289C687.466 984.321 686.959 983.531 686.333 982.905C685.201 981.788 683.666 981.222 683.666 981.222C683.666 981.222 682.131 981.788 680.999 982.905C680.373 983.531 679.866 984.321 679.822 985.289C679.807 985.677 679.851 986.094 680 986.526C680 986.526 681.297 987.897 681.222 989.7C681.192 990.207 681.058 990.758 680.76 991.324C680.582 991.667 680.328 991.995 680.015 992.338H677.184C676.856 991.995 676.618 991.652 676.424 991.324C676.111 990.758 675.977 990.222 675.962 989.7C675.888 987.897 677.184 986.526 677.184 986.526C677.333 986.079 677.393 985.677 677.363 985.289C677.318 984.321 676.812 983.531 676.186 982.905C675.053 981.788 673.518 981.222 673.518 981.222C673.518 981.222 671.984 981.788 670.851 982.905C670.225 983.531 669.719 984.321 669.674 985.289C669.659 985.677 669.704 986.094 669.853 986.526C669.853 986.526 671.149 987.897 671.075 989.7C671.045 990.207 670.911 990.758 670.613 991.324C670.434 991.667 670.181 991.995 669.853 992.338H667.022C666.694 991.995 666.455 991.652 666.277 991.324C665.964 990.758 665.83 990.222 665.815 989.7C665.74 987.897 667.037 986.526 667.037 986.526C667.186 986.079 667.245 985.677 667.215 985.289C667.171 984.321 666.664 983.531 666.038 982.905C664.906 981.788 663.371 981.222 663.371 981.222C663.371 981.222 661.836 981.788 660.704 982.905C660.078 983.531 659.571 984.321 659.527 985.289C659.512 985.677 659.556 986.094 659.705 986.526C659.705 986.526 661.002 987.897 660.927 989.7C660.912 990.117 660.823 990.549 660.629 990.982C660.436 991.429 660.138 991.876 659.705 992.338H656.874C656.546 991.995 656.308 991.652 656.129 991.324C655.816 990.758 655.682 990.222 655.667 989.7C655.593 987.897 656.889 986.526 656.889 986.526C657.038 986.079 657.098 985.677 657.068 985.289C657.023 984.321 656.517 983.531 655.891 982.905C654.758 981.788 653.224 981.222 653.224 981.222C653.224 981.222 651.689 981.788 650.556 982.905C649.93 983.531 649.424 984.321 649.379 985.289C649.364 985.677 649.409 986.094 649.558 986.526C649.558 986.526 650.854 987.897 650.78 989.7C650.75 990.207 650.616 990.758 650.318 991.324C650.139 991.667 649.886 991.995 649.558 992.338H646.727C646.399 991.995 646.161 991.652 645.967 991.324C645.654 990.758 645.52 990.222 645.505 989.7C645.43 987.897 646.727 986.526 646.727 986.526C646.876 986.079 646.935 985.677 646.906 985.289C646.861 984.321 646.354 983.531 645.728 982.905C644.596 981.788 643.061 981.222 643.061 981.222C643.061 981.222 641.526 981.788 640.394 982.905C639.768 983.531 639.261 984.321 639.217 985.289C639.202 985.677 639.247 986.094 639.396 986.526C639.396 986.526 640.692 987.897 640.617 989.7C640.588 990.207 640.454 990.758 640.156 991.324C639.977 991.667 639.723 991.995 639.396 992.338H636.564C636.237 991.995 635.998 991.652 635.804 991.324C635.491 990.758 635.357 990.222 635.342 989.7C635.268 987.897 636.564 986.526 636.564 986.526C636.713 986.079 636.773 985.677 636.743 985.289C636.698 984.321 636.192 983.531 635.566 982.905C634.434 981.788 632.899 981.222 632.899 981.222C632.899 981.222 631.364 981.788 630.232 982.905C629.606 983.531 629.099 984.321 629.054 985.289C629.039 985.677 629.084 986.094 629.233 986.526C629.233 986.526 630.53 987.897 630.455 989.7C630.425 990.207 630.291 990.758 629.993 991.324C629.814 991.667 629.561 991.995 629.233 992.338H626.402C626.074 991.995 625.836 991.652 625.657 991.324C625.344 990.758 625.21 990.222 625.195 989.7C625.121 987.897 626.417 986.526 626.417 986.526C626.551 986.124 626.611 985.736 626.596 985.379C626.596 984.842 626.432 984.351 626.193 983.919C625.642 982.905 624.614 982.175 623.839 981.728C623.72 981.669 623.616 981.609 623.511 981.549C623.362 981.475 623.228 981.4 623.109 981.356C622.99 981.311 622.9 981.266 622.841 981.236V936.385H622.811V923.317H622.721C622.721 923.317 622.721 918.4 625.463 917.699V914.764H623.228V906.285H625.463V904.497H623.735V901.219C623.735 897.941 618.907 895.259 618.907 895.259L618.356 889.909L617.804 895.259C617.804 895.259 612.976 897.941 612.976 901.219V904.497H611.248V906.285H613.483V914.764H611.248V917.699C613.99 918.385 613.99 923.317 613.99 923.317H613.9V926.431C613.394 926.178 613.021 926.044 613.021 926.044C613.021 926.044 612.365 926.282 611.591 926.744C611.203 926.982 610.801 927.266 610.428 927.623C610.309 927.742 610.19 927.862 610.086 927.996C609.758 928.383 609.49 928.83 609.37 929.322C609.326 929.486 609.296 929.665 609.296 929.843C609.281 930.201 609.326 930.588 609.475 930.991C609.475 930.991 610.726 932.272 610.652 933.956C610.652 934.045 610.652 934.15 610.622 934.239C610.533 934.925 610.19 935.67 609.475 936.4H607.314C606.584 935.655 606.256 934.925 606.167 934.239C606.167 934.135 606.137 934.045 606.137 933.956C606.062 932.272 607.314 930.991 607.314 930.991C607.463 930.588 607.508 930.201 607.493 929.843C607.448 929.128 607.135 928.502 606.703 927.996C606.599 927.862 606.48 927.742 606.36 927.623C605.988 927.281 605.586 926.982 605.198 926.744C604.438 926.282 603.768 926.044 603.768 926.044C603.768 926.044 603.112 926.282 602.337 926.744C601.95 926.982 601.547 927.266 601.175 927.623C601.056 927.742 600.936 927.862 600.832 927.996C600.4 928.517 600.072 929.128 600.042 929.843C600.028 930.201 600.072 930.588 600.221 930.991C600.221 930.991 601.473 932.272 601.398 933.956C601.398 934.045 601.398 934.15 601.369 934.239C601.279 934.925 600.936 935.67 600.221 936.4H598.061C597.33 935.655 597.003 934.925 596.913 934.239C596.913 934.135 596.883 934.045 596.883 933.956C596.809 932.272 598.061 930.991 598.061 930.991C598.21 930.588 598.254 930.201 598.239 929.843C598.195 929.128 597.882 928.502 597.45 927.996C597.345 927.862 597.226 927.742 597.107 927.623C596.734 927.281 596.332 926.982 595.945 926.744C595.185 926.282 594.514 926.044 594.514 926.044C594.514 926.044 593.859 926.282 593.084 926.744C592.696 926.982 592.294 927.266 591.921 927.623C591.802 927.742 591.683 927.862 591.579 927.996C591.147 928.517 590.819 929.128 590.789 929.843C590.774 930.201 590.819 930.588 590.968 930.991C590.968 930.991 592.22 932.272 592.145 933.956C592.145 934.045 592.145 934.15 592.115 934.239C592.026 934.925 591.683 935.67 590.968 936.4H588.807C588.077 935.655 587.749 934.925 587.66 934.239C587.66 934.135 587.63 934.045 587.63 933.956C587.556 932.272 588.807 930.991 588.807 930.991C588.956 930.588 589.001 930.201 588.986 929.843C588.941 929.128 588.628 928.502 588.196 927.996C588.092 927.862 587.973 927.742 587.854 927.623C587.481 927.281 587.079 926.982 586.691 926.744C585.931 926.282 585.261 926.044 585.261 926.044C585.261 926.044 584.605 926.282 583.83 926.744C583.443 926.982 583.041 927.266 582.668 927.623C582.549 927.742 582.43 927.862 582.325 927.996C582.221 928.13 582.117 928.264 582.027 928.398C581.744 928.815 581.565 929.307 581.536 929.843C581.521 930.201 581.565 930.588 581.714 930.991C581.714 930.991 582.966 932.272 582.892 933.956C582.892 934.045 582.892 934.15 582.862 934.239C582.772 934.925 582.43 935.67 581.714 936.4H579.554C578.824 935.655 578.496 934.925 578.406 934.239C578.406 934.135 578.377 934.045 578.377 933.956C578.302 932.272 579.554 930.991 579.554 930.991C579.703 930.588 579.747 930.201 579.733 929.843C579.733 929.665 579.703 929.486 579.658 929.322C579.539 928.815 579.271 928.383 578.943 927.996C578.839 927.862 578.719 927.742 578.6 927.623C578.228 927.281 577.825 926.982 577.438 926.744C576.678 926.282 576.007 926.044 576.007 926.044C576.007 926.044 575.352 926.282 574.577 926.744C574.189 926.982 573.787 927.266 573.415 927.623C573.295 927.742 573.176 927.862 573.072 927.996C572.64 928.517 572.312 929.128 572.282 929.843C572.267 930.201 572.312 930.588 572.461 930.991C572.461 930.991 573.713 932.272 573.638 933.956C573.638 934.045 573.638 934.15 573.608 934.239C573.519 934.925 573.176 935.67 572.461 936.4H570.3C569.57 935.655 569.242 934.925 569.153 934.239C569.153 934.135 569.123 934.045 569.123 933.956C569.049 932.272 570.3 930.991 570.3 930.991C570.449 930.588 570.494 930.201 570.479 929.843C570.434 929.128 570.122 928.502 569.689 927.996C569.585 927.862 569.466 927.742 569.347 927.623C568.974 927.281 568.572 926.982 568.184 926.744C567.424 926.282 566.754 926.044 566.754 926.044C566.754 926.044 566.098 926.282 565.323 926.744C564.936 926.982 564.534 927.266 564.161 927.623C564.042 927.742 563.923 927.862 563.818 927.996C563.595 928.249 563.416 928.532 563.267 928.845C563.133 929.158 563.044 929.486 563.014 929.843C562.999 930.201 563.044 930.588 563.193 930.991C563.193 930.991 564.444 932.272 564.37 933.956C564.37 934.045 564.37 934.15 564.34 934.239C564.251 934.925 563.908 935.67 563.193 936.4H561.032C560.302 935.655 559.974 934.925 559.885 934.239C559.885 934.135 559.855 934.045 559.855 933.956C559.78 932.272 561.032 930.991 561.032 930.991C561.181 930.588 561.226 930.201 561.211 929.843C561.166 929.128 560.853 928.502 560.421 927.996C560.317 927.862 560.198 927.742 560.078 927.623C559.706 927.281 559.304 926.982 558.916 926.744C558.156 926.282 557.486 926.044 557.486 926.044C557.486 926.044 556.83 926.282 556.055 926.744C555.668 926.982 555.265 927.266 554.893 927.623C554.774 927.742 554.654 927.862 554.55 927.996C554.118 928.517 553.79 929.128 553.76 929.843C553.746 930.201 553.79 930.588 553.939 930.991C553.939 930.991 555.191 932.272 555.116 933.956C555.116 934.045 555.116 934.15 555.087 934.239C554.997 934.925 554.654 935.67 553.939 936.4H551.779C551.048 935.655 550.721 934.925 550.631 934.239C550.631 934.135 550.601 934.045 550.601 933.956C550.527 932.272 551.779 930.991 551.779 930.991C551.928 930.588 551.972 930.201 551.957 929.843C551.913 929.128 551.6 928.502 551.168 927.996C551.063 927.862 550.944 927.742 550.825 927.623C550.452 927.281 550.05 926.982 549.663 926.744C548.903 926.282 548.232 926.044 548.232 926.044C548.232 926.044 547.577 926.282 546.802 926.744C546.414 926.982 546.012 927.266 545.639 927.623C545.52 927.742 545.401 927.862 545.297 927.996C544.969 928.383 544.701 928.83 544.581 929.322C544.537 929.486 544.507 929.665 544.507 929.843C544.492 930.201 544.537 930.588 544.686 930.991C544.686 930.991 545.938 932.272 545.863 933.956C545.863 934.045 545.863 934.15 545.833 934.239C545.744 934.925 545.401 935.67 544.686 936.4H542.525C541.795 935.655 541.467 934.925 541.378 934.239C541.378 934.135 541.363 934.045 541.348 933.956C541.274 932.272 542.525 930.991 542.525 930.991C542.674 930.588 542.719 930.201 542.704 929.843C542.659 929.128 542.346 928.502 541.914 927.996C541.81 927.862 541.691 927.742 541.572 927.623C541.199 927.281 540.797 926.982 540.409 926.744C539.649 926.282 538.979 926.044 538.979 926.044C538.979 926.044 538.323 926.282 537.548 926.744C537.161 926.982 536.759 927.266 536.386 927.623C536.267 927.742 536.148 927.862 536.043 927.996C535.611 928.517 535.283 929.128 535.254 929.843C535.239 930.201 535.283 930.588 535.432 930.991C535.432 930.991 536.684 932.272 536.61 933.956C536.61 934.045 536.61 934.15 536.58 934.239C536.49 934.925 536.148 935.67 535.432 936.4H533.272C532.542 935.655 532.214 934.925 532.124 934.239C532.124 934.135 532.109 934.045 532.095 933.956C532.02 932.272 533.272 930.991 533.272 930.991C533.421 930.588 533.465 930.201 533.451 929.843C533.406 929.128 533.093 928.502 532.661 927.996C532.557 927.862 532.437 927.742 532.318 927.623C531.946 927.281 531.543 926.982 531.156 926.744C530.396 926.282 529.725 926.044 529.725 926.044C529.725 926.044 529.07 926.282 528.295 926.744C527.907 926.982 527.505 927.266 527.133 927.623C527.013 927.742 526.894 927.862 526.79 927.996C526.358 928.517 526.03 929.128 526 929.843C525.985 930.201 526.03 930.588 526.179 930.991C526.179 930.991 527.431 932.272 527.356 933.956C527.356 934.045 527.356 934.15 527.326 934.239C527.237 934.925 526.894 935.67 526.179 936.4H524.018C523.288 935.655 522.96 934.925 522.871 934.239C522.871 934.135 522.856 934.045 522.841 933.956C522.767 932.272 524.018 930.991 524.018 930.991C524.167 930.588 524.212 930.201 524.197 929.843C524.152 929.128 523.84 928.502 523.407 927.996C523.303 927.862 523.184 927.742 523.065 927.623C522.692 927.281 522.29 926.982 521.902 926.744C521.142 926.282 520.472 926.044 520.472 926.044C520.472 926.044 519.816 926.282 519.041 926.744C518.654 926.982 518.252 927.266 517.879 927.623C517.76 927.742 517.641 927.862 517.536 927.996C517.432 928.13 517.328 928.264 517.238 928.398C516.955 928.815 516.777 929.307 516.747 929.843C516.732 930.201 516.777 930.588 516.926 930.991C516.926 930.991 518.177 932.272 518.103 933.956C518.103 934.045 518.103 934.15 518.073 934.239C517.983 934.925 517.641 935.67 516.926 936.4H514.765C514.035 935.655 513.707 934.925 513.618 934.239C513.618 934.135 513.603 934.045 513.588 933.956C513.513 932.272 514.765 930.991 514.765 930.991C514.914 930.588 514.959 930.201 514.944 929.843C514.944 929.665 514.914 929.486 514.869 929.322C514.75 928.815 514.482 928.383 514.154 927.996C514.05 927.862 513.93 927.742 513.811 927.623C513.439 927.281 513.036 926.982 512.649 926.744C511.889 926.282 511.219 926.044 511.219 926.044C511.219 926.044 510.563 926.282 509.788 926.744C509.401 926.982 508.998 927.266 508.626 927.623C508.507 927.742 508.387 927.862 508.283 927.996C507.851 928.517 507.523 929.128 507.493 929.843C507.478 930.201 507.523 930.588 507.672 930.991C507.672 930.991 508.924 932.272 508.849 933.956C508.849 934.045 508.849 934.15 508.819 934.239C508.73 934.925 508.387 935.67 507.672 936.4H505.511C504.781 935.655 504.454 934.925 504.364 934.239C504.364 934.135 504.334 934.045 504.334 933.956C504.26 932.272 505.511 930.991 505.511 930.991C505.66 930.588 505.705 930.201 505.69 929.843C505.646 929.128 505.333 928.502 504.901 927.996C504.796 927.862 504.677 927.742 504.558 927.623C504.185 927.281 503.783 926.982 503.396 926.744C502.636 926.282 501.965 926.044 501.965 926.044C501.965 926.044 501.309 926.282 500.535 926.744C500.147 926.982 499.745 927.266 499.372 927.623C499.253 927.742 499.134 927.862 499.03 927.996C498.806 928.249 498.627 928.532 498.478 928.845C498.344 929.158 498.255 929.486 498.225 929.843C498.195 930.201 498.255 930.588 498.404 930.991C498.404 930.991 499.655 932.272 499.581 933.956C499.581 934.045 499.581 934.15 499.551 934.239C499.462 934.925 499.119 935.67 498.404 936.4H496.243C495.513 935.655 495.185 934.925 495.096 934.239C495.096 934.135 495.066 934.045 495.066 933.956C494.991 932.272 496.243 930.991 496.243 930.991C496.362 930.663 496.422 930.35 496.422 930.052C496.422 929.754 496.392 929.471 496.318 929.203C496.198 928.8 496.005 928.443 495.751 928.13C495.588 927.921 495.394 927.713 495.2 927.534C494.708 927.087 494.127 926.729 493.665 926.476C493.472 926.372 493.308 926.297 493.159 926.237V923.719H493.069C493.069 923.719 493.069 918.802 495.811 918.102V915.166H493.576V906.688H495.811V904.899H494.083V901.621C494.083 901.308 494.038 901.01 493.963 900.712C493.889 900.414 493.77 900.131 493.636 899.848C493.546 899.669 493.442 899.476 493.323 899.297C493.099 898.939 492.831 898.596 492.548 898.283C492.414 898.12 492.265 897.971 492.116 897.822C491.818 897.524 491.505 897.255 491.222 897.017C491.073 896.898 490.924 896.778 490.789 896.674C490.506 896.466 490.238 896.272 490.015 896.123C489.791 895.974 489.597 895.855 489.463 895.78C489.404 895.735 489.344 895.706 489.314 895.691C489.284 895.676 489.255 895.661 489.255 895.661L488.972 892.979L488.688 890.297L488.405 892.979L488.122 895.661C488.122 895.661 488.107 895.661 488.063 895.691C488.033 895.706 487.973 895.735 487.914 895.78C487.779 895.855 487.586 895.974 487.362 896.123C487.139 896.272 486.871 896.466 486.587 896.674C486.453 896.778 486.304 896.898 486.155 897.017C485.857 897.255 485.544 897.524 485.261 897.822C485.112 897.971 484.963 898.12 484.829 898.283C484.546 898.596 484.278 898.939 484.054 899.297C483.935 899.476 483.831 899.654 483.741 899.848C483.607 900.131 483.488 900.414 483.414 900.712C483.339 901.01 483.294 901.308 483.294 901.621V904.899H481.566V906.688H483.801V915.166H481.566V918.102C484.308 918.787 484.308 923.719 484.308 923.719H484.218V936.415H484.114V981.296C484.039 981.326 483.935 981.371 483.816 981.43C483.697 981.49 483.548 981.549 483.399 981.639C483.086 981.803 482.728 982.011 482.37 982.279C482.251 982.369 482.132 982.458 482.013 982.563C481.178 983.248 480.433 984.217 480.433 985.438C480.433 985.781 480.493 986.154 480.627 986.556C480.627 986.556 481.923 987.927 481.849 989.73C481.834 990.147 481.745 990.579 481.551 991.011C481.357 991.458 481.059 991.905 480.627 992.367H477.796C477.259 991.801 476.932 991.235 476.753 990.684C476.649 990.356 476.589 990.043 476.574 989.73C476.5 987.927 477.796 986.556 477.796 986.556C477.945 986.109 478.005 985.707 477.975 985.319C477.93 984.351 477.423 983.561 476.798 982.935C475.665 981.818 474.13 981.251 474.13 981.251C474.13 981.251 472.596 981.818 471.463 982.935C470.837 983.561 470.331 984.351 470.286 985.319C470.271 985.707 470.316 986.124 470.465 986.556C470.465 986.556 471.761 987.927 471.687 989.73C471.672 990.147 471.582 990.579 471.389 991.011C471.195 991.458 470.897 991.905 470.465 992.367H467.634C467.097 991.801 466.769 991.235 466.59 990.684C466.486 990.356 466.427 990.043 466.412 989.73C466.337 987.927 467.634 986.556 467.634 986.556C467.783 986.109 467.842 985.707 467.812 985.319C467.768 984.351 467.261 983.561 466.635 982.935C465.503 981.818 463.968 981.251 463.968 981.251C463.968 981.251 462.433 981.818 461.301 982.935C460.675 983.561 460.168 984.351 460.124 985.319C460.109 985.707 460.153 986.124 460.302 986.556C460.302 986.556 461.599 987.927 461.524 989.73C461.494 990.237 461.36 990.788 461.062 991.354C460.883 991.697 460.63 992.025 460.317 992.367H457.486C456.95 991.801 456.622 991.235 456.443 990.684C456.339 990.356 456.279 990.043 456.264 989.73C456.19 987.927 457.486 986.556 457.486 986.556C457.635 986.109 457.695 985.707 457.665 985.319C457.62 984.351 457.114 983.561 456.488 982.935C455.355 981.818 453.82 981.251 453.82 981.251C453.82 981.251 452.286 981.818 451.153 982.935C450.527 983.561 450.021 984.351 449.976 985.319C449.961 985.707 450.006 986.124 450.155 986.556C450.155 986.556 451.451 987.927 451.377 989.73C451.347 990.237 451.213 990.788 450.915 991.354C450.736 991.697 450.483 992.025 450.17 992.367H447.339C447.011 992.025 446.772 991.682 446.594 991.354C446.281 990.788 446.147 990.251 446.132 989.73C446.057 987.927 447.354 986.556 447.354 986.556C447.503 986.109 447.562 985.707 447.532 985.319C447.488 984.351 446.981 983.561 446.355 982.935C445.223 981.818 443.688 981.251 443.688 981.251C443.688 981.251 442.153 981.818 441.021 982.935C440.395 983.561 439.888 984.351 439.843 985.319C439.829 985.707 439.873 986.124 440.022 986.556C440.022 986.556 441.319 987.927 441.244 989.73C441.229 990.147 441.14 990.579 440.946 991.011C440.752 991.458 440.454 991.905 440.022 992.367H437.191C436.863 992.025 436.625 991.682 436.446 991.354C436.133 990.788 435.999 990.251 435.984 989.73C435.91 987.927 437.206 986.556 437.206 986.556C437.355 986.109 437.415 985.707 437.385 985.319C437.34 984.351 436.833 983.561 436.208 982.935C435.075 981.818 433.54 981.251 433.54 981.251C433.54 981.251 432.006 981.818 430.873 982.935C430.247 983.561 429.741 984.351 429.696 985.319C429.681 985.707 429.726 986.124 429.875 986.556C429.875 986.556 431.171 987.927 431.097 989.73C431.082 990.147 430.992 990.579 430.799 991.011C430.605 991.458 430.307 991.905 429.875 992.367H427.044C426.507 991.801 426.179 991.235 426.001 990.684C425.896 990.356 425.837 990.043 425.822 989.73C425.747 987.927 427.044 986.556 427.044 986.556C427.193 986.109 427.252 985.707 427.222 985.319C427.178 984.351 426.671 983.561 426.045 982.935C424.913 981.818 423.378 981.251 423.378 981.251C423.378 981.251 421.843 981.818 420.711 982.935C420.085 983.561 419.578 984.351 419.534 985.319C419.519 985.707 419.563 986.124 419.712 986.556C419.712 986.556 421.009 987.927 420.934 989.73C420.919 990.147 420.83 990.579 420.636 991.011C420.443 991.458 420.145 991.905 419.727 992.367H416.896C416.36 991.801 416.032 991.235 415.853 990.684C415.749 990.356 415.689 990.043 415.674 989.73C415.6 987.927 416.896 986.556 416.896 986.556C417.045 986.109 417.105 985.707 417.075 985.319C417.03 984.351 416.524 983.561 415.898 982.935C414.765 981.818 413.231 981.251 413.231 981.251C413.231 981.251 411.696 981.818 410.563 982.935C409.937 983.561 409.431 984.351 409.386 985.319C409.371 985.707 409.416 986.124 409.565 986.556C409.565 986.556 410.861 987.927 410.787 989.73C410.757 990.237 410.623 990.788 410.325 991.354C410.146 991.697 409.893 992.025 409.565 992.367H406.734C406.406 992.025 406.168 991.682 405.974 991.354C405.661 990.788 405.527 990.251 405.512 989.73C405.437 987.927 406.734 986.556 406.734 986.556C406.883 986.109 406.942 985.707 406.913 985.319C406.868 984.351 406.361 983.561 405.735 982.935C404.603 981.818 403.068 981.251 403.068 981.251C403.068 981.251 401.533 981.818 400.401 982.935C399.775 983.561 399.269 984.351 399.224 985.319C399.209 985.707 399.254 986.124 399.403 986.556C399.403 986.556 400.699 987.927 400.624 989.73C400.595 990.237 400.461 990.788 400.163 991.354C399.984 991.697 399.73 992.025 399.403 992.367H396.571C396.244 992.025 396.005 991.682 395.812 991.354C395.499 990.788 395.364 990.251 395.35 989.73C395.275 987.927 396.571 986.556 396.571 986.556C396.72 986.109 396.78 985.707 396.75 985.319C396.706 984.351 396.199 983.561 395.573 982.935C394.441 981.818 392.906 981.251 392.906 981.251C392.906 981.251 391.371 981.818 390.239 982.935C389.613 983.561 389.106 984.351 389.061 985.319C389.047 985.707 389.091 986.124 389.24 986.556C389.24 986.556 390.537 987.927 390.462 989.73C390.447 990.147 390.358 990.579 390.164 991.011C389.97 991.458 389.672 991.905 389.24 992.367H386.409C385.873 991.801 385.545 991.235 385.366 990.684C385.262 990.356 385.202 990.043 385.187 989.73C385.113 987.927 386.409 986.556 386.409 986.556C386.558 986.109 386.618 985.707 386.588 985.319C386.543 984.351 386.037 983.561 385.411 982.935C384.278 981.818 382.743 981.251 382.743 981.251C382.743 981.251 381.209 981.818 380.076 982.935C379.45 983.561 378.944 984.351 378.899 985.319C378.884 985.707 378.929 986.124 379.078 986.556C379.078 986.556 380.374 987.927 380.3 989.73C380.285 990.147 380.195 990.579 380.002 991.011C379.808 991.458 379.51 991.905 379.078 992.367H376.247C375.71 991.801 375.382 991.235 375.204 990.684C375.099 990.356 375.04 990.043 375.025 989.73C374.95 987.927 376.247 986.556 376.247 986.556C376.396 986.109 376.455 985.707 376.426 985.319C376.381 984.351 375.874 983.561 375.248 982.935C374.116 981.818 372.581 981.251 372.581 981.251C372.581 981.251 371.046 981.818 369.914 982.935C369.288 983.561 368.781 984.351 368.737 985.319C368.722 985.707 368.766 986.124 368.915 986.556C368.915 986.556 370.212 987.927 370.137 989.73C370.108 990.237 369.973 990.788 369.675 991.354C369.497 991.697 369.243 992.025 368.915 992.367H366.084C365.548 991.801 365.22 991.235 365.041 990.684C364.937 990.356 364.877 990.043 364.862 989.73C364.788 987.927 366.084 986.556 366.084 986.556C366.233 986.109 366.293 985.707 366.263 985.319C366.218 984.351 365.712 983.561 365.086 982.935C363.954 981.818 362.419 981.251 362.419 981.251C362.419 981.251 360.884 981.818 359.751 982.935C359.126 983.561 358.619 984.351 358.574 985.319C358.559 985.707 358.604 986.124 358.753 986.556C358.753 986.556 360.049 987.927 359.975 989.73C359.945 990.237 359.811 990.788 359.513 991.354C359.334 991.697 359.081 992.025 358.768 992.367H355.937C355.803 992.218 355.684 992.084 355.579 991.935C355.43 991.742 355.311 991.548 355.207 991.369C354.894 990.803 354.745 990.251 354.73 989.73C354.67 988.553 355.207 987.569 355.579 987.018C355.788 986.72 355.937 986.556 355.937 986.556C356.086 986.109 356.145 985.707 356.116 985.319C356.086 984.723 355.877 984.187 355.579 983.71C355.4 983.427 355.177 983.159 354.939 982.935C353.806 981.818 352.271 981.251 352.271 981.251C352.271 981.251 350.736 981.818 349.604 982.935C348.978 983.561 348.472 984.351 348.427 985.319C348.412 985.707 348.457 986.124 348.606 986.556C348.606 986.556 349.902 987.927 349.828 989.73C349.813 990.147 349.723 990.579 349.529 991.011C349.336 991.458 349.038 991.905 348.606 992.367H345.774C345.447 992.025 345.208 991.682 345.029 991.354C344.717 990.788 344.582 990.251 344.568 989.73C344.493 987.927 345.789 986.556 345.789 986.556C345.938 986.109 345.998 985.707 345.968 985.319C345.923 984.351 345.417 983.561 344.791 982.935C343.659 981.818 342.124 981.251 342.124 981.251C342.124 981.251 340.589 981.818 339.457 982.935C338.831 983.561 338.324 984.351 338.279 985.319C338.264 985.707 338.309 986.124 338.458 986.556C338.458 986.556 339.755 987.927 339.68 989.73C339.665 990.147 339.576 990.579 339.382 991.011C339.188 991.458 338.89 991.905 338.458 992.367H335.627C335.091 991.801 334.763 991.235 334.584 990.684C334.48 990.356 334.42 990.043 334.405 989.73C334.331 987.927 335.627 986.556 335.627 986.556C335.776 986.109 335.836 985.707 335.806 985.319C335.761 984.351 335.254 983.561 334.629 982.935C333.496 981.818 331.961 981.251 331.961 981.251C331.961 981.251 330.427 981.818 329.294 982.935C328.668 983.561 328.162 984.351 328.117 985.319C328.102 985.707 328.147 986.124 328.296 986.556C328.296 986.556 329.592 987.927 329.518 989.73C329.503 990.147 329.413 990.579 329.22 991.011C329.026 991.458 328.728 991.905 328.296 992.367H325.465C325.39 992.293 325.331 992.203 325.256 992.129C324.556 991.309 324.273 990.49 324.243 989.73C324.183 988.374 324.898 987.271 325.256 986.794C325.375 986.645 325.465 986.541 325.465 986.541C325.614 986.094 325.673 985.692 325.643 985.304C325.614 984.813 325.465 984.381 325.256 983.978C325.047 983.591 324.779 983.233 324.466 982.92C323.334 981.803 321.799 981.236 321.799 981.236C321.799 981.236 320.264 981.803 319.132 982.92C318.506 983.546 317.999 984.336 317.955 985.304C317.94 985.692 317.984 986.109 318.133 986.541C318.133 986.541 319.43 987.912 319.355 989.715C319.325 990.222 319.191 990.773 318.893 991.339C318.715 991.682 318.461 992.01 318.133 992.352H315.302C314.974 992.01 314.736 991.667 314.557 991.339C314.244 990.773 314.11 990.237 314.095 989.715C314.021 987.912 315.317 986.541 315.317 986.541C315.466 986.094 315.526 985.692 315.496 985.304C315.451 984.336 314.945 983.546 314.319 982.92C313.186 981.803 311.652 981.236 311.652 981.236C311.652 981.236 310.117 981.803 308.984 982.92C308.358 983.546 307.852 984.336 307.807 985.304C307.792 985.692 307.837 986.109 307.986 986.541C307.986 986.541 309.282 987.912 309.208 989.715C309.178 990.222 309.044 990.773 308.746 991.339C308.567 991.682 308.314 992.01 307.986 992.352H305.155C304.827 992.01 304.589 991.667 304.395 991.339C304.082 990.773 303.948 990.237 303.933 989.715C303.858 987.912 305.155 986.541 305.155 986.541C305.304 986.094 305.363 985.692 305.334 985.304C305.289 984.336 304.782 983.546 304.156 982.92C303.784 982.548 303.367 982.235 302.979 981.996C302.19 981.49 301.504 981.236 301.504 981.236C301.504 981.236 299.969 981.803 298.837 982.92C298.211 983.546 297.704 984.336 297.66 985.304C297.645 985.692 297.689 986.109 297.838 986.541C297.838 986.541 299.135 987.912 299.06 989.715C299.045 990.132 298.956 990.564 298.762 990.996C298.569 991.444 298.271 991.891 297.838 992.352H295.007C294.471 991.786 294.143 991.22 293.964 990.669C293.86 990.341 293.8 990.028 293.785 989.715C293.711 987.912 295.007 986.541 295.007 986.541C295.156 986.094 295.216 985.692 295.186 985.304C295.141 984.336 294.635 983.546 294.009 982.92C292.876 981.803 291.342 981.236 291.342 981.236C291.342 981.236 289.807 981.803 288.674 982.92C288.049 983.546 287.542 984.336 287.497 985.304C287.482 985.692 287.527 986.109 287.676 986.541C287.676 986.541 288.972 987.912 288.898 989.715C288.883 990.132 288.794 990.564 288.6 990.996C288.406 991.444 288.108 991.891 287.676 992.352H284.845C284.309 991.786 283.981 991.22 283.802 990.669C283.698 990.341 283.638 990.028 283.623 989.715C283.549 987.912 284.845 986.541 284.845 986.541C284.994 986.094 285.054 985.692 285.024 985.304C284.979 984.336 284.472 983.546 283.847 982.92C282.714 981.803 281.179 981.236 281.179 981.236C281.179 981.236 279.645 981.803 278.512 982.92C277.886 983.546 277.38 984.336 277.335 985.304C277.32 985.692 277.365 986.109 277.514 986.541C277.514 986.541 278.81 987.912 278.736 989.715C278.706 990.222 278.572 990.773 278.274 991.339C278.095 991.682 277.842 992.01 277.529 992.352H274.697C274.161 991.786 273.833 991.22 273.654 990.669C273.55 990.341 273.49 990.028 273.476 989.715C273.401 987.912 274.697 986.541 274.697 986.541C274.802 986.228 274.861 985.945 274.876 985.662C274.876 985.528 274.876 985.379 274.876 985.245C274.861 984.977 274.802 984.723 274.727 984.485C274.653 984.246 274.534 984.023 274.414 983.799C274.221 983.472 273.982 983.188 273.714 982.92C273.625 982.831 273.535 982.756 273.446 982.667C273.178 982.429 272.88 982.22 272.611 982.026C272.433 981.907 272.239 981.803 272.075 981.698V954.489H272.433C272.433 954.489 272.433 954.177 272.477 953.64C272.492 953.461 272.507 953.268 272.537 953.044C272.537 952.94 272.567 952.821 272.582 952.701C272.611 952.463 272.656 952.21 272.716 951.941C272.79 951.539 272.894 951.122 273.029 950.675C273.118 950.377 273.207 950.079 273.327 949.781C273.491 949.319 273.684 948.857 273.923 948.41C274.087 948.112 274.25 947.814 274.444 947.516C275.025 946.652 275.755 945.847 276.709 945.221C277.022 945.013 277.365 944.834 277.737 944.67C278.095 944.506 278.497 944.372 278.914 944.267C279.123 944.208 279.332 944.163 279.555 944.118V938.695H273.744V923.034H279.555V919.726H275.085V913.676C275.085 913.303 275.04 912.916 274.951 912.558C274.861 912.201 274.727 911.828 274.548 911.471C274.37 911.113 274.176 910.755 273.923 910.413C273.684 910.07 273.416 909.727 273.118 909.399C271.792 907.924 269.974 906.598 268.216 905.54C267.828 905.302 267.441 905.078 267.053 904.87C266.681 904.661 266.308 904.467 265.951 904.274C265.072 903.812 264.282 903.439 263.686 903.171C262.971 902.843 262.523 902.679 262.523 902.679L261.093 892.8L259.663 902.679C259.663 902.679 259.216 902.858 258.5 903.171C257.904 903.439 257.114 903.812 256.235 904.274C255.878 904.452 255.52 904.661 255.133 904.87C254.76 905.078 254.373 905.302 253.97 905.54C252.212 906.613 250.394 907.924 249.068 909.399C248.77 909.727 248.502 910.07 248.263 910.413C248.025 910.755 247.816 911.113 247.638 911.471C247.474 911.828 247.325 912.186 247.235 912.558C247.146 912.931 247.101 913.303 247.101 913.676V919.726H242.631V923.034H248.442V938.695H242.631V944.118C242.854 944.163 243.063 944.208 243.272 944.267C243.689 944.372 244.076 944.521 244.449 944.67C244.806 944.834 245.149 945.013 245.477 945.221C246.431 945.847 247.161 946.637 247.742 947.516C247.936 947.799 248.099 948.112 248.263 948.41C248.502 948.857 248.696 949.319 248.859 949.781C248.964 950.079 249.068 950.392 249.157 950.675C249.292 951.122 249.381 951.539 249.47 951.941C249.53 952.21 249.56 952.463 249.604 952.701C249.619 952.821 249.634 952.94 249.649 953.044C249.679 953.268 249.694 953.461 249.709 953.64C249.753 954.162 249.753 954.489 249.753 954.489H249.768V1080.12H857.589V954.489H857.603C857.603 954.489 857.603 954.177 857.648 953.64C857.663 953.461 857.678 953.268 857.708 953.044C857.708 952.94 857.738 952.821 857.752 952.701C857.782 952.463 857.827 952.21 857.887 951.941C857.961 951.539 858.065 951.122 858.199 950.675C858.289 950.377 858.378 950.079 858.497 949.781C858.661 949.319 858.855 948.857 859.093 948.41C859.257 948.112 859.421 947.814 859.615 947.516C860.196 946.652 860.926 945.847 861.88 945.221C862.193 945.013 862.536 944.834 862.908 944.67C863.266 944.506 863.668 944.372 864.085 944.267C864.294 944.208 864.503 944.163 864.726 944.118V938.695H858.915V923.034H864.726V919.726H860.256L859.69 919.681ZM848.156 922.989H853.491V938.65H848.156V922.989ZM837.949 922.989H843.284V938.65H837.949V922.989ZM805.212 1036.15C807.253 1034.82 809.772 1033.82 812.797 1033.72C815.822 1033.82 818.34 1034.82 820.381 1036.15C820.783 1036.41 821.171 1036.68 821.543 1036.98C823.391 1038.41 824.762 1040.05 825.656 1041.35C825.835 1041.6 825.999 1041.85 826.148 1042.08C826.297 1042.3 826.416 1042.51 826.52 1042.69C826.848 1043.24 826.997 1043.57 826.997 1043.57V1074.99H798.566V1043.57C798.566 1043.57 798.73 1043.24 799.043 1042.69C799.147 1042.51 799.281 1042.3 799.416 1042.08C799.565 1041.85 799.729 1041.61 799.907 1041.35C800.816 1040.06 802.172 1038.41 804.02 1036.98C804.393 1036.7 804.78 1036.41 805.182 1036.15H805.212ZM764.101 1036.98C764.473 1036.7 764.861 1036.41 765.263 1036.15C767.304 1034.82 769.823 1033.82 772.847 1033.72C775.872 1033.82 778.391 1034.82 780.432 1036.15C780.834 1036.41 781.222 1036.68 781.594 1036.98C783.442 1038.41 784.813 1040.05 785.707 1041.35C785.886 1041.6 786.05 1041.85 786.199 1042.08C786.348 1042.3 786.467 1042.51 786.571 1042.69C786.899 1043.24 787.048 1043.57 787.048 1043.57V1074.99H758.617V1043.57C758.617 1043.57 758.781 1043.24 759.094 1042.69C759.198 1042.51 759.332 1042.3 759.466 1042.08C759.601 1041.85 759.779 1041.61 759.958 1041.35C760.867 1040.06 762.223 1038.41 764.071 1036.98H764.101ZM718.683 1074.98V1043.55C718.683 1043.55 718.847 1043.22 719.16 1042.67C719.264 1042.49 719.398 1042.29 719.532 1042.06C719.681 1041.84 719.845 1041.6 720.024 1041.33C720.933 1040.05 722.304 1038.4 724.137 1036.97C724.509 1036.68 724.897 1036.4 725.299 1036.13C727.34 1034.8 729.859 1033.81 732.883 1033.7C735.908 1033.81 738.426 1034.8 740.468 1036.13C740.87 1036.4 741.258 1036.67 741.63 1036.97C743.478 1038.4 744.849 1040.04 745.743 1041.33C745.922 1041.58 746.086 1041.84 746.235 1042.06C746.384 1042.29 746.503 1042.49 746.607 1042.67C746.935 1043.22 747.084 1043.55 747.084 1043.55V1074.98H718.653H718.683ZM678.734 1074.98V1043.55C678.734 1043.55 678.898 1043.22 679.211 1042.67C679.315 1042.49 679.449 1042.29 679.583 1042.06C679.717 1041.84 679.896 1041.6 680.075 1041.33C680.984 1040.05 682.355 1038.4 684.188 1036.97C684.56 1036.68 684.947 1036.4 685.35 1036.13C687.391 1034.8 689.909 1033.81 692.934 1033.7C695.959 1033.81 698.477 1034.8 700.519 1036.13C700.921 1036.4 701.309 1036.67 701.681 1036.97C703.529 1038.4 704.9 1040.04 705.794 1041.33C705.973 1041.58 706.136 1041.84 706.285 1042.06C706.434 1042.29 706.554 1042.49 706.658 1042.67C706.986 1043.22 707.135 1043.55 707.135 1043.55V1074.98H678.704H678.734ZM640.141 1041.35C641.05 1040.06 642.42 1038.41 644.253 1036.98C644.626 1036.7 645.013 1036.41 645.415 1036.15C647.457 1034.82 649.975 1033.82 653 1033.72C656.025 1033.82 658.543 1034.82 660.585 1036.15C660.987 1036.41 661.374 1036.68 661.747 1036.98C663.595 1038.41 664.965 1040.05 665.859 1041.35C666.038 1041.6 666.202 1041.85 666.351 1042.08C666.5 1042.3 666.619 1042.51 666.724 1042.69C667.051 1043.24 667.201 1043.57 667.201 1043.57V1074.99H638.77V1043.57C638.77 1043.57 638.934 1043.24 639.247 1042.69C639.351 1042.51 639.485 1042.3 639.619 1042.08C639.753 1041.85 639.932 1041.61 640.111 1041.35H640.141ZM514.437 1074.98V989.536C514.437 989.536 515.644 987.018 518.103 983.516C518.594 982.816 519.131 982.086 519.727 981.311C520.323 980.536 520.964 979.761 521.664 978.957C522.364 978.152 523.109 977.332 523.899 976.513C527.088 973.22 531.096 969.912 535.954 967.364C537.772 966.41 539.709 965.561 541.78 964.86C542.466 964.622 543.166 964.413 543.881 964.205C545.312 963.802 546.787 963.475 548.322 963.236C549.856 962.998 551.451 962.834 553.09 962.774C554.729 962.834 556.323 962.983 557.858 963.236C559.393 963.475 560.868 963.802 562.299 964.205C563.014 964.398 563.714 964.622 564.4 964.86C566.456 965.561 568.393 966.41 570.226 967.364C575.083 969.912 579.092 973.235 582.281 976.513C583.07 977.332 583.83 978.152 584.516 978.957C585.216 979.761 585.857 980.551 586.453 981.311C587.049 982.071 587.585 982.816 588.077 983.516C590.536 987.018 591.743 989.536 591.743 989.536V1074.98H514.452H514.437ZM614.988 914.719V906.241H617.044V914.719H614.988ZM618.922 914.719V906.241H620.978V914.719H618.922ZM489.21 915.107V906.628H491.266V915.107H489.21ZM485.276 915.107V906.628H487.332V915.107H485.276ZM461.971 1036.98C463.819 1038.41 465.19 1040.05 466.084 1041.35C466.263 1041.6 466.427 1041.85 466.576 1042.08C466.725 1042.3 466.844 1042.51 466.948 1042.69C467.276 1043.24 467.425 1043.57 467.425 1043.57V1074.99H438.994V1043.57C438.994 1043.57 439.158 1043.24 439.471 1042.69C439.575 1042.51 439.709 1042.3 439.843 1042.08C439.978 1041.85 440.156 1041.61 440.335 1041.35C441.244 1040.06 442.615 1038.41 444.448 1036.98C444.82 1036.7 445.208 1036.41 445.61 1036.15C447.652 1034.82 450.17 1033.82 453.195 1033.72C456.22 1033.82 458.738 1034.82 460.779 1036.15C461.182 1036.41 461.569 1036.68 461.941 1036.98H461.971ZM399.06 1074.98V1043.55C399.06 1043.55 399.224 1043.22 399.537 1042.67C399.641 1042.49 399.775 1042.29 399.909 1042.06C400.058 1041.84 400.222 1041.6 400.401 1041.33C401.31 1040.05 402.681 1038.4 404.514 1036.97C404.886 1036.68 405.274 1036.4 405.676 1036.13C407.717 1034.8 410.236 1033.81 413.26 1033.7C416.285 1033.81 418.803 1034.8 420.845 1036.13C421.247 1036.4 421.635 1036.67 422.007 1036.97C423.855 1038.4 425.226 1040.04 426.12 1041.33C426.299 1041.58 426.463 1041.84 426.612 1042.06C426.761 1042.29 426.88 1042.49 426.984 1042.67C427.312 1043.22 427.461 1043.55 427.461 1043.55V1074.98H399.03H399.06ZM359.111 1074.98V1043.55C359.111 1043.55 359.275 1043.22 359.588 1042.67C359.692 1042.49 359.826 1042.29 359.96 1042.06C360.094 1041.84 360.273 1041.6 360.452 1041.33C361.361 1040.05 362.732 1038.4 364.564 1036.97C364.937 1036.68 365.324 1036.4 365.727 1036.13C367.768 1034.8 370.286 1033.81 373.311 1033.7C376.336 1033.81 378.854 1034.8 380.896 1036.13C381.298 1036.4 381.685 1036.67 382.058 1036.97C383.906 1038.4 385.277 1040.04 386.171 1041.33C386.349 1041.58 386.513 1041.84 386.662 1042.06C386.811 1042.29 386.931 1042.49 387.035 1042.67C387.363 1043.22 387.512 1043.55 387.512 1043.55V1074.98H359.081H359.111ZM340.962 1036.15C341.364 1036.41 341.751 1036.68 342.124 1036.98C343.971 1038.41 345.342 1040.05 346.236 1041.35C346.415 1041.6 346.579 1041.85 346.728 1042.08C346.877 1042.3 346.996 1042.51 347.101 1042.69C347.428 1043.24 347.577 1043.57 347.577 1043.57V1074.99H319.147V1043.57C319.147 1043.57 319.311 1043.24 319.623 1042.69C319.728 1042.51 319.862 1042.3 319.996 1042.08C320.145 1041.85 320.309 1041.61 320.488 1041.35C321.397 1040.06 322.753 1038.41 324.6 1036.98C324.973 1036.7 325.36 1036.41 325.763 1036.15C327.804 1034.82 330.322 1033.82 333.347 1033.72C336.372 1033.82 338.89 1034.82 340.932 1036.15H340.962ZM279.227 1043.55C279.227 1043.55 279.391 1043.22 279.704 1042.67C279.808 1042.49 279.943 1042.29 280.077 1042.06C280.211 1041.84 280.39 1041.6 280.568 1041.33C281.477 1040.05 282.848 1038.4 284.681 1036.97C285.054 1036.68 285.441 1036.4 285.843 1036.13C287.885 1034.8 290.403 1033.81 293.428 1033.7C296.453 1033.81 298.971 1034.8 301.012 1036.13C301.415 1036.4 301.802 1036.67 302.175 1036.97C304.022 1038.4 305.393 1040.04 306.287 1041.33C306.466 1041.58 306.63 1041.84 306.779 1042.06C306.928 1042.29 307.047 1042.49 307.152 1042.67C307.479 1043.22 307.628 1043.55 307.628 1043.55V1074.98H279.198V1043.55H279.227ZM262.971 922.989H268.305V938.65H262.971V922.989ZM252.763 922.989H258.098V938.65H252.763V922.989Z" fill="#DD0031"/>
<path d="M779.776 990.029H779.985C780.209 989.448 780.075 988.911 779.881 988.509C779.672 988.911 779.553 989.448 779.776 990.029Z" fill="#DD0031"/>
<path d="M336.639 990.029C336.863 989.448 336.729 988.911 336.535 988.509C336.326 988.911 336.207 989.448 336.431 990.029H336.639Z" fill="#DD0031"/>
<path d="M840.87 925.239H840.363V936.415H840.87V925.239Z" fill="#DD0031"/>
<path d="M820.633 990.029C820.857 989.448 820.723 988.911 820.529 988.509C820.321 988.911 820.201 989.448 820.425 990.029H820.633Z" fill="#DD0031"/>
<path d="M810.263 990.029H810.471C810.695 989.448 810.561 988.911 810.367 988.509C810.159 988.911 810.039 989.448 810.263 990.029Z" fill="#DD0031"/>
<path d="M769.837 990.029C770.06 989.448 769.926 988.911 769.732 988.509C769.524 988.911 769.405 989.448 769.628 990.029H769.837Z" fill="#DD0031"/>
<path d="M326.269 990.029H326.477C326.701 989.448 326.567 988.911 326.373 988.509C326.164 988.911 326.045 989.448 326.269 990.029Z" fill="#DD0031"/>
<path d="M851.077 925.239H850.57V936.415H851.077V925.239Z" fill="#DD0031"/>
<path d="M830.691 988.523C830.483 988.926 830.364 989.462 830.587 990.043H830.796C831.019 989.462 830.885 988.926 830.691 988.523Z" fill="#DD0031"/>
<path d="M448.202 990.029H448.411C448.634 989.448 448.5 988.911 448.307 988.509C448.098 988.911 447.979 989.448 448.202 990.029Z" fill="#DD0031"/>
<path d="M275.456 990.029H275.665C275.888 989.448 275.754 988.911 275.56 988.509C275.352 988.911 275.233 989.448 275.456 990.029Z" fill="#DD0031"/>
<path d="M458.589 990.029C458.812 989.448 458.678 988.911 458.484 988.509C458.276 988.911 458.156 989.448 458.38 990.029H458.589Z" fill="#DD0031"/>
<path d="M285.829 990.029C286.052 989.448 285.918 988.911 285.725 988.509C285.516 988.911 285.397 989.448 285.62 990.029H285.829Z" fill="#DD0031"/>
<path d="M637.727 990.029C637.951 989.448 637.817 988.911 637.623 988.509C637.414 988.911 637.295 989.448 637.519 990.029H637.727Z" fill="#DD0031"/>
<path d="M478.913 990.029C479.136 989.448 479.002 988.911 478.809 988.509C478.6 988.911 478.481 989.448 478.704 990.029H478.913Z" fill="#DD0031"/>
<path d="M295.782 990.029H295.991C296.214 989.448 296.08 988.911 295.887 988.509C295.678 988.911 295.559 989.448 295.782 990.029Z" fill="#DD0031"/>
<path d="M647.889 990.029C648.113 989.448 647.979 988.911 647.785 988.509C647.576 988.911 647.457 989.448 647.681 990.029H647.889Z" fill="#DD0031"/>
<path d="M346.802 990.029C347.025 989.448 346.891 988.911 346.697 988.509C346.489 988.911 346.369 989.448 346.593 990.029H346.802Z" fill="#DD0031"/>
<path d="M657.843 990.029H658.051C658.275 989.448 658.141 988.911 657.947 988.509C657.739 988.911 657.619 989.448 657.843 990.029Z" fill="#DD0031"/>
<path d="M627.563 990.029C627.787 989.448 627.653 988.911 627.459 988.509C627.25 988.911 627.131 989.448 627.355 990.029H627.563Z" fill="#DD0031"/>
<path d="M759.675 990.029C759.898 989.448 759.764 988.911 759.57 988.509C759.362 988.911 759.242 989.448 759.466 990.029H759.675Z" fill="#DD0031"/>
<path d="M468.751 990.029C468.974 989.448 468.84 988.911 468.646 988.509C468.438 988.911 468.319 989.448 468.542 990.029H468.751Z" fill="#DD0031"/>
<path d="M553.104 965.024C530.485 965.889 518.564 986.839 516.865 990.043V1072.73H589.343V990.043C587.644 986.839 575.724 965.889 553.104 965.024ZM538.382 1068.2V1034.36C538.382 1025.75 552.523 1021.45 553.119 1021.29C553.194 1021.32 553.492 1021.41 553.939 1021.56C554.088 1021.6 554.251 1021.66 554.445 1021.74C554.609 1021.8 554.788 1021.86 554.982 1021.93C555.429 1022.09 555.935 1022.3 556.487 1022.54C556.874 1022.71 557.291 1022.9 557.723 1023.09C557.947 1023.2 558.155 1023.3 558.379 1023.41C558.573 1023.51 558.781 1023.6 558.975 1023.7C559.452 1023.96 559.944 1024.23 560.45 1024.51C561.031 1024.85 561.627 1025.22 562.194 1025.63C562.954 1026.16 563.684 1026.73 564.354 1027.37C566.366 1029.25 567.841 1031.59 567.841 1034.36V1068.2H538.337H538.382Z" fill="#DD0031"/>
<path d="M800.101 990.029H800.309C800.533 989.448 800.399 988.911 800.205 988.509C799.996 988.911 799.877 989.448 800.101 990.029Z" fill="#DD0031"/>
<path d="M789.939 990.029H790.147C790.371 989.448 790.237 988.911 790.043 988.509C789.834 988.911 789.715 989.448 789.939 990.029Z" fill="#DD0031"/>
<path d="M781.489 976.782H781.846V980.239C782.621 979.703 783.411 979.315 784.066 979.077L784.96 978.749L785.855 979.077C787.121 979.554 788.894 980.567 790.042 982.057C791.204 980.552 792.962 979.539 794.229 979.077L795.123 978.749L796.017 979.077C797.283 979.554 799.057 980.567 800.204 982.057C801.292 980.641 802.901 979.673 804.153 979.166V976.782H804.168C804.168 976.782 804.168 967.692 811.275 966.426V961.002H805.464V945.341H811.275V942.033H806.805V935.983C806.805 929.934 794.259 924.987 794.259 924.987L792.828 915.107L791.398 924.987C791.398 924.987 778.851 929.934 778.851 935.983V942.033H774.381V945.341H780.192V961.002H774.381V966.426C781.489 967.707 781.489 976.782 781.489 976.782Z" fill="#DD0031"/>
<path d="M302.084 976.782H302.442V979.315C303.634 979.851 305.05 980.775 306.048 982.057C307.21 980.552 308.968 979.538 310.235 979.076L311.129 978.749L312.023 979.076C313.29 979.553 315.063 980.567 316.21 982.057C317.373 980.552 319.131 979.538 320.397 979.076L321.291 978.749L322.185 979.076C322.945 979.36 323.884 979.836 324.748 980.492V976.797H324.763C324.763 976.797 324.763 967.707 331.871 966.441V961.017H326.06V945.356H331.871V942.048H327.401V935.998C327.401 929.948 314.854 925.001 314.854 925.001L313.424 915.122L311.993 925.001C311.993 925.001 299.447 929.948 299.447 935.998V942.048H294.977V945.356H300.788V961.017H294.977V966.441C302.084 967.722 302.084 976.797 302.084 976.797V976.782Z" fill="#DD0031"/>
<path d="M305.944 990.029H306.153C306.377 989.448 306.242 988.911 306.049 988.509C305.84 988.911 305.721 989.448 305.944 990.029Z" fill="#DD0031"/>
<path d="M316.107 990.029H316.315C316.539 989.448 316.405 988.911 316.211 988.509C316.002 988.911 315.883 989.448 316.107 990.029Z" fill="#DD0031"/>
<path d="M417.716 990.029H417.925C418.148 989.448 418.014 988.911 417.82 988.509C417.612 988.911 417.492 989.448 417.716 990.029Z" fill="#DD0031"/>
<path d="M407.568 990.029H407.776C408 989.448 407.865 988.911 407.672 988.509C407.463 988.911 407.344 989.448 407.568 990.029Z" fill="#DD0031"/>
<path d="M427.878 990.029H428.087C428.31 989.448 428.176 988.911 427.982 988.509C427.774 988.911 427.655 989.448 427.878 990.029Z" fill="#DD0031"/>
<path d="M355.072 978.436V980.373C355.713 980.835 356.339 981.401 356.845 982.056C358.008 980.551 359.766 979.538 361.033 979.076L361.927 978.748L362.821 979.076C364.087 979.553 365.86 980.566 367.008 982.056C368.17 980.551 369.928 979.538 371.195 979.076L372.089 978.748L372.983 979.076C374.25 979.553 376.023 980.566 377.17 982.056C378.332 980.551 380.091 979.538 381.357 979.076L382.251 978.748L383.145 979.076C384.412 979.553 386.185 980.566 387.332 982.056C388.495 980.551 390.253 979.538 391.52 979.076L392.414 978.748L393.308 979.076C394.574 979.553 396.348 980.566 397.495 982.056C398.657 980.551 400.415 979.538 401.682 979.076L402.576 978.748L403.47 979.076C404.737 979.553 406.51 980.566 407.657 982.056C408.82 980.551 410.578 979.538 411.844 979.076L412.738 978.748L413.632 979.076C414.899 979.553 416.672 980.566 417.82 982.056C418.982 980.551 420.74 979.538 422.007 979.076L422.901 978.748L423.795 979.076C425.061 979.553 426.835 980.566 427.982 982.056C429.144 980.551 430.903 979.538 432.169 979.076L433.063 978.748L433.957 979.076C435.224 979.553 436.997 980.566 438.144 982.056C439.307 980.551 441.065 979.538 442.331 979.076L443.226 978.748L444.12 979.076C445.029 979.419 446.191 980.03 447.204 980.909V978.704C449.171 974.055 450.244 969.018 450.244 963.773C450.244 945.862 437.757 930.529 420.01 924.048H421.873C421.873 924.048 410.28 917.551 406.197 910.398C406.197 910.398 405.094 908.849 402.561 908.402V905.526C404.096 905.034 405.199 903.753 405.199 902.233C405.199 900.713 404.096 899.431 402.561 898.94V895.304C404.096 895.095 405.199 894.529 405.199 893.873C405.199 893.218 404.066 892.651 402.487 892.443L401.19 881.982L399.894 892.443C398.314 892.651 397.182 893.218 397.182 893.873C397.182 894.529 398.285 895.08 399.819 895.304V898.94C398.285 899.431 397.182 900.713 397.182 902.233C397.182 903.753 398.285 905.034 399.819 905.526V908.402C397.271 908.849 396.184 910.398 396.184 910.398C392.101 917.551 380.508 924.048 380.508 924.048H382.371C364.624 930.514 352.137 945.862 352.137 963.773C352.137 968.929 353.18 973.876 355.072 978.45V978.436Z" fill="#DD0031"/>
<path d="M366.919 990.029H367.128C367.351 989.448 367.217 988.911 367.023 988.509C366.815 988.911 366.696 989.448 366.919 990.029Z" fill="#DD0031"/>
<path d="M438.04 990.029H438.249C438.472 989.448 438.338 988.911 438.144 988.509C437.936 988.911 437.817 989.448 438.04 990.029Z" fill="#DD0031"/>
<path d="M377.081 990.029H377.29C377.513 989.448 377.379 988.911 377.185 988.509C376.977 988.911 376.858 989.448 377.081 990.029Z" fill="#DD0031"/>
<path d="M387.243 990.029H387.452C387.675 989.448 387.541 988.911 387.348 988.509C387.139 988.911 387.02 989.448 387.243 990.029Z" fill="#DD0031"/>
<path d="M397.405 990.029H397.614C397.837 989.448 397.703 988.911 397.51 988.509C397.301 988.911 397.182 989.448 397.405 990.029Z" fill="#DD0031"/>
<path d="M356.757 990.029H356.966C357.189 989.448 357.055 988.911 356.861 988.509C356.653 988.911 356.533 989.448 356.757 990.029Z" fill="#DD0031"/>
<path d="M728.964 990.029H729.173C729.396 989.448 729.262 988.911 729.068 988.509C728.86 988.911 728.74 989.448 728.964 990.029Z" fill="#DD0031"/>
<path d="M718.802 990.029H719.01C719.234 989.448 719.1 988.911 718.906 988.509C718.698 988.911 718.578 989.448 718.802 990.029Z" fill="#DD0031"/>
<path d="M749.288 990.029H749.497C749.72 989.448 749.586 988.911 749.393 988.509C749.184 988.911 749.065 989.448 749.288 990.029Z" fill="#DD0031"/>
<path d="M739.126 990.029H739.335C739.558 989.448 739.424 988.911 739.23 988.509C739.022 988.911 738.903 989.448 739.126 990.029Z" fill="#DD0031"/>
<path d="M668.005 990.029H668.214C668.437 989.448 668.303 988.911 668.109 988.509C667.901 988.911 667.782 989.448 668.005 990.029Z" fill="#DD0031"/>
<path d="M678.167 990.029H678.376C678.599 989.448 678.465 988.911 678.271 988.509C678.063 988.911 677.944 989.448 678.167 990.029Z" fill="#DD0031"/>
<path d="M708.64 990.029H708.848C709.072 989.448 708.938 988.911 708.744 988.509C708.535 988.911 708.416 989.448 708.64 990.029Z" fill="#DD0031"/>
<path d="M688.329 990.029H688.538C688.761 989.448 688.627 988.911 688.434 988.509C688.225 988.911 688.106 989.448 688.329 990.029Z" fill="#DD0031"/>
<path d="M698.491 990.029H698.7C698.923 989.448 698.789 988.911 698.596 988.509C698.387 988.911 698.268 989.448 698.491 990.029Z" fill="#DD0031"/>
<path d="M658.945 978.436V980.999C659.973 980.075 661.195 979.419 662.134 979.077L663.028 978.749L663.922 979.077C665.189 979.553 666.962 980.567 668.109 982.057C669.272 980.552 671.03 979.539 672.296 979.077L673.19 978.749L674.084 979.077C675.351 979.553 677.124 980.567 678.272 982.057C679.434 980.552 681.192 979.539 682.459 979.077L683.353 978.749L684.247 979.077C685.513 979.553 687.287 980.567 688.434 982.057C689.596 980.552 691.355 979.539 692.621 979.077L693.515 978.749L694.409 979.077C695.676 979.553 697.449 980.567 698.596 982.057C699.759 980.552 701.517 979.539 702.784 979.077L703.678 978.749L704.572 979.077C705.838 979.553 707.611 980.567 708.759 982.057C709.921 980.552 711.679 979.539 712.946 979.077L713.84 978.749L714.734 979.077C716.001 979.553 717.774 980.567 718.921 982.057C720.083 980.552 721.842 979.539 723.108 979.077L724.002 978.749L724.896 979.077C726.163 979.553 727.936 980.567 729.083 982.057C730.246 980.552 732.004 979.539 733.271 979.077L734.165 978.749L735.059 979.077C736.325 979.553 738.099 980.567 739.246 982.057C740.408 980.552 742.166 979.539 743.433 979.077L744.327 978.749L745.221 979.077C746.488 979.553 748.261 980.567 749.408 982.057C749.885 981.431 750.466 980.909 751.077 980.447V978.689C753.044 974.04 754.117 969.004 754.117 963.759C754.117 945.848 741.63 930.515 723.883 924.033H725.746C725.746 924.033 714.153 917.536 710.07 910.384C710.07 910.384 708.967 908.834 706.434 908.387V905.511C707.969 905.019 709.072 903.738 709.072 902.218C709.072 900.698 707.969 899.417 706.434 898.925V895.289C707.969 895.081 709.072 894.514 709.072 893.859C709.072 893.203 707.939 892.637 706.36 892.428L705.063 881.968L703.767 892.428C702.202 892.637 701.055 893.203 701.055 893.859C701.055 894.514 702.158 895.066 703.692 895.289V898.925C702.158 899.417 701.055 900.698 701.055 902.218C701.055 903.738 702.158 905.019 703.692 905.511V908.387C701.144 908.834 700.057 910.384 700.057 910.384C695.974 917.536 684.381 924.033 684.381 924.033H686.244C668.497 930.5 656.01 945.848 656.01 963.759C656.01 968.914 657.053 973.861 658.945 978.436Z" fill="#DD0031"/>
<path d="M497.792 915.107V919.756L496.019 920.203C495.691 920.382 495.304 921.41 495.125 922.572V924.867C495.81 925.299 496.406 925.776 496.883 926.297C497.867 925.224 499.238 924.39 500.668 923.883L501.532 923.585L502.397 923.883C503.827 924.39 505.183 925.224 506.167 926.297C507.15 925.224 508.521 924.39 509.936 923.883L510.801 923.585L511.665 923.883C513.095 924.39 514.451 925.224 515.435 926.297C516.418 925.224 517.789 924.39 519.205 923.883L520.069 923.585L520.933 923.883C522.364 924.39 523.72 925.224 524.703 926.297C525.687 925.224 527.058 924.39 528.473 923.883L529.337 923.585L530.202 923.883C531.632 924.39 532.988 925.224 533.972 926.297C534.955 925.224 536.326 924.39 537.741 923.883L538.606 923.585L539.47 923.883C540.9 924.39 542.256 925.224 543.24 926.297C544.223 925.224 545.594 924.39 547.01 923.883L547.874 923.585L548.738 923.883C550.169 924.39 551.525 925.224 552.508 926.297C553.492 925.224 554.862 924.39 556.278 923.883L557.142 923.585L558.007 923.883C559.437 924.39 560.793 925.224 561.776 926.297C562.76 925.224 564.131 924.39 565.546 923.883L566.411 923.585L567.275 923.883C568.705 924.39 570.061 925.224 571.045 926.297C572.028 925.224 573.399 924.39 574.815 923.883L575.679 923.585L576.543 923.883C577.974 924.39 579.33 925.224 580.313 926.297C581.297 925.224 582.667 924.39 584.083 923.883L584.947 923.585L585.812 923.883C587.242 924.39 588.598 925.224 589.581 926.297C590.565 925.224 591.936 924.39 593.351 923.883L594.216 923.585L595.08 923.883C596.51 924.39 597.866 925.224 598.85 926.297C599.833 925.224 601.204 924.39 602.62 923.883L603.484 923.585L604.348 923.883C605.779 924.39 607.135 925.224 608.118 926.297C608.953 925.388 610.04 924.658 611.217 924.152V922.185C611.054 921.007 610.651 919.979 610.338 919.815L608.55 919.368V912.469H610.785V908.476H608.55V902.203H610.279V901.368C603.782 889.045 591.906 879.211 577.184 874.01H579.553C579.553 874.01 564.786 865.994 559.586 857.172C559.586 857.172 558.185 855.25 554.952 854.714V851.152C556.919 850.541 558.319 848.962 558.319 847.084C558.319 845.207 556.919 843.627 554.952 843.016V838.531C556.919 838.263 558.319 837.578 558.319 836.773C558.319 835.968 556.874 835.253 554.862 835L553.208 822.096L551.554 835C549.558 835.253 548.098 835.953 548.098 836.773C548.098 837.593 549.498 838.278 551.465 838.531V843.016C549.498 843.627 548.098 845.207 548.098 847.084C548.098 848.962 549.498 850.541 551.465 851.152V854.714C548.232 855.25 546.831 857.172 546.831 857.172C541.631 865.994 526.864 874.01 526.864 874.01H529.233C514.511 879.211 502.635 889.03 496.138 901.353C496.138 901.428 496.138 901.487 496.138 901.547V902.59H497.867V908.863H495.632V912.857H497.867V915.107H497.792Z" fill="#DD0031"/>
<path d="M188.183 1031.21C183.415 996.362 226.314 988.121 226.314 988.121C217.016 975.664 190.686 985.797 190.686 985.797C185.396 981.982 179.034 979.688 172.358 978.376C166.547 965.085 162.3 943.851 159.409 924.674V922.841H159.141C155.878 900.743 154.417 881.864 154.417 881.864C154.417 881.864 143.972 726.418 143.063 711.204C142.452 700.878 147.906 692.116 151.467 687.542H151.869V672.328H141.633C140.619 657.069 139.859 645.462 139.666 642.079C139.144 633.362 143.748 625.971 146.744 622.127H147.086V609.297H136.134V560.736C136.045 553.121 129.891 546.937 122.157 546.52H122.798V527H119.848V546.52H120.488C112.755 546.937 106.616 553.121 106.511 560.736V609.342H95.5591V622.172H95.9019C98.9118 626.016 103.501 633.407 102.98 642.124C102.771 645.506 102.011 657.114 101.013 672.373H90.776V687.586H91.1782C94.7395 692.146 100.193 700.908 99.5823 711.249C98.6734 726.463 88.2279 881.908 88.2279 881.908C88.2279 881.908 86.7677 900.788 83.5044 922.886H83.2362V924.718C80.3454 943.896 76.0987 965.129 70.2873 978.421C63.5969 979.717 57.2491 982.027 51.9593 985.842C51.9593 985.842 25.6295 975.709 16.3314 988.166C16.3314 988.166 59.2309 996.406 54.4626 1031.26C49.6944 1066.11 0 1080.04 0 1080.04H27.4176C27.4176 1080.04 52.2722 1058.39 58.1879 1044.61C59.4246 1041.73 61.6746 1039.31 64.6846 1037.99C66.9495 1037.01 69.2294 1036.73 69.9148 1039.05C70.1979 1039.98 70.0638 1040.96 69.6614 1041.84C67.1581 1047.37 54.7457 1072.73 35.0617 1080.06H75.5771C75.5771 1080.06 87.8256 1054.71 89.8819 1036.97C89.8819 1036.97 93.2793 1032.32 100.998 1032.32C100.998 1032.32 112.799 1031.47 114.155 1036.53C115.511 1041.6 116.882 1068.21 105.528 1080.04H137.103C125.748 1068.21 127.119 1041.6 128.475 1036.53C129.831 1031.47 141.633 1032.32 141.633 1032.32C149.351 1032.32 152.749 1036.97 152.749 1036.97C154.79 1054.71 167.053 1080.06 167.053 1080.06H207.569C187.9 1072.73 175.487 1047.37 172.969 1041.84C172.567 1040.96 172.433 1039.98 172.716 1039.05C173.416 1036.73 175.681 1037.01 177.946 1037.99C180.956 1039.31 183.206 1041.73 184.443 1044.61C190.358 1058.39 215.213 1080.04 215.213 1080.04H242.63C242.63 1080.04 192.921 1066.1 188.168 1031.26L188.183 1031.21ZM111.369 934.27H116.912V952.643H111.145L111.384 934.27H111.369ZM125.763 883.577V832.274H129.995L130.651 883.577H125.763ZM130.8 894.976L131.157 922.856H125.763V894.976H130.8ZM125.763 760.645H129.071L129.92 826.566H125.763V760.645ZM116.912 826.566H112.755L113.604 760.645H116.912V826.566ZM136.626 832.274H139.412L141.513 883.577H139.457C138.474 868.259 137.52 850.542 136.626 832.274ZM136.358 826.566C135.285 803.932 134.331 780.776 133.601 760.645H136.477L139.174 826.566H136.358ZM133.392 754.938C132.364 726.09 131.813 704.558 132.021 701.712C132.215 699.254 132.886 696.452 133.735 693.681L136.238 754.938H133.377H133.392ZM129.012 754.938H125.778V687.557H128.147L129.012 754.938ZM125.078 672.358V622.157H127.298L127.939 672.358H125.078ZM117.612 672.358H114.751L115.392 622.157H117.612V672.358ZM116.912 687.571V754.953H113.679L114.543 687.571H116.912ZM110.669 701.727C110.892 704.573 110.341 726.105 109.298 754.953H106.437L108.94 693.696C109.789 696.467 110.46 699.269 110.654 701.727H110.669ZM109.089 760.66C108.344 780.791 107.39 803.947 106.332 826.581H103.516L106.213 760.66H109.089ZM106.049 832.288C105.17 850.542 104.202 868.274 103.218 883.592H101.162L103.263 832.288H106.034H106.049ZM112.68 832.288H116.912V883.592H112.025L112.68 832.288ZM116.912 894.991V922.871H111.518L111.876 894.991H116.912ZM125.763 934.27H131.306L131.545 952.643H125.778V934.27H125.763ZM142.72 922.871C141.901 916.359 141.051 906.703 140.217 894.991H141.975L143.123 922.871H142.735H142.72ZM131.485 672.373C130.77 651.437 130.397 636.298 130.561 634.107C130.71 632.215 131.187 630.084 131.813 627.938L133.631 672.358H131.47L131.485 672.373ZM125.778 580.077H116.927V566.77H125.778V580.077ZM116.927 585.054H125.778V609.357H116.927V585.054ZM110.877 627.953C111.503 630.084 111.995 632.215 112.129 634.122C112.293 636.298 111.935 651.437 111.205 672.388H109.044L110.862 627.968L110.877 627.953ZM100.715 894.991H102.473C101.639 906.703 100.789 916.359 99.9698 922.871H99.5823L100.73 894.991H100.715ZM110.803 979.464L110.952 967.871H116.912V980.746C115.228 980.358 113.157 979.911 110.803 979.464ZM125.763 980.746V967.871H131.723L131.872 979.464C129.518 979.911 127.447 980.358 125.763 980.746Z" fill="#DD0031"/>
</g>
<defs>
<linearGradient id="paint0_linear_147_1439" x1="458.99" y1="357" x2="458.99" y2="532.371" gradientUnits="userSpaceOnUse">
<stop stop-color="#DD0031"/>
<stop offset="1" stop-color="#C3002F"/>
</linearGradient>
<clipPath id="clip0_147_1439">
<rect width="1920" height="1080" fill="white"/>
</clipPath>
</defs>
</svg>
