<svg width="1380" height="239" viewBox="0 0 1380 239" fill="none" xmlns="http://www.w3.org/2000/svg">
<path d="M212.572 0L138.31 167.079H165.999L180.928 129.694H243.961L258.89 167.079H286.579L212.572 0ZM234.264 106.649H190.88L212.572 54.2846L234.264 106.649Z" fill="url(#paint0_linear_182_34)"/>
<path d="M95.9948 4.18346H122.027V166.641H95.9948V116.905H26.0325V166.641H0V3.95104H26.0325V95.0577H95.9948V4.18346Z" fill="white"/>
<path d="M426.02 121.088L447.172 130.152C432.296 153.626 406.264 169.198 376.745 169.198C331.188 169.198 294.928 131.314 294.928 85.0638C294.928 38.5809 331.188 1.16207 376.745 1.16207C404.637 1.16207 429.274 14.6421 444.615 36.2567L426.253 49.0395C414.631 32.7705 398.826 22.5442 376.745 22.5442C344.669 22.5442 317.939 51.1313 317.939 85.0638C317.939 118.764 344.669 147.583 376.745 147.583C398.128 147.583 415.329 136.66 426.02 121.088Z" fill="white"/>
<path d="M525.843 88.5501L586.276 166.409H553.038L504.227 100.868L500.508 95.7549L498.881 97.8467L495.627 101.798V166.641H470.059L469.827 3.71863H495.627V52.0609V68.0975L507.248 52.9906L547.924 3.71863H579.767L526.54 66.4706L517.011 77.859L525.843 88.5501Z" fill="white"/>
<path d="M657.429 73.6755C690.667 75.5348 716.467 98.7763 714.84 124.807C713.678 151.07 685.554 170.825 652.316 169.198C624.889 167.571 603.04 151.999 596.532 132.476L624.889 124.807C629.305 136.428 638.602 142.703 653.71 143.4C670.91 144.33 685.553 137.125 686.018 123.18C687.181 109.7 673.699 98.7763 656.267 97.8467C655.57 97.8467 655.105 97.8467 654.408 97.3818C622.099 94.8253 600.251 71.5838 601.413 46.2506C603.04 19.7553 628.375 -0.464838 661.381 1.6269C684.159 2.78897 702.754 13.7125 712.283 28.3546L687.181 38.8133C682.067 30.9112 671.84 26.4953 659.986 25.798C643.251 24.636 627.213 33.7001 626.748 47.4126C626.051 60.8927 640.229 72.7458 657.429 73.6755Z" fill="white"/>
<path d="M724.918 4.41588H848.573V27.6574H799.762V166.409H772.335V27.6574H724.918V4.41588Z" fill="white"/>
<path d="M969.83 166.409C969.83 166.409 965.181 154.788 959.138 140.379H888.943C883.365 154.788 878.716 166.409 878.716 166.409H852.684L924.041 0L995.862 166.409H969.83ZM924.505 118.764C948.214 118.764 951.003 119.229 951.003 119.229C951.003 119.229 946.819 110.165 945.192 105.981C941.705 96.2198 938.219 88.3176 936.592 83.6693C928.689 63.9141 924.505 50.6664 924.505 50.6664C924.505 50.6664 919.392 64.1465 911.489 83.6693C909.63 88.7825 906.608 96.917 902.889 105.981C901.262 110.165 897.311 119.229 897.311 119.229C897.311 119.229 900.565 118.764 924.505 118.764Z" fill="white"/>
<path d="M1138.75 121.088L1159.91 130.152C1145.03 153.626 1119 169.198 1089.48 169.198C1043.92 169.198 1007.66 131.314 1007.66 85.0638C1007.66 38.5809 1043.92 1.16207 1089.48 1.16207C1117.37 1.16207 1142.01 14.6421 1157.35 36.2567L1138.99 49.0395C1127.36 32.7705 1111.56 22.5442 1089.48 22.5442C1057.4 22.5442 1030.67 51.1313 1030.67 85.0638C1030.67 118.764 1057.4 147.583 1089.48 147.583C1110.86 147.583 1128.06 136.66 1138.75 121.088Z" fill="white"/>
<path d="M1238.58 88.5501L1299.01 166.409H1265.77L1216.96 100.868L1213.24 95.7549L1211.61 97.8467L1208.36 101.798V166.641H1182.79L1182.56 3.71863H1208.36V52.0609V68.0975L1219.98 52.9906L1260.66 3.71863H1292.5L1239.27 66.4706L1229.74 77.859L1238.58 88.5501Z" fill="white"/>
<path d="M1006.25 223.909C1006.25 223.909 1003.41 225.51 997.586 225.51C993.216 225.51 989.647 225.51 989.647 225.51V238.17H982V187.237H988.482H989.647H1000.06C1009.24 187.674 1016.6 196.041 1016.6 206.301C1016.6 214.159 1012.37 220.998 1006.25 223.909ZM989.647 194.077V218.67H999.334C1004.94 218.379 1009.6 213.067 1009.6 206.301C1009.6 200.043 1005.38 194.804 1000.06 194.077H989.647Z" fill="white"/>
<path d="M1057.3 238.098C1057.3 238.098 1055.84 234.459 1053.95 229.948H1031.96C1030.21 234.459 1028.75 238.098 1028.75 238.098H1020.59L1042.95 186L1065.46 238.098H1057.3ZM1043.1 223.181C1050.53 223.181 1051.4 223.327 1051.4 223.327C1051.4 223.327 1050.09 220.489 1049.58 219.179C1048.49 216.123 1047.4 213.65 1046.89 212.194C1044.41 206.01 1043.1 201.862 1043.1 201.862C1043.1 201.862 1041.5 206.082 1039.02 212.194C1038.44 213.795 1037.49 216.342 1036.33 219.179C1035.82 220.489 1034.58 223.327 1034.58 223.327C1034.58 223.327 1035.6 223.181 1043.1 223.181Z" fill="white"/>
<path d="M1088.31 213.722L1107.25 238.098H1096.83L1081.54 217.579L1080.37 215.978L1079.86 216.633L1078.84 217.87V238.17H1070.83L1070.76 187.164H1078.84V202.299V207.319L1082.48 202.59L1095.23 187.164H1105.21L1088.53 206.81L1085.54 210.375L1088.31 213.722Z" fill="white"/>
<path d="M1120.07 238.17H1112.14V187.237H1120.07V238.17Z" fill="white"/>
<path d="M1145.05 209.066C1155.46 209.648 1163.55 216.924 1163.04 225.073C1162.67 233.295 1153.86 239.48 1143.45 238.971C1134.85 238.461 1128.01 233.586 1125.97 227.474L1134.85 225.073C1136.24 228.711 1139.15 230.676 1143.88 230.894C1149.27 231.185 1153.86 228.93 1154.01 224.564C1154.37 220.344 1150.15 216.924 1144.68 216.633C1144.47 216.633 1144.32 216.633 1144.1 216.487C1133.98 215.687 1127.13 208.411 1127.5 200.48C1128.01 192.185 1135.94 185.854 1146.29 186.509C1153.42 186.873 1159.25 190.293 1162.24 194.877L1154.37 198.151C1152.77 195.677 1149.56 194.295 1145.85 194.077C1140.6 193.713 1135.58 196.55 1135.43 200.843C1135.22 205.064 1139.66 208.774 1145.05 209.066Z" fill="white"/>
<path d="M1166.2 187.382H1204.94V194.659H1189.65V238.098H1181.05V194.659H1166.2V187.382Z" fill="white"/>
<path d="M1242.94 238.098C1242.94 238.098 1241.48 234.459 1239.59 229.948H1217.59C1215.84 234.459 1214.39 238.098 1214.39 238.098H1206.23L1228.59 186L1251.09 238.098H1242.94ZM1228.73 223.181C1236.16 223.181 1237.04 223.327 1237.04 223.327C1237.04 223.327 1235.73 220.489 1235.22 219.179C1234.12 216.123 1233.03 213.65 1232.52 212.194C1230.05 206.01 1228.73 201.862 1228.73 201.862C1228.73 201.862 1227.13 206.082 1224.66 212.194C1224.07 213.795 1223.13 216.342 1221.96 219.179C1221.45 220.489 1220.21 223.327 1220.21 223.327C1220.21 223.327 1221.23 223.181 1228.73 223.181Z" fill="white"/>
<path d="M1256.47 237.879V186.146L1284.58 213.868L1290.7 220.198L1290.62 212.413V187.31H1299V238.825L1269.5 210.302L1264.48 204.918L1264.55 211.248V237.879H1256.47Z" fill="white"/>
<rect x="1332" width="48" height="169" fill="#ED424A"/>
<path d="M1340.35 60.0883L1340.35 40L1357.25 53.9136C1358.81 55.1897 1360.28 55.4778 1361.49 55.4778C1362.7 55.4778 1363.91 55.3132 1364.86 54.3252C1365.81 53.4196 1366.37 51.6907 1366.37 50.5381C1366.37 49.015 1365.73 47.7389 1364.77 46.8333C1363.82 45.9277 1362.48 45.2279 1360.93 45.2279L1360.93 40.6998C1367.32 41.0291 1370.83 45.2279 1370.87 50.1676C1370.87 50.9498 1370.83 51.6084 1370.74 52.1847C1370.44 54.2841 1369.36 56.0953 1367.58 57.6596C1365.73 59.2238 1363.69 60.0471 1361.49 60.0471C1359.15 60.0471 1356.99 59.3062 1355.22 57.8654L1344.93 49.262L1344.97 60.0883L1340.35 60.0883Z" fill="white"/>
<path d="M1349.73 83.3238C1343.24 83.3238 1340 78.7956 1340 73.7324C1340 70.892 1340.65 68.7103 1342.98 66.4463C1344.58 64.882 1346.7 64.0999 1350.07 64.0999L1360.88 64.0999C1368.02 64.0999 1371 69.2455 1371 73.9382C1371 78.3017 1367.71 83.3238 1360.88 83.3238L1349.73 83.3238ZM1361.01 78.878C1364.13 78.878 1366.24 76.2434 1366.24 73.8147C1366.24 71.2625 1364.38 68.628 1360.75 68.628L1350.07 68.628C1345.27 68.628 1344.28 72.0035 1344.28 73.7324C1344.28 75.2555 1345.02 78.878 1349.94 78.878L1361.01 78.878Z" fill="white"/>
<path d="M1340.35 107.082L1340.35 86.9935L1357.25 100.907C1358.81 102.183 1360.28 102.471 1361.49 102.471C1362.7 102.471 1363.91 102.307 1364.86 101.319C1365.81 100.413 1366.37 98.6842 1366.37 97.5316C1366.37 96.0085 1365.73 94.7325 1364.77 93.8268C1363.82 92.9212 1362.48 92.2214 1360.93 92.2214L1360.93 87.6933C1367.32 88.0226 1370.83 92.2214 1370.87 97.1611C1370.87 97.9433 1370.83 98.6019 1370.74 99.1782C1370.44 101.278 1369.36 103.089 1367.58 104.653C1365.73 106.217 1363.69 107.041 1361.49 107.041C1359.15 107.041 1356.99 106.3 1355.22 104.859L1344.93 96.2555L1344.97 107.082L1340.35 107.082Z" fill="white"/>
<path d="M1356.26 125.789C1354.87 127.93 1352.67 129 1349.73 129C1348.26 129 1347.22 128.877 1346.4 128.588C1344.37 127.847 1342.81 126.654 1341.73 125.007C1340.69 123.36 1340.17 121.508 1340.17 119.45C1340.17 116.856 1340.99 114.716 1342.64 112.905C1344.32 111.135 1346.53 110.147 1349.17 110.147L1349.17 114.839C1346.57 114.881 1344.5 117.021 1344.5 119.614C1344.5 122.29 1346.66 124.472 1349.3 124.472C1349.34 124.472 1349.43 124.472 1349.47 124.472C1349.51 124.472 1349.6 124.472 1349.64 124.472C1352.11 124.472 1354.09 122.537 1354.09 120.191C1354.09 120.026 1354.09 118.832 1354.09 118.338L1358.25 118.338C1358.25 118.544 1358.33 119.614 1358.33 119.985C1358.33 122.167 1360.19 123.978 1362.4 123.978C1364.17 123.978 1365.6 122.949 1366.24 121.467C1366.42 120.973 1366.63 120.438 1366.63 119.861C1366.63 117.639 1364.77 115.827 1362.61 115.827C1362.48 115.827 1362.4 115.827 1362.22 115.827L1362.22 111.011C1367.93 111.587 1370.83 114.757 1370.83 119.903C1370.83 122.29 1370.05 124.266 1368.62 125.995C1367.07 127.724 1365.03 128.629 1362.61 128.629C1359.89 128.629 1357.81 127.683 1356.26 125.789Z" fill="white"/>
<defs>
<linearGradient id="paint0_linear_182_34" x1="212.444" y1="0" x2="212.444" y2="167.079" gradientUnits="userSpaceOnUse">
<stop stop-color="#C3002F"/>
<stop offset="1" stop-color="#DD0031"/>
</linearGradient>
</defs>
</svg>
