<svg width="1449" height="254" viewBox="0 0 1449 254" fill="none" xmlns="http://www.w3.org/2000/svg">
<path d="M223.123 0L145.176 175.371H174.239L189.909 136.131H256.07L271.74 175.371H300.803L223.123 0ZM245.892 111.942H200.355L223.123 56.9789L245.892 111.942Z" fill="url(#paint0_linear_147_1443)"/>
<path d="M100.759 4.39109H128.084V174.912H100.759V122.707H27.3245V174.912H0V4.14714H27.3245V99.7756H100.759V4.39109Z" fill="#161616"/>
<path d="M447.165 127.098L469.366 136.612C453.752 161.251 426.428 177.596 395.444 177.596C347.626 177.596 309.566 137.832 309.566 89.2858C309.566 40.4957 347.626 1.21975 395.444 1.21975C424.72 1.21975 450.581 15.3689 466.683 38.0562L447.409 51.4735C435.211 34.397 418.621 23.6632 395.444 23.6632C361.776 23.6632 333.719 53.669 333.719 89.2858C333.719 124.659 361.776 154.908 395.444 154.908C417.889 154.908 435.942 143.443 447.165 127.098Z" fill="#161616"/>
<path d="M551.942 92.945L615.374 174.668H580.487L529.253 105.874L525.349 100.507L523.642 102.703L520.226 106.85V174.912H493.39L493.146 3.9032H520.226V54.6448V71.4774L532.425 55.6207L575.119 3.9032H608.543L552.674 69.7698L542.671 81.7233L551.942 92.945Z" fill="#161616"/>
<path d="M690.059 77.3322C724.947 79.2838 752.027 103.679 750.32 131.001C749.1 158.568 719.58 179.303 684.692 177.596C655.904 175.888 632.97 159.543 626.139 139.052L655.904 131.001C660.539 143.199 670.298 149.785 686.156 150.517C704.209 151.493 719.579 143.931 720.067 129.294C721.287 115.145 707.137 103.679 688.839 102.703C688.107 102.703 687.62 102.703 686.888 102.215C652.976 99.5317 630.043 75.1367 631.263 48.5461C632.97 20.7358 659.563 -0.487909 694.207 1.70764C718.116 2.92739 737.633 14.3931 747.636 29.7619L721.287 40.7397C715.92 32.4454 705.185 27.8103 692.743 27.0785C675.177 25.8587 658.343 35.3728 657.855 49.7658C657.123 63.915 672.005 76.3564 690.059 77.3322Z" fill="#161616"/>
<path d="M760.898 4.63505H890.69V29.0301H839.456V174.668H810.668V29.0301H760.898V4.63505Z" fill="#161616"/>
<path d="M1017.97 174.668C1017.97 174.668 1013.09 162.471 1006.74 147.346H933.064C927.209 162.471 922.329 174.668 922.329 174.668H895.005L969.903 0L1045.29 174.668H1017.97ZM970.391 124.659C995.276 124.659 998.204 125.146 998.204 125.146C998.204 125.146 993.812 115.632 992.104 111.241C988.445 100.995 984.785 92.7011 983.078 87.8221C974.783 67.0863 970.391 53.1811 970.391 53.1811C970.391 53.1811 965.024 67.3303 956.729 87.8221C954.777 93.189 951.606 101.727 947.702 111.241C945.994 115.632 941.847 125.146 941.847 125.146C941.847 125.146 945.262 124.659 970.391 124.659Z" fill="#161616"/>
<path d="M1195.27 127.098L1217.47 136.612C1201.86 161.251 1174.54 177.596 1143.55 177.596C1095.73 177.596 1057.68 137.832 1057.68 89.2858C1057.68 40.4957 1095.73 1.21975 1143.55 1.21975C1172.83 1.21975 1198.69 15.3689 1214.79 38.0562L1195.52 51.4735C1183.32 34.397 1166.73 23.6632 1143.55 23.6632C1109.88 23.6632 1081.83 53.669 1081.83 89.2858C1081.83 124.659 1109.88 154.908 1143.55 154.908C1166 154.908 1184.05 143.443 1195.27 127.098Z" fill="#161616"/>
<path d="M1300.05 92.945L1363.48 174.668H1328.6L1277.36 105.874L1273.46 100.507L1271.75 102.703L1268.33 106.85V174.912H1241.5L1241.25 3.9032H1268.33V54.6448V71.4774L1280.53 55.6207L1323.23 3.9032H1356.65L1300.78 69.7698L1290.78 81.7233L1300.05 92.945Z" fill="#161616"/>
<path d="M1056.19 238.16C1056.19 238.16 1053.21 239.84 1047.1 239.84C1042.51 239.84 1038.76 239.84 1038.76 239.84V253.129H1030.74V199.667H1037.54H1038.76H1049.7C1059.33 200.126 1067.05 208.909 1067.05 219.677C1067.05 227.926 1062.61 235.105 1056.19 238.16ZM1038.76 206.847V232.661H1048.93C1054.82 232.355 1059.71 226.78 1059.71 219.677C1059.71 213.109 1055.28 207.61 1049.7 206.847H1038.76Z" fill="#161616"/>
<path d="M1109.78 253.052C1109.78 253.052 1108.25 249.234 1106.26 244.499H1083.17C1081.34 249.234 1079.81 253.052 1079.81 253.052H1071.25L1094.72 198.369L1118.34 253.052H1109.78ZM1094.87 237.396C1102.67 237.396 1103.58 237.549 1103.58 237.549C1103.58 237.549 1102.21 234.57 1101.67 233.195C1100.53 229.988 1099.38 227.391 1098.84 225.864C1096.24 219.372 1094.87 215.019 1094.87 215.019C1094.87 215.019 1093.19 219.448 1090.59 225.864C1089.98 227.544 1088.98 230.217 1087.76 233.195C1087.22 234.57 1085.92 237.549 1085.92 237.549C1085.92 237.549 1086.99 237.396 1094.87 237.396Z" fill="#161616"/>
<path d="M1142.32 227.467L1162.2 253.052H1151.27L1135.21 231.515L1133.99 229.835L1133.46 230.522L1132.39 231.821V253.129H1123.98L1123.9 199.591H1132.39V215.477V220.747L1136.21 215.782L1149.59 199.591H1160.06L1142.55 220.212L1139.42 223.954L1142.32 227.467Z" fill="#161616"/>
<path d="M1175.66 253.129H1167.33V199.667H1175.66V253.129Z" fill="#161616"/>
<path d="M1201.88 222.579C1212.81 223.19 1221.29 230.828 1220.76 239.382C1220.38 248.012 1211.13 254.504 1200.19 253.969C1191.17 253.434 1183.99 248.317 1181.85 241.902L1191.17 239.382C1192.63 243.2 1195.68 245.262 1200.65 245.491C1206.31 245.797 1211.13 243.429 1211.28 238.847C1211.66 234.417 1207.23 230.828 1201.49 230.522C1201.26 230.522 1201.11 230.522 1200.88 230.37C1190.26 229.529 1183.07 221.892 1183.45 213.567C1183.99 204.861 1192.32 198.216 1203.18 198.904C1210.67 199.286 1216.78 202.875 1219.92 207.687L1211.66 211.123C1209.98 208.527 1206.62 207.076 1202.72 206.847C1197.21 206.465 1191.94 209.443 1191.79 213.949C1191.56 218.379 1196.22 222.274 1201.88 222.579Z" fill="#161616"/>
<path d="M1224.07 199.82H1264.74V207.458H1248.69V253.052H1239.67V207.458H1224.07V199.82Z" fill="#161616"/>
<path d="M1304.62 253.052C1304.62 253.052 1303.1 249.234 1301.11 244.499H1278.02C1276.19 249.234 1274.66 253.052 1274.66 253.052H1266.1L1289.56 198.369L1313.19 253.052H1304.62ZM1289.72 237.396C1297.51 237.396 1298.43 237.549 1298.43 237.549C1298.43 237.549 1297.06 234.57 1296.52 233.195C1295.37 229.988 1294.23 227.391 1293.69 225.864C1291.09 219.372 1289.72 215.019 1289.72 215.019C1289.72 215.019 1288.04 219.448 1285.44 225.864C1284.82 227.544 1283.83 230.217 1282.61 233.195C1282.07 234.57 1280.77 237.549 1280.77 237.549C1280.77 237.549 1281.84 237.396 1289.72 237.396Z" fill="#161616"/>
<path d="M1318.83 252.823V198.522L1348.33 227.62L1354.75 234.265L1354.68 226.093V199.744H1363.47V253.816L1332.51 223.878L1327.23 218.226L1327.31 224.871V252.823H1318.83Z" fill="#161616"/>
<rect x="1398.11" width="50.3824" height="177.388" fill="#DD0031"/>
<path d="M1406.87 63.0683L1406.87 41.9829L1424.61 56.5871C1426.25 57.9265 1427.79 58.229 1429.06 58.229C1430.33 58.229 1431.6 58.0561 1432.6 57.0192C1433.6 56.0686 1434.19 54.2539 1434.19 53.0441C1434.19 51.4454 1433.51 50.106 1432.51 49.1554C1431.51 48.2048 1430.1 47.4703 1428.47 47.4703L1428.47 42.7174C1435.19 43.0631 1438.86 47.4703 1438.91 52.6552C1438.91 53.4761 1438.86 54.1675 1438.77 54.7724C1438.45 56.976 1437.32 58.8771 1435.46 60.519C1433.51 62.1609 1431.37 63.025 1429.06 63.025C1426.61 63.025 1424.34 62.2473 1422.48 60.735L1411.68 51.7046L1411.72 63.0683L1406.87 63.0683Z" fill="#FBFBFB"/>
<path d="M1416.72 87.4569C1409.91 87.4569 1406.5 82.7041 1406.5 77.3895C1406.5 74.4082 1407.19 72.1182 1409.64 69.7418C1411.31 68.0999 1413.54 67.279 1417.08 67.279L1428.42 67.279C1435.91 67.279 1439.04 72.6799 1439.04 77.6056C1439.04 82.1856 1435.59 87.4569 1428.42 87.4569L1416.72 87.4569ZM1428.56 82.7905C1431.83 82.7905 1434.05 80.0252 1434.05 77.476C1434.05 74.7971 1432.1 72.0318 1428.29 72.0318L1417.08 72.0318C1412.04 72.0318 1411 75.5748 1411 77.3895C1411 78.9882 1411.77 82.7905 1416.94 82.7905L1428.56 82.7905Z" fill="#FBFBFB"/>
<path d="M1406.87 112.394L1406.87 91.3088L1424.61 105.913C1426.25 107.252 1427.79 107.555 1429.06 107.555C1430.33 107.555 1431.6 107.382 1432.6 106.345C1433.6 105.395 1434.19 103.58 1434.19 102.37C1434.19 100.771 1433.51 99.4319 1432.51 98.4813C1431.51 97.5308 1430.1 96.7962 1428.47 96.7962L1428.47 92.0433C1435.19 92.389 1438.86 96.7962 1438.91 101.981C1438.91 102.802 1438.86 103.493 1438.77 104.098C1438.45 106.302 1437.32 108.203 1435.46 109.845C1433.51 111.487 1431.37 112.351 1429.06 112.351C1426.61 112.351 1424.34 111.573 1422.48 110.061L1411.68 101.031L1411.72 112.394L1406.87 112.394Z" fill="#FBFBFB"/>
<path d="M1423.57 132.03C1422.12 134.277 1419.8 135.4 1416.72 135.4C1415.17 135.4 1414.08 135.271 1413.22 134.968C1411.09 134.19 1409.45 132.937 1408.32 131.209C1407.23 129.481 1406.69 127.536 1406.69 125.376C1406.69 122.654 1407.55 120.407 1409.27 118.506C1411.04 116.648 1413.36 115.611 1416.13 115.611L1416.13 120.537C1413.4 120.58 1411.22 122.827 1411.22 125.549C1411.22 128.357 1413.49 130.647 1416.26 130.647C1416.31 130.647 1416.4 130.647 1416.44 130.647C1416.49 130.647 1416.58 130.647 1416.62 130.647C1419.21 130.647 1421.3 128.617 1421.3 126.154C1421.3 125.981 1421.3 124.728 1421.3 124.209L1425.66 124.209C1425.66 124.425 1425.75 125.549 1425.75 125.938C1425.75 128.228 1427.7 130.129 1430.01 130.129C1431.87 130.129 1433.37 129.049 1434.05 127.493C1434.23 126.975 1434.46 126.413 1434.46 125.808C1434.46 123.475 1432.51 121.574 1430.24 121.574C1430.1 121.574 1430.01 121.574 1429.83 121.574L1429.83 116.518C1435.82 117.123 1438.86 120.45 1438.86 125.851C1438.86 128.357 1438.04 130.431 1436.55 132.246C1434.91 134.061 1432.78 135.011 1430.24 135.011C1427.38 135.011 1425.2 134.018 1423.57 132.03Z" fill="#FBFBFB"/>
<defs>
<linearGradient id="paint0_linear_147_1443" x1="222.99" y1="0" x2="222.99" y2="175.371" gradientUnits="userSpaceOnUse">
<stop stop-color="#DD0031"/>
<stop offset="1" stop-color="#C3002F"/>
</linearGradient>
</defs>
</svg>
