<svg width="1915" height="553" viewBox="0 0 1915 553" fill="none" xmlns="http://www.w3.org/2000/svg">
<path d="M914.898 423.941V438.752H1026.28V423.941H1056.4C1056.6 421.631 1056.74 419.307 1056.74 416.952C1056.74 373.412 1019.44 337.978 972.967 336.801V324.925H968.198V336.801C921.723 337.978 884.426 373.412 884.426 416.952C884.426 419.307 884.56 421.631 884.768 423.941H914.883H914.898ZM959.004 423.39L957.574 424.716H959.764V431.838H949.826V424.716H952.016L950.586 423.39C949.438 422.332 948.797 420.931 948.797 419.426C948.797 416.356 951.48 413.853 954.788 413.853C958.096 413.853 960.778 416.356 960.778 419.426C960.778 420.931 960.152 422.332 958.99 423.39H959.004ZM974.799 423.39L973.369 424.716H975.559V431.838H965.62V424.716H967.811L966.38 423.39C965.233 422.332 964.592 420.931 964.592 419.426C964.592 416.356 967.274 413.853 970.582 413.853C973.89 413.853 976.573 416.356 976.573 419.426C976.573 420.931 975.947 422.332 974.784 423.39H974.799ZM990.594 423.39L989.164 424.716H991.354V431.838H981.415V424.716H983.606L982.175 423.39C981.028 422.332 980.387 420.931 980.387 419.426C980.387 416.356 983.069 413.853 986.377 413.853C989.685 413.853 992.367 416.356 992.367 419.426C992.367 420.931 991.742 422.332 990.579 423.39H990.594Z" fill="#DD0031"/>
<path d="M946.577 552.789C948.425 539.78 952.373 516.296 958.736 499.473C959.123 498.46 959.511 497.462 959.913 496.508C962.163 491.114 964.681 486.584 967.513 483.619C969.107 481.935 972.117 481.935 973.711 483.619C976.528 486.584 979.061 491.114 981.311 496.508C981.713 497.477 982.1 498.46 982.488 499.473C988.851 516.296 992.799 539.78 994.647 552.789H1076.5L1066.71 428.575H1031.3V443.387H909.921V428.575H874.516L864.727 552.789H946.577Z" fill="#DD0031"/>
<path d="M1250.78 393.471L1251.24 393.144V389.91C1251.24 389.91 1108.1 404.006 1086.79 491.161C1086.79 491.161 1077.91 527.177 1076.5 553.268H1109.41V553.134C1109.5 550.899 1111.83 497.897 1133.3 465.443C1155.98 431.141 1197.7 405.586 1250.79 393.457L1250.78 393.471Z" fill="#DD0031"/>
<path d="M1247.63 398.791C1196.92 411.084 1157.18 435.775 1135.49 468.601C1115.85 498.299 1112.78 547.621 1112.5 552.94L1112.59 553.268H1166.27L1166.3 553.045C1166.35 552.732 1168.66 536.713 1173.86 517.744C1180.49 487.481 1198.67 442.138 1247.63 398.806V398.791Z" fill="#DD0031"/>
<path d="M1256.53 410.324C1245.12 422.722 1206.08 467.231 1200.99 500.31C1197.31 524.331 1196.64 542.659 1196.69 553.268H1246.93L1253.3 525.642C1253.06 495.632 1253.3 447.07 1256.51 410.324H1256.53Z" fill="#DD0031"/>
<path d="M1198 499.327C1203.85 461.151 1250.33 411.218 1257.12 404.096C1257.29 402.472 1257.45 400.877 1257.63 399.312C1257.63 399.312 1201.16 453.075 1191.92 495.87C1182.68 538.665 1185.53 553.283 1185.53 553.283H1193.59C1193.54 542.435 1194.21 523.913 1197.98 499.327H1198Z" fill="#DD0031"/>
<path d="M1170.73 537.533C1169.28 544.462 1168.4 549.767 1168.03 552.136H1182.26C1181.67 517.447 1191.49 483.86 1195.57 471.478C1182.47 489.075 1174.59 519.101 1170.73 537.533Z" fill="#DD0031"/>
<path d="M1440.57 491.161C1419.26 404.006 1276.12 389.91 1276.12 389.91V393.144L1276.59 393.471C1329.68 405.601 1371.4 431.156 1394.08 465.457C1415.54 497.911 1417.86 550.914 1417.95 553.149V553.283H1450.87C1449.45 527.192 1440.57 491.176 1440.57 491.176V491.161Z" fill="#DD0031"/>
<path d="M1279.73 398.791C1328.69 442.138 1346.86 487.466 1353.5 517.73C1358.7 536.699 1361.01 552.717 1361.06 553.03L1361.09 553.253H1414.77L1414.86 552.926C1414.58 547.606 1411.51 498.284 1391.87 468.587C1370.18 435.76 1330.44 411.07 1279.73 398.776V398.791Z" fill="#DD0031"/>
<path d="M1270.82 410.324C1273.96 446.295 1274.26 493.605 1274.05 523.734L1281.1 553.283H1330.66C1330.7 542.673 1330.05 524.345 1326.35 500.325C1321.27 467.231 1282.23 422.737 1270.82 410.339V410.324Z" fill="#DD0031"/>
<path d="M1269.73 399.297C1269.91 400.861 1270.07 402.456 1270.24 404.08C1277.03 411.203 1323.51 461.15 1329.36 499.311C1333.13 523.883 1333.82 542.419 1333.76 553.267H1341.82C1341.82 553.267 1344.67 538.65 1335.43 495.854C1326.19 453.059 1269.72 399.297 1269.72 399.297H1269.73Z" fill="#DD0031"/>
<path d="M1331.81 471.478C1335.89 483.86 1345.71 517.447 1345.11 552.136H1359.34C1358.97 549.767 1358.09 544.462 1356.65 537.533C1352.8 519.101 1344.92 489.075 1331.81 471.478Z" fill="#DD0031"/>
<path d="M1263.78 494.32L1253.46 539.112L1250.72 551.018H1253.67H1273.68H1277.3L1273.93 536.862L1263.78 494.32Z" fill="#DD0031"/>
<path d="M1558.25 472.129L1559.21 471.801L1566.06 379.58L1561.92 325.267L1550.33 378.045L1537.81 504.449H1539.27L1558.24 472.144L1558.25 472.129ZM1560.49 380.549L1559.46 383.633H1554.29L1553.26 380.549H1560.5H1560.49Z" fill="#DD0031"/>
<path d="M1807.13 472.13L1826.1 504.435H1827.56L1815.04 378.031L1803.45 325.252L1799.31 379.566L1806.16 471.787L1807.12 472.115L1807.13 472.13ZM1804.9 380.549H1812.14L1811.11 383.633H1805.94L1804.91 380.549H1804.9Z" fill="#DD0031"/>
<path d="M1491.62 516.952H1462.77L1450.87 552.148H1493.96L1498.97 548.661L1491.62 516.952Z" fill="#DD0031"/>
<path d="M1491.86 513.793L1506.04 323.047L1499.77 240.779L1482.22 320.722L1463.1 513.807H1491.86V513.793ZM1486.61 324.492H1497.58L1496.02 329.156H1488.18L1486.61 324.492Z" fill="#DD0031"/>
<path d="M1873.77 513.793H1902.3L1883.18 320.708L1865.63 240.765L1859.36 323.032L1873.54 513.778H1873.78L1873.77 513.793ZM1867.81 324.492H1878.77L1877.21 329.156H1869.37L1867.81 324.492Z" fill="#DD0031"/>
<path d="M1902.61 516.952H1873.77L1866.42 548.661L1871.43 552.148H1914.52L1902.61 516.952Z" fill="#DD0031"/>
<path d="M1565.41 530.869L1675.39 452.401L1676.24 451.79V443.192L1675.39 443.773L1562.79 519.544L1559.78 521.571L1546.01 530.854L1541.3 534.013L1520.21 548.199L1519.04 548.988H1540L1541.11 548.199L1561 534.013L1565.41 530.869Z" fill="#DD0031"/>
<path d="M1838.78 534.266L1838.63 534.013L1834.35 526.726L1823.13 507.609L1821.27 504.45L1806.77 479.744L1804.18 475.333L1700.72 439.735L1697.82 414.657L1689.03 425.699V414.523H1689.46L1689.03 411.513V406.626H1688.33L1682.69 367.272L1677.06 406.626H1676.36V411.513L1675.93 414.523H1676.36V425.699L1667.57 414.657L1664.66 439.735L1561.21 475.333L1558.61 479.744L1544.11 504.45L1542.25 507.609L1531.03 526.726L1526.76 534.013L1526.61 534.266L1502.93 550.821L1501.02 552.162H1508.55L1514.42 548.213L1535.52 534.013L1540.21 530.854L1559 518.203L1562.01 516.177L1580.35 503.839L1675.41 439.869L1676.36 439.229V455.694L1675.41 456.379L1546.69 548.198L1541.15 552.147H1566.64V552.937H1577.13H1798.76V552.147H1824.24L1824.18 552.102L1818.69 548.198L1689.98 456.379L1689.03 455.694V439.229L1689.98 439.869L1803.37 516.177L1806.38 518.203L1825.17 530.854L1829.87 534.013L1850.97 548.213L1856.84 552.162H1864.36L1862.46 550.821L1838.78 534.266ZM1576.36 551.357H1568.34V542.104L1572.81 533.015L1576.36 535.875V551.357ZM1586.87 551.357H1578.85V534.713L1583.32 525.624L1586.87 528.485V551.357ZM1597.37 551.357H1589.35V527.322L1593.82 518.233L1597.37 521.094V551.357ZM1607.88 551.357H1599.86V519.932L1604.33 510.842L1607.88 513.703V551.357ZM1618.38 551.357H1610.36V512.541L1614.83 503.451L1618.38 506.312V551.357ZM1628.89 551.357H1620.87V505.15L1625.34 496.06L1628.89 498.921V551.357ZM1639.39 551.357H1631.37V497.759L1635.84 488.67L1639.39 491.531V551.357ZM1649.9 551.357H1641.88V490.368L1646.35 481.279L1649.9 484.14V551.357ZM1660.4 551.357H1652.38V482.978L1656.85 473.888L1660.4 476.749V551.357ZM1670.91 551.357H1662.89V475.587L1667.36 466.497L1670.91 469.358V551.357ZM1681.41 551.357H1673.39V468.196L1677.6 459.628L1677.85 459.091L1678.07 459.27L1681.4 461.952V551.343L1681.41 551.357ZM1692.08 551.357H1684.06V461.967L1687.39 459.285L1687.61 459.106L1687.86 459.643L1692.07 468.211V551.372L1692.08 551.357ZM1702.59 551.357H1694.57V469.358L1698.11 466.497L1702.59 475.587V551.357ZM1713.09 551.357H1705.07V476.749L1708.62 473.888L1713.09 482.978V551.357ZM1723.6 551.357H1715.58V484.14L1719.13 481.279L1723.6 490.368V551.357ZM1734.1 551.357H1726.08V491.531L1729.63 488.67L1734.1 497.759V551.357ZM1744.61 551.357H1736.59V498.921L1740.14 496.06L1744.61 505.15V551.357ZM1755.11 551.357H1747.09V506.312L1750.64 503.451L1755.11 512.541V551.357ZM1765.62 551.357H1757.6V513.703L1761.15 510.842L1765.62 519.932V551.357ZM1776.12 551.357H1768.1V521.094L1771.65 518.233L1776.12 527.322V551.357ZM1786.63 551.357H1778.61V528.485L1782.16 525.624L1786.63 534.713V551.357ZM1797.13 551.357H1789.11V535.875L1792.66 533.015L1797.13 542.104V551.357Z" fill="#DD0031"/>
<path d="M1824.09 534.013L1819.38 530.854L1805.61 521.571L1802.6 519.544L1689.99 443.773L1689.14 443.192V451.79L1689.99 452.401L1799.98 530.869L1804.39 534.013L1824.28 548.199L1825.38 548.988H1846.35L1845.17 548.199L1824.09 534.013Z" fill="#DD0031"/>
<path d="M265.891 398.239H265.385V409.415H265.891V398.239Z" fill="#DD0031"/>
<path d="M255.698 398.239H255.191V409.415H255.698V398.239Z" fill="#DD0031"/>
<path d="M859.69 392.681V386.631C859.69 386.259 859.645 385.871 859.555 385.514C859.466 385.141 859.332 384.784 859.153 384.426C858.989 384.068 858.781 383.711 858.542 383.368C858.304 383.025 858.036 382.683 857.738 382.355C856.411 380.88 854.594 379.553 852.835 378.495C852.448 378.257 852.06 378.034 851.673 377.825C851.3 377.616 850.928 377.423 850.57 377.229C849.691 376.767 848.901 376.394 848.305 376.126C847.59 375.798 847.143 375.635 847.143 375.635L845.713 365.755L844.282 375.635C844.282 375.635 843.835 375.813 843.12 376.126C842.524 376.394 841.734 376.767 840.855 377.229C840.497 377.408 840.14 377.616 839.752 377.825C839.38 378.034 838.992 378.257 838.59 378.495C836.832 379.568 835.014 380.88 833.688 382.355C833.39 382.683 833.121 383.025 832.883 383.368C832.645 383.711 832.436 384.068 832.272 384.426C832.093 384.784 831.959 385.141 831.87 385.514C831.78 385.886 831.736 386.259 831.736 386.631V392.681H827.265V395.989H833.077V411.65H827.265V417.074C827.489 417.118 827.697 417.163 827.906 417.223C828.323 417.327 828.711 417.476 829.083 417.625C829.441 417.789 829.784 417.968 830.111 418.176C831.065 418.802 831.795 419.592 832.376 420.471C832.57 420.754 832.734 421.067 832.898 421.365C833.136 421.812 833.33 422.274 833.494 422.736C833.598 423.034 833.702 423.347 833.792 423.63C833.926 424.077 834.015 424.494 834.105 424.897C834.164 425.165 834.194 425.418 834.239 425.657C834.254 425.776 834.269 425.895 834.284 425.999C834.313 426.223 834.328 426.417 834.343 426.595C834.388 427.117 834.388 427.445 834.388 427.445H834.746V454.654C834.582 454.743 834.403 454.862 834.209 454.981C833.926 455.16 833.643 455.369 833.375 455.622C833.285 455.697 833.196 455.786 833.106 455.876C832.838 456.144 832.6 456.427 832.406 456.755C832.272 456.963 832.168 457.202 832.093 457.44C832.019 457.679 831.959 457.932 831.944 458.2C831.944 458.334 831.944 458.468 831.944 458.617C831.959 458.9 832.019 459.198 832.123 459.496C832.123 459.496 833.419 460.867 833.345 462.67C833.315 463.177 833.181 463.728 832.883 464.294C832.704 464.637 832.451 464.965 832.138 465.308H829.307C828.979 464.965 828.74 464.622 828.547 464.294C828.234 463.728 828.1 463.192 828.085 462.67C828.01 460.867 829.307 459.496 829.307 459.496C829.456 459.049 829.515 458.647 829.486 458.26C829.441 457.291 828.934 456.501 828.308 455.876C827.176 454.758 825.641 454.192 825.641 454.192C825.641 454.192 824.106 454.758 822.974 455.876C822.348 456.501 821.841 457.291 821.797 458.26C821.782 458.647 821.827 459.064 821.976 459.496C821.976 459.496 823.272 460.867 823.197 462.67C823.168 463.177 823.034 463.728 822.735 464.294C822.557 464.637 822.303 464.965 821.976 465.308H819.144C818.817 464.965 818.578 464.622 818.399 464.294C818.086 463.728 817.952 463.192 817.937 462.67C817.863 460.867 819.159 459.496 819.159 459.496C819.308 459.049 819.368 458.647 819.338 458.26C819.293 457.291 818.787 456.501 818.161 455.876C817.028 454.758 815.494 454.192 815.494 454.192C815.494 454.192 813.959 454.758 812.826 455.876C812.201 456.501 811.694 457.291 811.649 458.26C811.634 458.647 811.679 459.064 811.828 459.496C811.828 459.496 813.124 460.867 813.05 462.67C813.02 463.177 812.886 463.728 812.588 464.294C812.409 464.637 812.156 464.965 811.843 465.308H809.012C808.684 464.965 808.446 464.622 808.267 464.294C807.954 463.728 807.82 463.192 807.805 462.67C807.73 460.867 809.027 459.496 809.027 459.496C809.176 459.049 809.235 458.647 809.206 458.26C809.161 457.291 808.654 456.501 808.028 455.876C806.896 454.758 805.361 454.192 805.361 454.192C805.361 454.192 804.869 454.371 804.229 454.743C803.752 455.026 803.186 455.399 802.694 455.876C802.068 456.501 801.561 457.291 801.517 458.26C801.502 458.647 801.547 459.064 801.695 459.496C801.695 459.496 802.992 460.867 802.917 462.67C802.888 463.177 802.753 463.728 802.455 464.294C802.277 464.637 802.023 464.965 801.71 465.308H798.879C798.551 464.965 798.313 464.622 798.134 464.294C797.821 463.728 797.687 463.192 797.672 462.67C797.598 460.867 798.894 459.496 798.894 459.496C799.043 459.049 799.103 458.647 799.073 458.26C799.028 457.291 798.522 456.501 797.896 455.876C796.763 454.758 795.229 454.192 795.229 454.192C795.229 454.192 793.694 454.758 792.561 455.876C791.935 456.501 791.429 457.291 791.384 458.26C791.369 458.647 791.414 459.064 791.563 459.496C791.563 459.496 792.859 460.867 792.785 462.67C792.755 463.177 792.621 463.728 792.323 464.294C792.144 464.637 791.891 464.965 791.578 465.308H788.747C788.419 464.965 788.18 464.622 788.002 464.294C787.689 463.728 787.555 463.192 787.54 462.67C787.465 460.867 788.762 459.496 788.762 459.496C788.911 459.049 788.97 458.647 788.94 458.26C788.896 457.291 788.389 456.501 787.763 455.876C786.631 454.758 785.096 454.192 785.096 454.192C785.096 454.192 783.561 454.758 782.429 455.876C782.265 456.039 782.116 456.218 781.982 456.397C781.579 456.919 781.281 457.544 781.252 458.26C781.237 458.647 781.281 459.064 781.43 459.496C781.43 459.496 781.698 459.78 781.982 460.256C782.324 460.838 782.697 461.687 782.652 462.685C782.652 462.834 782.622 462.998 782.593 463.147C782.503 463.624 782.309 464.116 781.982 464.622C781.833 464.861 781.654 465.084 781.43 465.323H778.599C778.271 464.98 778.033 464.637 777.854 464.309C777.541 463.743 777.407 463.207 777.392 462.685C777.318 460.882 778.614 459.511 778.614 459.511C778.763 459.064 778.823 458.662 778.793 458.275C778.748 457.306 778.242 456.516 777.616 455.89C776.483 454.773 774.948 454.207 774.948 454.207C774.948 454.207 773.414 454.773 772.281 455.89C771.655 456.516 771.149 457.306 771.104 458.275C771.089 458.662 771.134 459.079 771.283 459.511C771.283 459.511 772.579 460.882 772.505 462.685C772.475 463.192 772.341 463.743 772.043 464.309C771.864 464.652 771.611 464.98 771.298 465.323H768.467C768.139 464.98 767.9 464.637 767.722 464.309C767.409 463.743 767.275 463.207 767.26 462.685C767.185 460.882 768.481 459.511 768.481 459.511C768.63 459.064 768.69 458.662 768.66 458.275C768.616 457.306 768.109 456.516 767.483 455.89C766.351 454.773 764.816 454.207 764.816 454.207C764.816 454.207 763.281 454.773 762.149 455.89C761.523 456.516 761.016 457.306 760.971 458.275C760.957 458.662 761.001 459.079 761.15 459.511C761.15 459.511 762.447 460.882 762.372 462.685C762.342 463.192 762.208 463.743 761.91 464.309C761.731 464.652 761.478 464.98 761.165 465.323H758.334C758.006 464.98 757.768 464.637 757.574 464.309C757.261 463.743 757.127 463.207 757.112 462.685C757.038 460.882 758.334 459.511 758.334 459.511C758.483 459.064 758.543 458.662 758.513 458.275C758.468 457.306 757.961 456.516 757.336 455.89C756.203 454.773 754.668 454.207 754.668 454.207C754.668 454.207 753.134 454.773 752.001 455.89C751.718 456.174 751.465 456.501 751.256 456.859C751.018 457.276 750.854 457.753 750.824 458.275C750.809 458.662 750.854 459.079 751.003 459.511C751.003 459.511 751.107 459.631 751.256 459.824C751.629 460.331 752.284 461.404 752.225 462.7C752.195 463.43 751.912 464.235 751.256 465.04C751.167 465.144 751.107 465.233 751.003 465.338H748.172C747.844 464.995 747.605 464.652 747.427 464.324C747.114 463.758 746.98 463.222 746.965 462.7C746.89 460.897 748.187 459.526 748.187 459.526C748.336 459.079 748.395 458.677 748.365 458.289C748.321 457.321 747.814 456.531 747.188 455.905C746.056 454.788 744.521 454.222 744.521 454.222C744.521 454.222 742.986 454.788 741.854 455.905C741.228 456.531 740.721 457.321 740.677 458.289C740.662 458.677 740.706 459.094 740.855 459.526C740.855 459.526 742.152 460.897 742.077 462.7C742.047 463.207 741.913 463.758 741.615 464.324C741.436 464.667 741.183 464.995 740.87 465.338H738.039C737.711 464.995 737.473 464.652 737.294 464.324C736.981 463.758 736.847 463.222 736.832 462.7C736.758 460.897 738.054 459.526 738.054 459.526C738.203 459.079 738.263 458.677 738.233 458.289C738.188 457.321 737.681 456.531 737.056 455.905C735.923 454.788 734.388 454.222 734.388 454.222C734.388 454.222 732.854 454.788 731.721 455.905C731.095 456.531 730.589 457.321 730.544 458.289C730.529 458.677 730.574 459.094 730.723 459.526C730.723 459.526 732.019 460.897 731.945 462.7C731.915 463.207 731.781 463.758 731.483 464.324C731.304 464.667 731.051 464.995 730.738 465.338H727.906C727.579 464.995 727.34 464.652 727.161 464.324C726.849 463.758 726.714 463.222 726.7 462.7C726.625 460.897 727.921 459.526 727.921 459.526C728.07 459.079 728.13 458.677 728.1 458.289C728.056 457.321 727.549 456.531 726.923 455.905C725.791 454.788 724.256 454.222 724.256 454.222C724.256 454.222 722.721 454.788 721.589 455.905C720.963 456.531 720.456 457.321 720.411 458.289C720.397 458.677 720.441 459.094 720.59 459.526C720.59 459.526 721.887 460.897 721.812 462.7C721.782 463.207 721.648 463.758 721.35 464.324C721.171 464.667 720.918 464.995 720.605 465.338H717.774C717.446 464.995 717.208 464.652 717.029 464.324C716.716 463.758 716.582 463.222 716.567 462.7C716.492 460.897 717.789 459.526 717.789 459.526C717.938 459.079 717.997 458.677 717.968 458.289C717.923 457.321 717.416 456.531 716.791 455.905C715.658 454.788 714.123 454.222 714.123 454.222C714.123 454.222 712.588 454.788 711.456 455.905C710.83 456.531 710.324 457.321 710.279 458.289C710.264 458.677 710.309 459.094 710.458 459.526C710.458 459.526 711.754 460.897 711.68 462.7C711.65 463.207 711.516 463.758 711.218 464.324C711.039 464.667 710.785 464.995 710.458 465.338H707.626C707.299 464.995 707.06 464.652 706.867 464.324C706.554 463.758 706.419 463.222 706.405 462.7C706.33 460.897 707.626 459.526 707.626 459.526C707.775 459.079 707.835 458.677 707.805 458.289C707.761 457.321 707.254 456.531 706.628 455.905C705.496 454.788 703.961 454.222 703.961 454.222C703.961 454.222 702.426 454.788 701.294 455.905C700.668 456.531 700.161 457.321 700.116 458.289C700.102 458.677 700.146 459.094 700.295 459.526C700.295 459.526 701.592 460.897 701.517 462.7C701.487 463.207 701.353 463.758 701.055 464.324C700.876 464.667 700.623 464.995 700.31 465.338H697.479C697.151 464.995 696.913 464.652 696.719 464.324C696.406 463.758 696.272 463.222 696.257 462.7C696.183 460.897 697.479 459.526 697.479 459.526C697.628 459.079 697.688 458.677 697.658 458.289C697.613 457.321 697.107 456.531 696.481 455.905C695.348 454.788 693.813 454.222 693.813 454.222C693.813 454.222 692.279 454.788 691.146 455.905C690.52 456.531 690.014 457.321 689.969 458.289C689.954 458.677 689.999 459.094 690.148 459.526C690.148 459.526 691.444 460.897 691.37 462.7C691.34 463.207 691.206 463.758 690.908 464.324C690.729 464.667 690.476 464.995 690.163 465.338H687.332C687.004 464.995 686.765 464.652 686.572 464.324C686.259 463.758 686.125 463.222 686.11 462.7C686.035 460.897 687.332 459.526 687.332 459.526C687.481 459.079 687.54 458.677 687.51 458.289C687.466 457.321 686.959 456.531 686.333 455.905C685.201 454.788 683.666 454.222 683.666 454.222C683.666 454.222 682.131 454.788 680.999 455.905C680.373 456.531 679.866 457.321 679.822 458.289C679.807 458.677 679.851 459.094 680 459.526C680 459.526 681.297 460.897 681.222 462.7C681.192 463.207 681.058 463.758 680.76 464.324C680.582 464.667 680.328 464.995 680.015 465.338H677.184C676.856 464.995 676.618 464.652 676.424 464.324C676.111 463.758 675.977 463.222 675.962 462.7C675.888 460.897 677.184 459.526 677.184 459.526C677.333 459.079 677.393 458.677 677.363 458.289C677.318 457.321 676.812 456.531 676.186 455.905C675.053 454.788 673.518 454.222 673.518 454.222C673.518 454.222 671.984 454.788 670.851 455.905C670.225 456.531 669.719 457.321 669.674 458.289C669.659 458.677 669.704 459.094 669.853 459.526C669.853 459.526 671.149 460.897 671.075 462.7C671.045 463.207 670.911 463.758 670.613 464.324C670.434 464.667 670.181 464.995 669.853 465.338H667.022C666.694 464.995 666.455 464.652 666.277 464.324C665.964 463.758 665.83 463.222 665.815 462.7C665.74 460.897 667.037 459.526 667.037 459.526C667.186 459.079 667.245 458.677 667.215 458.289C667.171 457.321 666.664 456.531 666.038 455.905C664.906 454.788 663.371 454.222 663.371 454.222C663.371 454.222 661.836 454.788 660.704 455.905C660.078 456.531 659.571 457.321 659.527 458.289C659.512 458.677 659.556 459.094 659.705 459.526C659.705 459.526 661.002 460.897 660.927 462.7C660.912 463.117 660.823 463.549 660.629 463.982C660.436 464.429 660.138 464.876 659.705 465.338H656.874C656.546 464.995 656.308 464.652 656.129 464.324C655.816 463.758 655.682 463.222 655.667 462.7C655.593 460.897 656.889 459.526 656.889 459.526C657.038 459.079 657.098 458.677 657.068 458.289C657.023 457.321 656.517 456.531 655.891 455.905C654.758 454.788 653.224 454.222 653.224 454.222C653.224 454.222 651.689 454.788 650.556 455.905C649.93 456.531 649.424 457.321 649.379 458.289C649.364 458.677 649.409 459.094 649.558 459.526C649.558 459.526 650.854 460.897 650.78 462.7C650.75 463.207 650.616 463.758 650.318 464.324C650.139 464.667 649.886 464.995 649.558 465.338H646.727C646.399 464.995 646.161 464.652 645.967 464.324C645.654 463.758 645.52 463.222 645.505 462.7C645.43 460.897 646.727 459.526 646.727 459.526C646.876 459.079 646.935 458.677 646.906 458.289C646.861 457.321 646.354 456.531 645.728 455.905C644.596 454.788 643.061 454.222 643.061 454.222C643.061 454.222 641.526 454.788 640.394 455.905C639.768 456.531 639.261 457.321 639.217 458.289C639.202 458.677 639.247 459.094 639.396 459.526C639.396 459.526 640.692 460.897 640.617 462.7C640.588 463.207 640.454 463.758 640.156 464.324C639.977 464.667 639.723 464.995 639.396 465.338H636.564C636.237 464.995 635.998 464.652 635.804 464.324C635.491 463.758 635.357 463.222 635.342 462.7C635.268 460.897 636.564 459.526 636.564 459.526C636.713 459.079 636.773 458.677 636.743 458.289C636.698 457.321 636.192 456.531 635.566 455.905C634.434 454.788 632.899 454.222 632.899 454.222C632.899 454.222 631.364 454.788 630.232 455.905C629.606 456.531 629.099 457.321 629.054 458.289C629.039 458.677 629.084 459.094 629.233 459.526C629.233 459.526 630.53 460.897 630.455 462.7C630.425 463.207 630.291 463.758 629.993 464.324C629.814 464.667 629.561 464.995 629.233 465.338H626.402C626.074 464.995 625.836 464.652 625.657 464.324C625.344 463.758 625.21 463.222 625.195 462.7C625.121 460.897 626.417 459.526 626.417 459.526C626.551 459.124 626.611 458.736 626.596 458.379C626.596 457.842 626.432 457.351 626.193 456.919C625.642 455.905 624.614 455.175 623.839 454.728C623.72 454.669 623.616 454.609 623.511 454.549C623.362 454.475 623.228 454.4 623.109 454.356C622.99 454.311 622.9 454.266 622.841 454.236V409.385H622.811V396.317H622.721C622.721 396.317 622.721 391.4 625.463 390.699V387.764H623.228V379.285H625.463V377.497H623.735V374.219C623.735 370.941 618.907 368.259 618.907 368.259L618.356 362.909L617.804 368.259C617.804 368.259 612.976 370.941 612.976 374.219V377.497H611.248V379.285H613.483V387.764H611.248V390.699C613.99 391.385 613.99 396.317 613.99 396.317H613.9V399.431C613.394 399.178 613.021 399.044 613.021 399.044C613.021 399.044 612.365 399.282 611.591 399.744C611.203 399.982 610.801 400.266 610.428 400.623C610.309 400.742 610.19 400.862 610.086 400.996C609.758 401.383 609.49 401.83 609.37 402.322C609.326 402.486 609.296 402.665 609.296 402.843C609.281 403.201 609.326 403.588 609.475 403.991C609.475 403.991 610.726 405.272 610.652 406.956C610.652 407.045 610.652 407.15 610.622 407.239C610.533 407.925 610.19 408.67 609.475 409.4H607.314C606.584 408.655 606.256 407.925 606.167 407.239C606.167 407.135 606.137 407.045 606.137 406.956C606.062 405.272 607.314 403.991 607.314 403.991C607.463 403.588 607.508 403.201 607.493 402.843C607.448 402.128 607.135 401.502 606.703 400.996C606.599 400.862 606.48 400.742 606.36 400.623C605.988 400.281 605.586 399.982 605.198 399.744C604.438 399.282 603.768 399.044 603.768 399.044C603.768 399.044 603.112 399.282 602.337 399.744C601.95 399.982 601.547 400.266 601.175 400.623C601.056 400.742 600.936 400.862 600.832 400.996C600.4 401.517 600.072 402.128 600.042 402.843C600.028 403.201 600.072 403.588 600.221 403.991C600.221 403.991 601.473 405.272 601.398 406.956C601.398 407.045 601.398 407.15 601.369 407.239C601.279 407.925 600.936 408.67 600.221 409.4H598.061C597.33 408.655 597.003 407.925 596.913 407.239C596.913 407.135 596.883 407.045 596.883 406.956C596.809 405.272 598.061 403.991 598.061 403.991C598.21 403.588 598.254 403.201 598.239 402.843C598.195 402.128 597.882 401.502 597.45 400.996C597.345 400.862 597.226 400.742 597.107 400.623C596.734 400.281 596.332 399.982 595.945 399.744C595.185 399.282 594.514 399.044 594.514 399.044C594.514 399.044 593.859 399.282 593.084 399.744C592.696 399.982 592.294 400.266 591.921 400.623C591.802 400.742 591.683 400.862 591.579 400.996C591.147 401.517 590.819 402.128 590.789 402.843C590.774 403.201 590.819 403.588 590.968 403.991C590.968 403.991 592.22 405.272 592.145 406.956C592.145 407.045 592.145 407.15 592.115 407.239C592.026 407.925 591.683 408.67 590.968 409.4H588.807C588.077 408.655 587.749 407.925 587.66 407.239C587.66 407.135 587.63 407.045 587.63 406.956C587.556 405.272 588.807 403.991 588.807 403.991C588.956 403.588 589.001 403.201 588.986 402.843C588.941 402.128 588.628 401.502 588.196 400.996C588.092 400.862 587.973 400.742 587.854 400.623C587.481 400.281 587.079 399.982 586.691 399.744C585.931 399.282 585.261 399.044 585.261 399.044C585.261 399.044 584.605 399.282 583.83 399.744C583.443 399.982 583.041 400.266 582.668 400.623C582.549 400.742 582.43 400.862 582.325 400.996C582.221 401.13 582.117 401.264 582.027 401.398C581.744 401.815 581.565 402.307 581.536 402.843C581.521 403.201 581.565 403.588 581.714 403.991C581.714 403.991 582.966 405.272 582.892 406.956C582.892 407.045 582.892 407.15 582.862 407.239C582.772 407.925 582.43 408.67 581.714 409.4H579.554C578.824 408.655 578.496 407.925 578.406 407.239C578.406 407.135 578.377 407.045 578.377 406.956C578.302 405.272 579.554 403.991 579.554 403.991C579.703 403.588 579.747 403.201 579.733 402.843C579.733 402.665 579.703 402.486 579.658 402.322C579.539 401.815 579.271 401.383 578.943 400.996C578.839 400.862 578.719 400.742 578.6 400.623C578.228 400.281 577.825 399.982 577.438 399.744C576.678 399.282 576.007 399.044 576.007 399.044C576.007 399.044 575.352 399.282 574.577 399.744C574.189 399.982 573.787 400.266 573.415 400.623C573.295 400.742 573.176 400.862 573.072 400.996C572.64 401.517 572.312 402.128 572.282 402.843C572.267 403.201 572.312 403.588 572.461 403.991C572.461 403.991 573.713 405.272 573.638 406.956C573.638 407.045 573.638 407.15 573.608 407.239C573.519 407.925 573.176 408.67 572.461 409.4H570.3C569.57 408.655 569.242 407.925 569.153 407.239C569.153 407.135 569.123 407.045 569.123 406.956C569.049 405.272 570.3 403.991 570.3 403.991C570.449 403.588 570.494 403.201 570.479 402.843C570.434 402.128 570.122 401.502 569.689 400.996C569.585 400.862 569.466 400.742 569.347 400.623C568.974 400.281 568.572 399.982 568.184 399.744C567.424 399.282 566.754 399.044 566.754 399.044C566.754 399.044 566.098 399.282 565.323 399.744C564.936 399.982 564.534 400.266 564.161 400.623C564.042 400.742 563.923 400.862 563.818 400.996C563.595 401.249 563.416 401.532 563.267 401.845C563.133 402.158 563.044 402.486 563.014 402.843C562.999 403.201 563.044 403.588 563.193 403.991C563.193 403.991 564.444 405.272 564.37 406.956C564.37 407.045 564.37 407.15 564.34 407.239C564.251 407.925 563.908 408.67 563.193 409.4H561.032C560.302 408.655 559.974 407.925 559.885 407.239C559.885 407.135 559.855 407.045 559.855 406.956C559.78 405.272 561.032 403.991 561.032 403.991C561.181 403.588 561.226 403.201 561.211 402.843C561.166 402.128 560.853 401.502 560.421 400.996C560.317 400.862 560.198 400.742 560.078 400.623C559.706 400.281 559.304 399.982 558.916 399.744C558.156 399.282 557.486 399.044 557.486 399.044C557.486 399.044 556.83 399.282 556.055 399.744C555.668 399.982 555.265 400.266 554.893 400.623C554.774 400.742 554.654 400.862 554.55 400.996C554.118 401.517 553.79 402.128 553.76 402.843C553.746 403.201 553.79 403.588 553.939 403.991C553.939 403.991 555.191 405.272 555.116 406.956C555.116 407.045 555.116 407.15 555.087 407.239C554.997 407.925 554.654 408.67 553.939 409.4H551.779C551.048 408.655 550.721 407.925 550.631 407.239C550.631 407.135 550.601 407.045 550.601 406.956C550.527 405.272 551.779 403.991 551.779 403.991C551.928 403.588 551.972 403.201 551.957 402.843C551.913 402.128 551.6 401.502 551.168 400.996C551.063 400.862 550.944 400.742 550.825 400.623C550.452 400.281 550.05 399.982 549.663 399.744C548.903 399.282 548.232 399.044 548.232 399.044C548.232 399.044 547.577 399.282 546.802 399.744C546.414 399.982 546.012 400.266 545.639 400.623C545.52 400.742 545.401 400.862 545.297 400.996C544.969 401.383 544.701 401.83 544.581 402.322C544.537 402.486 544.507 402.665 544.507 402.843C544.492 403.201 544.537 403.588 544.686 403.991C544.686 403.991 545.938 405.272 545.863 406.956C545.863 407.045 545.863 407.15 545.833 407.239C545.744 407.925 545.401 408.67 544.686 409.4H542.525C541.795 408.655 541.467 407.925 541.378 407.239C541.378 407.135 541.363 407.045 541.348 406.956C541.274 405.272 542.525 403.991 542.525 403.991C542.674 403.588 542.719 403.201 542.704 402.843C542.659 402.128 542.346 401.502 541.914 400.996C541.81 400.862 541.691 400.742 541.572 400.623C541.199 400.281 540.797 399.982 540.409 399.744C539.649 399.282 538.979 399.044 538.979 399.044C538.979 399.044 538.323 399.282 537.548 399.744C537.161 399.982 536.759 400.266 536.386 400.623C536.267 400.742 536.148 400.862 536.043 400.996C535.611 401.517 535.283 402.128 535.254 402.843C535.239 403.201 535.283 403.588 535.432 403.991C535.432 403.991 536.684 405.272 536.61 406.956C536.61 407.045 536.61 407.15 536.58 407.239C536.49 407.925 536.148 408.67 535.432 409.4H533.272C532.542 408.655 532.214 407.925 532.124 407.239C532.124 407.135 532.109 407.045 532.095 406.956C532.02 405.272 533.272 403.991 533.272 403.991C533.421 403.588 533.465 403.201 533.451 402.843C533.406 402.128 533.093 401.502 532.661 400.996C532.557 400.862 532.437 400.742 532.318 400.623C531.946 400.281 531.543 399.982 531.156 399.744C530.396 399.282 529.725 399.044 529.725 399.044C529.725 399.044 529.07 399.282 528.295 399.744C527.907 399.982 527.505 400.266 527.133 400.623C527.013 400.742 526.894 400.862 526.79 400.996C526.358 401.517 526.03 402.128 526 402.843C525.985 403.201 526.03 403.588 526.179 403.991C526.179 403.991 527.431 405.272 527.356 406.956C527.356 407.045 527.356 407.15 527.326 407.239C527.237 407.925 526.894 408.67 526.179 409.4H524.018C523.288 408.655 522.96 407.925 522.871 407.239C522.871 407.135 522.856 407.045 522.841 406.956C522.767 405.272 524.018 403.991 524.018 403.991C524.167 403.588 524.212 403.201 524.197 402.843C524.152 402.128 523.84 401.502 523.407 400.996C523.303 400.862 523.184 400.742 523.065 400.623C522.692 400.281 522.29 399.982 521.902 399.744C521.142 399.282 520.472 399.044 520.472 399.044C520.472 399.044 519.816 399.282 519.041 399.744C518.654 399.982 518.252 400.266 517.879 400.623C517.76 400.742 517.641 400.862 517.536 400.996C517.432 401.13 517.328 401.264 517.238 401.398C516.955 401.815 516.777 402.307 516.747 402.843C516.732 403.201 516.777 403.588 516.926 403.991C516.926 403.991 518.177 405.272 518.103 406.956C518.103 407.045 518.103 407.15 518.073 407.239C517.983 407.925 517.641 408.67 516.926 409.4H514.765C514.035 408.655 513.707 407.925 513.618 407.239C513.618 407.135 513.603 407.045 513.588 406.956C513.513 405.272 514.765 403.991 514.765 403.991C514.914 403.588 514.959 403.201 514.944 402.843C514.944 402.665 514.914 402.486 514.869 402.322C514.75 401.815 514.482 401.383 514.154 400.996C514.05 400.862 513.93 400.742 513.811 400.623C513.439 400.281 513.036 399.982 512.649 399.744C511.889 399.282 511.219 399.044 511.219 399.044C511.219 399.044 510.563 399.282 509.788 399.744C509.401 399.982 508.998 400.266 508.626 400.623C508.507 400.742 508.387 400.862 508.283 400.996C507.851 401.517 507.523 402.128 507.493 402.843C507.478 403.201 507.523 403.588 507.672 403.991C507.672 403.991 508.924 405.272 508.849 406.956C508.849 407.045 508.849 407.15 508.819 407.239C508.73 407.925 508.387 408.67 507.672 409.4H505.511C504.781 408.655 504.454 407.925 504.364 407.239C504.364 407.135 504.334 407.045 504.334 406.956C504.26 405.272 505.511 403.991 505.511 403.991C505.66 403.588 505.705 403.201 505.69 402.843C505.646 402.128 505.333 401.502 504.901 400.996C504.796 400.862 504.677 400.742 504.558 400.623C504.185 400.281 503.783 399.982 503.396 399.744C502.636 399.282 501.965 399.044 501.965 399.044C501.965 399.044 501.309 399.282 500.535 399.744C500.147 399.982 499.745 400.266 499.372 400.623C499.253 400.742 499.134 400.862 499.03 400.996C498.806 401.249 498.627 401.532 498.478 401.845C498.344 402.158 498.255 402.486 498.225 402.843C498.195 403.201 498.255 403.588 498.404 403.991C498.404 403.991 499.655 405.272 499.581 406.956C499.581 407.045 499.581 407.15 499.551 407.239C499.462 407.925 499.119 408.67 498.404 409.4H496.243C495.513 408.655 495.185 407.925 495.096 407.239C495.096 407.135 495.066 407.045 495.066 406.956C494.991 405.272 496.243 403.991 496.243 403.991C496.362 403.663 496.422 403.35 496.422 403.052C496.422 402.754 496.392 402.471 496.318 402.203C496.198 401.8 496.005 401.443 495.751 401.13C495.588 400.921 495.394 400.713 495.2 400.534C494.708 400.087 494.127 399.729 493.665 399.476C493.472 399.372 493.308 399.297 493.159 399.237V396.719H493.069C493.069 396.719 493.069 391.802 495.811 391.102V388.166H493.576V379.688H495.811V377.899H494.083V374.621C494.083 374.308 494.038 374.01 493.963 373.712C493.889 373.414 493.77 373.131 493.636 372.848C493.546 372.669 493.442 372.476 493.323 372.297C493.099 371.939 492.831 371.596 492.548 371.283C492.414 371.12 492.265 370.971 492.116 370.822C491.818 370.524 491.505 370.255 491.222 370.017C491.073 369.898 490.924 369.778 490.789 369.674C490.506 369.466 490.238 369.272 490.015 369.123C489.791 368.974 489.597 368.855 489.463 368.78C489.404 368.735 489.344 368.706 489.314 368.691C489.284 368.676 489.255 368.661 489.255 368.661L488.972 365.979L488.688 363.297L488.405 365.979L488.122 368.661C488.122 368.661 488.107 368.661 488.063 368.691C488.033 368.706 487.973 368.735 487.914 368.78C487.779 368.855 487.586 368.974 487.362 369.123C487.139 369.272 486.871 369.466 486.587 369.674C486.453 369.778 486.304 369.898 486.155 370.017C485.857 370.255 485.544 370.524 485.261 370.822C485.112 370.971 484.963 371.12 484.829 371.283C484.546 371.596 484.278 371.939 484.054 372.297C483.935 372.476 483.831 372.654 483.741 372.848C483.607 373.131 483.488 373.414 483.414 373.712C483.339 374.01 483.294 374.308 483.294 374.621V377.899H481.566V379.688H483.801V388.166H481.566V391.102C484.308 391.787 484.308 396.719 484.308 396.719H484.218V409.415H484.114V454.296C484.039 454.326 483.935 454.371 483.816 454.43C483.697 454.49 483.548 454.549 483.399 454.639C483.086 454.803 482.728 455.011 482.37 455.279C482.251 455.369 482.132 455.458 482.013 455.563C481.178 456.248 480.433 457.217 480.433 458.438C480.433 458.781 480.493 459.154 480.627 459.556C480.627 459.556 481.923 460.927 481.849 462.73C481.834 463.147 481.745 463.579 481.551 464.011C481.357 464.458 481.059 464.905 480.627 465.367H477.796C477.259 464.801 476.932 464.235 476.753 463.684C476.649 463.356 476.589 463.043 476.574 462.73C476.5 460.927 477.796 459.556 477.796 459.556C477.945 459.109 478.005 458.707 477.975 458.319C477.93 457.351 477.423 456.561 476.798 455.935C475.665 454.818 474.13 454.251 474.13 454.251C474.13 454.251 472.596 454.818 471.463 455.935C470.837 456.561 470.331 457.351 470.286 458.319C470.271 458.707 470.316 459.124 470.465 459.556C470.465 459.556 471.761 460.927 471.687 462.73C471.672 463.147 471.582 463.579 471.389 464.011C471.195 464.458 470.897 464.905 470.465 465.367H467.634C467.097 464.801 466.769 464.235 466.59 463.684C466.486 463.356 466.427 463.043 466.412 462.73C466.337 460.927 467.634 459.556 467.634 459.556C467.783 459.109 467.842 458.707 467.812 458.319C467.768 457.351 467.261 456.561 466.635 455.935C465.503 454.818 463.968 454.251 463.968 454.251C463.968 454.251 462.433 454.818 461.301 455.935C460.675 456.561 460.168 457.351 460.124 458.319C460.109 458.707 460.153 459.124 460.302 459.556C460.302 459.556 461.599 460.927 461.524 462.73C461.494 463.237 461.36 463.788 461.062 464.354C460.883 464.697 460.63 465.025 460.317 465.367H457.486C456.95 464.801 456.622 464.235 456.443 463.684C456.339 463.356 456.279 463.043 456.264 462.73C456.19 460.927 457.486 459.556 457.486 459.556C457.635 459.109 457.695 458.707 457.665 458.319C457.62 457.351 457.114 456.561 456.488 455.935C455.355 454.818 453.82 454.251 453.82 454.251C453.82 454.251 452.286 454.818 451.153 455.935C450.527 456.561 450.021 457.351 449.976 458.319C449.961 458.707 450.006 459.124 450.155 459.556C450.155 459.556 451.451 460.927 451.377 462.73C451.347 463.237 451.213 463.788 450.915 464.354C450.736 464.697 450.483 465.025 450.17 465.367H447.339C447.011 465.025 446.772 464.682 446.594 464.354C446.281 463.788 446.147 463.251 446.132 462.73C446.057 460.927 447.354 459.556 447.354 459.556C447.503 459.109 447.562 458.707 447.532 458.319C447.488 457.351 446.981 456.561 446.355 455.935C445.223 454.818 443.688 454.251 443.688 454.251C443.688 454.251 442.153 454.818 441.021 455.935C440.395 456.561 439.888 457.351 439.843 458.319C439.829 458.707 439.873 459.124 440.022 459.556C440.022 459.556 441.319 460.927 441.244 462.73C441.229 463.147 441.14 463.579 440.946 464.011C440.752 464.458 440.454 464.905 440.022 465.367H437.191C436.863 465.025 436.625 464.682 436.446 464.354C436.133 463.788 435.999 463.251 435.984 462.73C435.91 460.927 437.206 459.556 437.206 459.556C437.355 459.109 437.415 458.707 437.385 458.319C437.34 457.351 436.833 456.561 436.208 455.935C435.075 454.818 433.54 454.251 433.54 454.251C433.54 454.251 432.006 454.818 430.873 455.935C430.247 456.561 429.741 457.351 429.696 458.319C429.681 458.707 429.726 459.124 429.875 459.556C429.875 459.556 431.171 460.927 431.097 462.73C431.082 463.147 430.992 463.579 430.799 464.011C430.605 464.458 430.307 464.905 429.875 465.367H427.044C426.507 464.801 426.179 464.235 426.001 463.684C425.896 463.356 425.837 463.043 425.822 462.73C425.747 460.927 427.044 459.556 427.044 459.556C427.193 459.109 427.252 458.707 427.222 458.319C427.178 457.351 426.671 456.561 426.045 455.935C424.913 454.818 423.378 454.251 423.378 454.251C423.378 454.251 421.843 454.818 420.711 455.935C420.085 456.561 419.578 457.351 419.534 458.319C419.519 458.707 419.563 459.124 419.712 459.556C419.712 459.556 421.009 460.927 420.934 462.73C420.919 463.147 420.83 463.579 420.636 464.011C420.443 464.458 420.145 464.905 419.727 465.367H416.896C416.36 464.801 416.032 464.235 415.853 463.684C415.749 463.356 415.689 463.043 415.674 462.73C415.6 460.927 416.896 459.556 416.896 459.556C417.045 459.109 417.105 458.707 417.075 458.319C417.03 457.351 416.524 456.561 415.898 455.935C414.765 454.818 413.231 454.251 413.231 454.251C413.231 454.251 411.696 454.818 410.563 455.935C409.937 456.561 409.431 457.351 409.386 458.319C409.371 458.707 409.416 459.124 409.565 459.556C409.565 459.556 410.861 460.927 410.787 462.73C410.757 463.237 410.623 463.788 410.325 464.354C410.146 464.697 409.893 465.025 409.565 465.367H406.734C406.406 465.025 406.168 464.682 405.974 464.354C405.661 463.788 405.527 463.251 405.512 462.73C405.437 460.927 406.734 459.556 406.734 459.556C406.883 459.109 406.942 458.707 406.913 458.319C406.868 457.351 406.361 456.561 405.735 455.935C404.603 454.818 403.068 454.251 403.068 454.251C403.068 454.251 401.533 454.818 400.401 455.935C399.775 456.561 399.269 457.351 399.224 458.319C399.209 458.707 399.254 459.124 399.403 459.556C399.403 459.556 400.699 460.927 400.624 462.73C400.595 463.237 400.461 463.788 400.163 464.354C399.984 464.697 399.73 465.025 399.403 465.367H396.571C396.244 465.025 396.005 464.682 395.812 464.354C395.499 463.788 395.364 463.251 395.35 462.73C395.275 460.927 396.571 459.556 396.571 459.556C396.72 459.109 396.78 458.707 396.75 458.319C396.706 457.351 396.199 456.561 395.573 455.935C394.441 454.818 392.906 454.251 392.906 454.251C392.906 454.251 391.371 454.818 390.239 455.935C389.613 456.561 389.106 457.351 389.061 458.319C389.047 458.707 389.091 459.124 389.24 459.556C389.24 459.556 390.537 460.927 390.462 462.73C390.447 463.147 390.358 463.579 390.164 464.011C389.97 464.458 389.672 464.905 389.24 465.367H386.409C385.873 464.801 385.545 464.235 385.366 463.684C385.262 463.356 385.202 463.043 385.187 462.73C385.113 460.927 386.409 459.556 386.409 459.556C386.558 459.109 386.618 458.707 386.588 458.319C386.543 457.351 386.037 456.561 385.411 455.935C384.278 454.818 382.743 454.251 382.743 454.251C382.743 454.251 381.209 454.818 380.076 455.935C379.45 456.561 378.944 457.351 378.899 458.319C378.884 458.707 378.929 459.124 379.078 459.556C379.078 459.556 380.374 460.927 380.3 462.73C380.285 463.147 380.195 463.579 380.002 464.011C379.808 464.458 379.51 464.905 379.078 465.367H376.247C375.71 464.801 375.382 464.235 375.204 463.684C375.099 463.356 375.04 463.043 375.025 462.73C374.95 460.927 376.247 459.556 376.247 459.556C376.396 459.109 376.455 458.707 376.426 458.319C376.381 457.351 375.874 456.561 375.248 455.935C374.116 454.818 372.581 454.251 372.581 454.251C372.581 454.251 371.046 454.818 369.914 455.935C369.288 456.561 368.781 457.351 368.737 458.319C368.722 458.707 368.766 459.124 368.915 459.556C368.915 459.556 370.212 460.927 370.137 462.73C370.108 463.237 369.973 463.788 369.675 464.354C369.497 464.697 369.243 465.025 368.915 465.367H366.084C365.548 464.801 365.22 464.235 365.041 463.684C364.937 463.356 364.877 463.043 364.862 462.73C364.788 460.927 366.084 459.556 366.084 459.556C366.233 459.109 366.293 458.707 366.263 458.319C366.218 457.351 365.712 456.561 365.086 455.935C363.954 454.818 362.419 454.251 362.419 454.251C362.419 454.251 360.884 454.818 359.751 455.935C359.126 456.561 358.619 457.351 358.574 458.319C358.559 458.707 358.604 459.124 358.753 459.556C358.753 459.556 360.049 460.927 359.975 462.73C359.945 463.237 359.811 463.788 359.513 464.354C359.334 464.697 359.081 465.025 358.768 465.367H355.937C355.803 465.218 355.684 465.084 355.579 464.935C355.43 464.742 355.311 464.548 355.207 464.369C354.894 463.803 354.745 463.251 354.73 462.73C354.67 461.553 355.207 460.569 355.579 460.018C355.788 459.72 355.937 459.556 355.937 459.556C356.086 459.109 356.145 458.707 356.116 458.319C356.086 457.723 355.877 457.187 355.579 456.71C355.4 456.427 355.177 456.159 354.939 455.935C353.806 454.818 352.271 454.251 352.271 454.251C352.271 454.251 350.736 454.818 349.604 455.935C348.978 456.561 348.472 457.351 348.427 458.319C348.412 458.707 348.457 459.124 348.606 459.556C348.606 459.556 349.902 460.927 349.828 462.73C349.813 463.147 349.723 463.579 349.529 464.011C349.336 464.458 349.038 464.905 348.606 465.367H345.774C345.447 465.025 345.208 464.682 345.029 464.354C344.717 463.788 344.582 463.251 344.568 462.73C344.493 460.927 345.789 459.556 345.789 459.556C345.938 459.109 345.998 458.707 345.968 458.319C345.923 457.351 345.417 456.561 344.791 455.935C343.659 454.818 342.124 454.251 342.124 454.251C342.124 454.251 340.589 454.818 339.457 455.935C338.831 456.561 338.324 457.351 338.279 458.319C338.264 458.707 338.309 459.124 338.458 459.556C338.458 459.556 339.755 460.927 339.68 462.73C339.665 463.147 339.576 463.579 339.382 464.011C339.188 464.458 338.89 464.905 338.458 465.367H335.627C335.091 464.801 334.763 464.235 334.584 463.684C334.48 463.356 334.42 463.043 334.405 462.73C334.331 460.927 335.627 459.556 335.627 459.556C335.776 459.109 335.836 458.707 335.806 458.319C335.761 457.351 335.254 456.561 334.629 455.935C333.496 454.818 331.961 454.251 331.961 454.251C331.961 454.251 330.427 454.818 329.294 455.935C328.668 456.561 328.162 457.351 328.117 458.319C328.102 458.707 328.147 459.124 328.296 459.556C328.296 459.556 329.592 460.927 329.518 462.73C329.503 463.147 329.413 463.579 329.22 464.011C329.026 464.458 328.728 464.905 328.296 465.367H325.465C325.39 465.293 325.331 465.203 325.256 465.129C324.556 464.309 324.273 463.49 324.243 462.73C324.183 461.374 324.898 460.271 325.256 459.794C325.375 459.645 325.465 459.541 325.465 459.541C325.614 459.094 325.673 458.692 325.643 458.304C325.614 457.813 325.465 457.381 325.256 456.978C325.047 456.591 324.779 456.233 324.466 455.92C323.334 454.803 321.799 454.236 321.799 454.236C321.799 454.236 320.264 454.803 319.132 455.92C318.506 456.546 317.999 457.336 317.955 458.304C317.94 458.692 317.984 459.109 318.133 459.541C318.133 459.541 319.43 460.912 319.355 462.715C319.325 463.222 319.191 463.773 318.893 464.339C318.715 464.682 318.461 465.01 318.133 465.352H315.302C314.974 465.01 314.736 464.667 314.557 464.339C314.244 463.773 314.11 463.237 314.095 462.715C314.021 460.912 315.317 459.541 315.317 459.541C315.466 459.094 315.526 458.692 315.496 458.304C315.451 457.336 314.945 456.546 314.319 455.92C313.186 454.803 311.652 454.236 311.652 454.236C311.652 454.236 310.117 454.803 308.984 455.92C308.358 456.546 307.852 457.336 307.807 458.304C307.792 458.692 307.837 459.109 307.986 459.541C307.986 459.541 309.282 460.912 309.208 462.715C309.178 463.222 309.044 463.773 308.746 464.339C308.567 464.682 308.314 465.01 307.986 465.352H305.155C304.827 465.01 304.589 464.667 304.395 464.339C304.082 463.773 303.948 463.237 303.933 462.715C303.858 460.912 305.155 459.541 305.155 459.541C305.304 459.094 305.363 458.692 305.334 458.304C305.289 457.336 304.782 456.546 304.156 455.92C303.784 455.548 303.367 455.235 302.979 454.996C302.19 454.49 301.504 454.236 301.504 454.236C301.504 454.236 299.969 454.803 298.837 455.92C298.211 456.546 297.704 457.336 297.66 458.304C297.645 458.692 297.689 459.109 297.838 459.541C297.838 459.541 299.135 460.912 299.06 462.715C299.045 463.132 298.956 463.564 298.762 463.996C298.569 464.444 298.271 464.891 297.838 465.352H295.007C294.471 464.786 294.143 464.22 293.964 463.669C293.86 463.341 293.8 463.028 293.785 462.715C293.711 460.912 295.007 459.541 295.007 459.541C295.156 459.094 295.216 458.692 295.186 458.304C295.141 457.336 294.635 456.546 294.009 455.92C292.876 454.803 291.342 454.236 291.342 454.236C291.342 454.236 289.807 454.803 288.674 455.92C288.049 456.546 287.542 457.336 287.497 458.304C287.482 458.692 287.527 459.109 287.676 459.541C287.676 459.541 288.972 460.912 288.898 462.715C288.883 463.132 288.794 463.564 288.6 463.996C288.406 464.444 288.108 464.891 287.676 465.352H284.845C284.309 464.786 283.981 464.22 283.802 463.669C283.698 463.341 283.638 463.028 283.623 462.715C283.549 460.912 284.845 459.541 284.845 459.541C284.994 459.094 285.054 458.692 285.024 458.304C284.979 457.336 284.472 456.546 283.847 455.92C282.714 454.803 281.179 454.236 281.179 454.236C281.179 454.236 279.645 454.803 278.512 455.92C277.886 456.546 277.38 457.336 277.335 458.304C277.32 458.692 277.365 459.109 277.514 459.541C277.514 459.541 278.81 460.912 278.736 462.715C278.706 463.222 278.572 463.773 278.274 464.339C278.095 464.682 277.842 465.01 277.529 465.352H274.697C274.161 464.786 273.833 464.22 273.654 463.669C273.55 463.341 273.49 463.028 273.476 462.715C273.401 460.912 274.697 459.541 274.697 459.541C274.802 459.228 274.861 458.945 274.876 458.662C274.876 458.528 274.876 458.379 274.876 458.245C274.861 457.977 274.802 457.723 274.727 457.485C274.653 457.246 274.534 457.023 274.414 456.799C274.221 456.472 273.982 456.188 273.714 455.92C273.625 455.831 273.535 455.756 273.446 455.667C273.178 455.429 272.88 455.22 272.611 455.026C272.433 454.907 272.239 454.803 272.075 454.698V427.489H272.433C272.433 427.489 272.433 427.177 272.477 426.64C272.492 426.461 272.507 426.268 272.537 426.044C272.537 425.94 272.567 425.821 272.582 425.701C272.611 425.463 272.656 425.21 272.716 424.941C272.79 424.539 272.894 424.122 273.029 423.675C273.118 423.377 273.207 423.079 273.327 422.781C273.491 422.319 273.684 421.857 273.923 421.41C274.087 421.112 274.25 420.814 274.444 420.516C275.025 419.652 275.755 418.847 276.709 418.221C277.022 418.013 277.365 417.834 277.737 417.67C278.095 417.506 278.497 417.372 278.914 417.267C279.123 417.208 279.332 417.163 279.555 417.118V411.695H273.744V396.034H279.555V392.726H275.085V386.676C275.085 386.303 275.04 385.916 274.951 385.558C274.861 385.201 274.727 384.828 274.548 384.471C274.37 384.113 274.176 383.755 273.923 383.413C273.684 383.07 273.416 382.727 273.118 382.399C271.792 380.924 269.974 379.598 268.216 378.54C267.828 378.302 267.441 378.078 267.053 377.87C266.681 377.661 266.308 377.467 265.951 377.274C265.072 376.812 264.282 376.439 263.686 376.171C262.971 375.843 262.523 375.679 262.523 375.679L261.093 365.8L259.663 375.679C259.663 375.679 259.216 375.858 258.5 376.171C257.904 376.439 257.114 376.812 256.235 377.274C255.878 377.452 255.52 377.661 255.133 377.87C254.76 378.078 254.373 378.302 253.97 378.54C252.212 379.613 250.394 380.924 249.068 382.399C248.77 382.727 248.502 383.07 248.263 383.413C248.025 383.755 247.816 384.113 247.638 384.471C247.474 384.828 247.325 385.186 247.235 385.558C247.146 385.931 247.101 386.303 247.101 386.676V392.726H242.631V396.034H248.442V411.695H242.631V417.118C242.854 417.163 243.063 417.208 243.272 417.267C243.689 417.372 244.076 417.521 244.449 417.67C244.806 417.834 245.149 418.013 245.477 418.221C246.431 418.847 247.161 419.637 247.742 420.516C247.936 420.799 248.099 421.112 248.263 421.41C248.502 421.857 248.696 422.319 248.859 422.781C248.964 423.079 249.068 423.392 249.157 423.675C249.292 424.122 249.381 424.539 249.47 424.941C249.53 425.21 249.56 425.463 249.604 425.701C249.619 425.821 249.634 425.94 249.649 426.044C249.679 426.268 249.694 426.461 249.709 426.64C249.753 427.162 249.753 427.489 249.753 427.489H249.768V553.118H857.589V427.489H857.603C857.603 427.489 857.603 427.177 857.648 426.64C857.663 426.461 857.678 426.268 857.708 426.044C857.708 425.94 857.738 425.821 857.752 425.701C857.782 425.463 857.827 425.21 857.887 424.941C857.961 424.539 858.065 424.122 858.199 423.675C858.289 423.377 858.378 423.079 858.497 422.781C858.661 422.319 858.855 421.857 859.093 421.41C859.257 421.112 859.421 420.814 859.615 420.516C860.196 419.652 860.926 418.847 861.88 418.221C862.193 418.013 862.536 417.834 862.908 417.67C863.266 417.506 863.668 417.372 864.085 417.267C864.294 417.208 864.503 417.163 864.726 417.118V411.695H858.915V396.034H864.726V392.726H860.256L859.69 392.681ZM848.156 395.989H853.491V411.65H848.156V395.989ZM837.949 395.989H843.284V411.65H837.949V395.989ZM805.212 509.146C807.253 507.82 809.772 506.821 812.797 506.717C815.822 506.821 818.34 507.82 820.381 509.146C820.783 509.414 821.171 509.682 821.543 509.98C823.391 511.411 824.762 513.05 825.656 514.346C825.835 514.6 825.999 514.853 826.148 515.077C826.297 515.3 826.416 515.509 826.52 515.688C826.848 516.239 826.997 516.567 826.997 516.567V547.993H798.566V516.567C798.566 516.567 798.73 516.239 799.043 515.688C799.147 515.509 799.281 515.3 799.416 515.077C799.565 514.853 799.729 514.615 799.907 514.346C800.816 513.065 802.172 511.411 804.02 509.98C804.393 509.697 804.78 509.414 805.182 509.146H805.212ZM764.101 509.98C764.473 509.697 764.861 509.414 765.263 509.146C767.304 507.82 769.823 506.821 772.847 506.717C775.872 506.821 778.391 507.82 780.432 509.146C780.834 509.414 781.222 509.682 781.594 509.98C783.442 511.411 784.813 513.05 785.707 514.346C785.886 514.6 786.05 514.853 786.199 515.077C786.348 515.3 786.467 515.509 786.571 515.688C786.899 516.239 787.048 516.567 787.048 516.567V547.993H758.617V516.567C758.617 516.567 758.781 516.239 759.094 515.688C759.198 515.509 759.332 515.3 759.466 515.077C759.601 514.853 759.779 514.615 759.958 514.346C760.867 513.065 762.223 511.411 764.071 509.98H764.101ZM718.683 547.978V516.552C718.683 516.552 718.847 516.224 719.16 515.673C719.264 515.494 719.398 515.285 719.532 515.062C719.681 514.838 719.845 514.6 720.024 514.332C720.933 513.05 722.304 511.396 724.137 509.966C724.509 509.682 724.897 509.399 725.299 509.131C727.34 507.805 729.859 506.807 732.883 506.702C735.908 506.807 738.426 507.805 740.468 509.131C740.87 509.399 741.258 509.668 741.63 509.966C743.478 511.396 744.849 513.035 745.743 514.332C745.922 514.585 746.086 514.838 746.235 515.062C746.384 515.285 746.503 515.494 746.607 515.673C746.935 516.224 747.084 516.552 747.084 516.552V547.978H718.653H718.683ZM678.734 547.978V516.552C678.734 516.552 678.898 516.224 679.211 515.673C679.315 515.494 679.449 515.285 679.583 515.062C679.717 514.838 679.896 514.6 680.075 514.332C680.984 513.05 682.355 511.396 684.188 509.966C684.56 509.682 684.947 509.399 685.35 509.131C687.391 507.805 689.909 506.807 692.934 506.702C695.959 506.807 698.477 507.805 700.519 509.131C700.921 509.399 701.309 509.668 701.681 509.966C703.529 511.396 704.9 513.035 705.794 514.332C705.973 514.585 706.136 514.838 706.285 515.062C706.434 515.285 706.554 515.494 706.658 515.673C706.986 516.224 707.135 516.552 707.135 516.552V547.978H678.704H678.734ZM640.141 514.346C641.05 513.065 642.42 511.411 644.253 509.98C644.626 509.697 645.013 509.414 645.415 509.146C647.457 507.82 649.975 506.821 653 506.717C656.025 506.821 658.543 507.82 660.585 509.146C660.987 509.414 661.374 509.682 661.747 509.98C663.595 511.411 664.965 513.05 665.859 514.346C666.038 514.6 666.202 514.853 666.351 515.077C666.5 515.3 666.619 515.509 666.724 515.688C667.051 516.239 667.201 516.567 667.201 516.567V547.993H638.77V516.567C638.77 516.567 638.934 516.239 639.247 515.688C639.351 515.509 639.485 515.3 639.619 515.077C639.753 514.853 639.932 514.615 640.111 514.346H640.141ZM514.437 547.978V462.536C514.437 462.536 515.644 460.018 518.103 456.516C518.594 455.816 519.131 455.086 519.727 454.311C520.323 453.536 520.964 452.761 521.664 451.957C522.364 451.152 523.109 450.332 523.899 449.513C527.088 446.22 531.096 442.912 535.954 440.364C537.772 439.41 539.709 438.561 541.78 437.86C542.466 437.622 543.166 437.413 543.881 437.205C545.312 436.802 546.787 436.475 548.322 436.236C549.856 435.998 551.451 435.834 553.09 435.774C554.729 435.834 556.323 435.983 557.858 436.236C559.393 436.475 560.868 436.802 562.299 437.205C563.014 437.398 563.714 437.622 564.4 437.86C566.456 438.561 568.393 439.41 570.226 440.364C575.083 442.912 579.092 446.235 582.281 449.513C583.07 450.332 583.83 451.152 584.516 451.957C585.216 452.761 585.857 453.551 586.453 454.311C587.049 455.071 587.585 455.816 588.077 456.516C590.536 460.018 591.743 462.536 591.743 462.536V547.978H514.452H514.437ZM614.988 387.719V379.241H617.044V387.719H614.988ZM618.922 387.719V379.241H620.978V387.719H618.922ZM489.21 388.107V379.628H491.266V388.107H489.21ZM485.276 388.107V379.628H487.332V388.107H485.276ZM461.971 509.98C463.819 511.411 465.19 513.05 466.084 514.346C466.263 514.6 466.427 514.853 466.576 515.077C466.725 515.3 466.844 515.509 466.948 515.688C467.276 516.239 467.425 516.567 467.425 516.567V547.993H438.994V516.567C438.994 516.567 439.158 516.239 439.471 515.688C439.575 515.509 439.709 515.3 439.843 515.077C439.978 514.853 440.156 514.615 440.335 514.346C441.244 513.065 442.615 511.411 444.448 509.98C444.82 509.697 445.208 509.414 445.61 509.146C447.652 507.82 450.17 506.821 453.195 506.717C456.22 506.821 458.738 507.82 460.779 509.146C461.182 509.414 461.569 509.682 461.941 509.98H461.971ZM399.06 547.978V516.552C399.06 516.552 399.224 516.224 399.537 515.673C399.641 515.494 399.775 515.285 399.909 515.062C400.058 514.838 400.222 514.6 400.401 514.332C401.31 513.05 402.681 511.396 404.514 509.966C404.886 509.682 405.274 509.399 405.676 509.131C407.717 507.805 410.236 506.807 413.26 506.702C416.285 506.807 418.803 507.805 420.845 509.131C421.247 509.399 421.635 509.668 422.007 509.966C423.855 511.396 425.226 513.035 426.12 514.332C426.299 514.585 426.463 514.838 426.612 515.062C426.761 515.285 426.88 515.494 426.984 515.673C427.312 516.224 427.461 516.552 427.461 516.552V547.978H399.03H399.06ZM359.111 547.978V516.552C359.111 516.552 359.275 516.224 359.588 515.673C359.692 515.494 359.826 515.285 359.96 515.062C360.094 514.838 360.273 514.6 360.452 514.332C361.361 513.05 362.732 511.396 364.564 509.966C364.937 509.682 365.324 509.399 365.727 509.131C367.768 507.805 370.286 506.807 373.311 506.702C376.336 506.807 378.854 507.805 380.896 509.131C381.298 509.399 381.685 509.668 382.058 509.966C383.906 511.396 385.277 513.035 386.171 514.332C386.349 514.585 386.513 514.838 386.662 515.062C386.811 515.285 386.931 515.494 387.035 515.673C387.363 516.224 387.512 516.552 387.512 516.552V547.978H359.081H359.111ZM340.962 509.146C341.364 509.414 341.751 509.682 342.124 509.98C343.971 511.411 345.342 513.05 346.236 514.346C346.415 514.6 346.579 514.853 346.728 515.077C346.877 515.3 346.996 515.509 347.101 515.688C347.428 516.239 347.577 516.567 347.577 516.567V547.993H319.147V516.567C319.147 516.567 319.311 516.239 319.623 515.688C319.728 515.509 319.862 515.3 319.996 515.077C320.145 514.853 320.309 514.615 320.488 514.346C321.397 513.065 322.753 511.411 324.6 509.98C324.973 509.697 325.36 509.414 325.763 509.146C327.804 507.82 330.322 506.821 333.347 506.717C336.372 506.821 338.89 507.82 340.932 509.146H340.962ZM279.227 516.552C279.227 516.552 279.391 516.224 279.704 515.673C279.808 515.494 279.943 515.285 280.077 515.062C280.211 514.838 280.39 514.6 280.568 514.332C281.477 513.05 282.848 511.396 284.681 509.966C285.054 509.682 285.441 509.399 285.843 509.131C287.885 507.805 290.403 506.807 293.428 506.702C296.453 506.807 298.971 507.805 301.012 509.131C301.415 509.399 301.802 509.668 302.175 509.966C304.022 511.396 305.393 513.035 306.287 514.332C306.466 514.585 306.63 514.838 306.779 515.062C306.928 515.285 307.047 515.494 307.152 515.673C307.479 516.224 307.628 516.552 307.628 516.552V547.978H279.198V516.552H279.227ZM262.971 395.989H268.305V411.65H262.971V395.989ZM252.763 395.989H258.098V411.65H252.763V395.989Z" fill="#DD0031"/>
<path d="M779.776 463.029H779.985C780.209 462.448 780.075 461.911 779.881 461.509C779.672 461.911 779.553 462.448 779.776 463.029Z" fill="#DD0031"/>
<path d="M336.639 463.029C336.863 462.448 336.729 461.911 336.535 461.509C336.326 461.911 336.207 462.448 336.431 463.029H336.639Z" fill="#DD0031"/>
<path d="M840.87 398.239H840.363V409.415H840.87V398.239Z" fill="#DD0031"/>
<path d="M820.633 463.029C820.857 462.448 820.723 461.911 820.529 461.509C820.321 461.911 820.201 462.448 820.425 463.029H820.633Z" fill="#DD0031"/>
<path d="M810.263 463.029H810.471C810.695 462.448 810.561 461.911 810.367 461.509C810.159 461.911 810.039 462.448 810.263 463.029Z" fill="#DD0031"/>
<path d="M769.837 463.029C770.06 462.448 769.926 461.911 769.732 461.509C769.524 461.911 769.405 462.448 769.628 463.029H769.837Z" fill="#DD0031"/>
<path d="M326.269 463.029H326.477C326.701 462.448 326.567 461.911 326.373 461.509C326.164 461.911 326.045 462.448 326.269 463.029Z" fill="#DD0031"/>
<path d="M851.077 398.239H850.57V409.415H851.077V398.239Z" fill="#DD0031"/>
<path d="M830.691 461.523C830.483 461.926 830.364 462.462 830.587 463.043H830.796C831.019 462.462 830.885 461.926 830.691 461.523Z" fill="#DD0031"/>
<path d="M448.202 463.029H448.411C448.634 462.448 448.5 461.911 448.307 461.509C448.098 461.911 447.979 462.448 448.202 463.029Z" fill="#DD0031"/>
<path d="M275.456 463.029H275.665C275.888 462.448 275.754 461.911 275.56 461.509C275.352 461.911 275.233 462.448 275.456 463.029Z" fill="#DD0031"/>
<path d="M458.589 463.029C458.812 462.448 458.678 461.911 458.484 461.509C458.276 461.911 458.156 462.448 458.38 463.029H458.589Z" fill="#DD0031"/>
<path d="M285.829 463.029C286.052 462.448 285.918 461.911 285.725 461.509C285.516 461.911 285.397 462.448 285.62 463.029H285.829Z" fill="#DD0031"/>
<path d="M637.727 463.029C637.951 462.448 637.817 461.911 637.623 461.509C637.414 461.911 637.295 462.448 637.519 463.029H637.727Z" fill="#DD0031"/>
<path d="M478.913 463.029C479.136 462.448 479.002 461.911 478.809 461.509C478.6 461.911 478.481 462.448 478.704 463.029H478.913Z" fill="#DD0031"/>
<path d="M295.782 463.029H295.991C296.214 462.448 296.08 461.911 295.887 461.509C295.678 461.911 295.559 462.448 295.782 463.029Z" fill="#DD0031"/>
<path d="M647.889 463.029C648.113 462.448 647.979 461.911 647.785 461.509C647.576 461.911 647.457 462.448 647.681 463.029H647.889Z" fill="#DD0031"/>
<path d="M346.802 463.029C347.025 462.448 346.891 461.911 346.697 461.509C346.489 461.911 346.369 462.448 346.593 463.029H346.802Z" fill="#DD0031"/>
<path d="M657.843 463.029H658.051C658.275 462.448 658.141 461.911 657.947 461.509C657.739 461.911 657.619 462.448 657.843 463.029Z" fill="#DD0031"/>
<path d="M627.563 463.029C627.787 462.448 627.653 461.911 627.459 461.509C627.25 461.911 627.131 462.448 627.355 463.029H627.563Z" fill="#DD0031"/>
<path d="M759.675 463.029C759.898 462.448 759.764 461.911 759.57 461.509C759.362 461.911 759.242 462.448 759.466 463.029H759.675Z" fill="#DD0031"/>
<path d="M468.751 463.029C468.974 462.448 468.84 461.911 468.646 461.509C468.438 461.911 468.319 462.448 468.542 463.029H468.751Z" fill="#DD0031"/>
<path d="M553.104 438.024C530.485 438.889 518.564 459.839 516.865 463.043V545.728H589.343V463.043C587.644 459.839 575.724 438.889 553.104 438.024ZM538.382 541.198V507.358C538.382 498.745 552.523 494.454 553.119 494.29C553.194 494.32 553.492 494.409 553.939 494.558C554.088 494.603 554.251 494.663 554.445 494.737C554.609 494.797 554.788 494.856 554.982 494.931C555.429 495.095 555.935 495.303 556.487 495.542C556.874 495.706 557.291 495.899 557.723 496.093C557.947 496.197 558.155 496.302 558.379 496.406C558.573 496.51 558.781 496.6 558.975 496.704C559.452 496.957 559.944 497.225 560.45 497.509C561.031 497.851 561.627 498.224 562.194 498.626C562.954 499.163 563.684 499.729 564.354 500.37C566.366 502.247 567.841 504.586 567.841 507.358V541.198H538.337H538.382Z" fill="#DD0031"/>
<path d="M800.101 463.029H800.309C800.533 462.448 800.399 461.911 800.205 461.509C799.996 461.911 799.877 462.448 800.101 463.029Z" fill="#DD0031"/>
<path d="M789.939 463.029H790.147C790.371 462.448 790.237 461.911 790.043 461.509C789.834 461.911 789.715 462.448 789.939 463.029Z" fill="#DD0031"/>
<path d="M781.489 449.782H781.846V453.239C782.621 452.703 783.411 452.315 784.066 452.077L784.96 451.749L785.855 452.077C787.121 452.554 788.894 453.567 790.042 455.057C791.204 453.552 792.962 452.539 794.229 452.077L795.123 451.749L796.017 452.077C797.283 452.554 799.057 453.567 800.204 455.057C801.292 453.641 802.901 452.673 804.153 452.166V449.782H804.168C804.168 449.782 804.168 440.692 811.275 439.426V434.002H805.464V418.341H811.275V415.033H806.805V408.983C806.805 402.934 794.259 397.987 794.259 397.987L792.828 388.107L791.398 397.987C791.398 397.987 778.851 402.934 778.851 408.983V415.033H774.381V418.341H780.192V434.002H774.381V439.426C781.489 440.707 781.489 449.782 781.489 449.782Z" fill="#DD0031"/>
<path d="M302.084 449.782H302.442V452.315C303.634 452.851 305.05 453.775 306.048 455.057C307.21 453.552 308.968 452.538 310.235 452.076L311.129 451.749L312.023 452.076C313.29 452.553 315.063 453.567 316.21 455.057C317.373 453.552 319.131 452.538 320.397 452.076L321.291 451.749L322.185 452.076C322.945 452.36 323.884 452.836 324.748 453.492V449.797H324.763C324.763 449.797 324.763 440.707 331.871 439.441V434.017H326.06V418.356H331.871V415.048H327.401V408.998C327.401 402.948 314.854 398.001 314.854 398.001L313.424 388.122L311.993 398.001C311.993 398.001 299.447 402.948 299.447 408.998V415.048H294.977V418.356H300.788V434.017H294.977V439.441C302.084 440.722 302.084 449.797 302.084 449.797V449.782Z" fill="#DD0031"/>
<path d="M305.944 463.029H306.153C306.377 462.448 306.242 461.911 306.049 461.509C305.84 461.911 305.721 462.448 305.944 463.029Z" fill="#DD0031"/>
<path d="M316.107 463.029H316.315C316.539 462.448 316.405 461.911 316.211 461.509C316.002 461.911 315.883 462.448 316.107 463.029Z" fill="#DD0031"/>
<path d="M417.716 463.029H417.925C418.148 462.448 418.014 461.911 417.82 461.509C417.612 461.911 417.492 462.448 417.716 463.029Z" fill="#DD0031"/>
<path d="M407.568 463.029H407.776C408 462.448 407.865 461.911 407.672 461.509C407.463 461.911 407.344 462.448 407.568 463.029Z" fill="#DD0031"/>
<path d="M427.878 463.029H428.087C428.31 462.448 428.176 461.911 427.982 461.509C427.774 461.911 427.655 462.448 427.878 463.029Z" fill="#DD0031"/>
<path d="M355.072 451.436V453.373C355.713 453.835 356.339 454.401 356.845 455.056C358.008 453.551 359.766 452.538 361.033 452.076L361.927 451.748L362.821 452.076C364.087 452.553 365.86 453.566 367.008 455.056C368.17 453.551 369.928 452.538 371.195 452.076L372.089 451.748L372.983 452.076C374.25 452.553 376.023 453.566 377.17 455.056C378.332 453.551 380.091 452.538 381.357 452.076L382.251 451.748L383.145 452.076C384.412 452.553 386.185 453.566 387.332 455.056C388.495 453.551 390.253 452.538 391.52 452.076L392.414 451.748L393.308 452.076C394.574 452.553 396.348 453.566 397.495 455.056C398.657 453.551 400.415 452.538 401.682 452.076L402.576 451.748L403.47 452.076C404.737 452.553 406.51 453.566 407.657 455.056C408.82 453.551 410.578 452.538 411.844 452.076L412.738 451.748L413.632 452.076C414.899 452.553 416.672 453.566 417.82 455.056C418.982 453.551 420.74 452.538 422.007 452.076L422.901 451.748L423.795 452.076C425.061 452.553 426.835 453.566 427.982 455.056C429.144 453.551 430.903 452.538 432.169 452.076L433.063 451.748L433.957 452.076C435.224 452.553 436.997 453.566 438.144 455.056C439.307 453.551 441.065 452.538 442.331 452.076L443.226 451.748L444.12 452.076C445.029 452.419 446.191 453.03 447.204 453.909V451.704C449.171 447.055 450.244 442.018 450.244 436.773C450.244 418.862 437.757 403.529 420.01 397.048H421.873C421.873 397.048 410.28 390.551 406.197 383.398C406.197 383.398 405.094 381.849 402.561 381.402V378.526C404.096 378.034 405.199 376.753 405.199 375.233C405.199 373.713 404.096 372.431 402.561 371.94V368.304C404.096 368.095 405.199 367.529 405.199 366.873C405.199 366.218 404.066 365.651 402.487 365.443L401.19 354.982L399.894 365.443C398.314 365.651 397.182 366.218 397.182 366.873C397.182 367.529 398.285 368.08 399.819 368.304V371.94C398.285 372.431 397.182 373.713 397.182 375.233C397.182 376.753 398.285 378.034 399.819 378.526V381.402C397.271 381.849 396.184 383.398 396.184 383.398C392.101 390.551 380.508 397.048 380.508 397.048H382.371C364.624 403.514 352.137 418.862 352.137 436.773C352.137 441.929 353.18 446.876 355.072 451.45V451.436Z" fill="#DD0031"/>
<path d="M366.919 463.029H367.128C367.351 462.448 367.217 461.911 367.023 461.509C366.815 461.911 366.696 462.448 366.919 463.029Z" fill="#DD0031"/>
<path d="M438.04 463.029H438.249C438.472 462.448 438.338 461.911 438.144 461.509C437.936 461.911 437.817 462.448 438.04 463.029Z" fill="#DD0031"/>
<path d="M377.081 463.029H377.29C377.513 462.448 377.379 461.911 377.185 461.509C376.977 461.911 376.858 462.448 377.081 463.029Z" fill="#DD0031"/>
<path d="M387.243 463.029H387.452C387.675 462.448 387.541 461.911 387.348 461.509C387.139 461.911 387.02 462.448 387.243 463.029Z" fill="#DD0031"/>
<path d="M397.405 463.029H397.614C397.837 462.448 397.703 461.911 397.51 461.509C397.301 461.911 397.182 462.448 397.405 463.029Z" fill="#DD0031"/>
<path d="M356.757 463.029H356.966C357.189 462.448 357.055 461.911 356.861 461.509C356.653 461.911 356.533 462.448 356.757 463.029Z" fill="#DD0031"/>
<path d="M728.964 463.029H729.173C729.396 462.448 729.262 461.911 729.068 461.509C728.86 461.911 728.74 462.448 728.964 463.029Z" fill="#DD0031"/>
<path d="M718.802 463.029H719.01C719.234 462.448 719.1 461.911 718.906 461.509C718.698 461.911 718.578 462.448 718.802 463.029Z" fill="#DD0031"/>
<path d="M749.288 463.029H749.497C749.72 462.448 749.586 461.911 749.393 461.509C749.184 461.911 749.065 462.448 749.288 463.029Z" fill="#DD0031"/>
<path d="M739.126 463.029H739.335C739.558 462.448 739.424 461.911 739.23 461.509C739.022 461.911 738.903 462.448 739.126 463.029Z" fill="#DD0031"/>
<path d="M668.005 463.029H668.214C668.437 462.448 668.303 461.911 668.109 461.509C667.901 461.911 667.782 462.448 668.005 463.029Z" fill="#DD0031"/>
<path d="M678.167 463.029H678.376C678.599 462.448 678.465 461.911 678.271 461.509C678.063 461.911 677.944 462.448 678.167 463.029Z" fill="#DD0031"/>
<path d="M708.64 463.029H708.848C709.072 462.448 708.938 461.911 708.744 461.509C708.535 461.911 708.416 462.448 708.64 463.029Z" fill="#DD0031"/>
<path d="M688.329 463.029H688.538C688.761 462.448 688.627 461.911 688.434 461.509C688.225 461.911 688.106 462.448 688.329 463.029Z" fill="#DD0031"/>
<path d="M698.491 463.029H698.7C698.923 462.448 698.789 461.911 698.596 461.509C698.387 461.911 698.268 462.448 698.491 463.029Z" fill="#DD0031"/>
<path d="M658.945 451.436V453.999C659.973 453.075 661.195 452.419 662.134 452.077L663.028 451.749L663.922 452.077C665.189 452.553 666.962 453.567 668.109 455.057C669.272 453.552 671.03 452.539 672.296 452.077L673.19 451.749L674.084 452.077C675.351 452.553 677.124 453.567 678.272 455.057C679.434 453.552 681.192 452.539 682.459 452.077L683.353 451.749L684.247 452.077C685.513 452.553 687.287 453.567 688.434 455.057C689.596 453.552 691.355 452.539 692.621 452.077L693.515 451.749L694.409 452.077C695.676 452.553 697.449 453.567 698.596 455.057C699.759 453.552 701.517 452.539 702.784 452.077L703.678 451.749L704.572 452.077C705.838 452.553 707.611 453.567 708.759 455.057C709.921 453.552 711.679 452.539 712.946 452.077L713.84 451.749L714.734 452.077C716.001 452.553 717.774 453.567 718.921 455.057C720.083 453.552 721.842 452.539 723.108 452.077L724.002 451.749L724.896 452.077C726.163 452.553 727.936 453.567 729.083 455.057C730.246 453.552 732.004 452.539 733.271 452.077L734.165 451.749L735.059 452.077C736.325 452.553 738.099 453.567 739.246 455.057C740.408 453.552 742.166 452.539 743.433 452.077L744.327 451.749L745.221 452.077C746.488 452.553 748.261 453.567 749.408 455.057C749.885 454.431 750.466 453.909 751.077 453.447V451.689C753.044 447.04 754.117 442.004 754.117 436.759C754.117 418.848 741.63 403.515 723.883 397.033H725.746C725.746 397.033 714.153 390.536 710.07 383.384C710.07 383.384 708.967 381.834 706.434 381.387V378.511C707.969 378.019 709.072 376.738 709.072 375.218C709.072 373.698 707.969 372.417 706.434 371.925V368.289C707.969 368.081 709.072 367.514 709.072 366.859C709.072 366.203 707.939 365.637 706.36 365.428L705.063 354.968L703.767 365.428C702.202 365.637 701.055 366.203 701.055 366.859C701.055 367.514 702.158 368.066 703.692 368.289V371.925C702.158 372.417 701.055 373.698 701.055 375.218C701.055 376.738 702.158 378.019 703.692 378.511V381.387C701.144 381.834 700.057 383.384 700.057 383.384C695.974 390.536 684.381 397.033 684.381 397.033H686.244C668.497 403.5 656.01 418.848 656.01 436.759C656.01 441.914 657.053 446.861 658.945 451.436Z" fill="#DD0031"/>
<path d="M497.792 388.107V392.756L496.019 393.203C495.691 393.382 495.304 394.41 495.125 395.572V397.867C495.81 398.299 496.406 398.776 496.883 399.297C497.867 398.224 499.238 397.39 500.668 396.883L501.532 396.585L502.397 396.883C503.827 397.39 505.183 398.224 506.167 399.297C507.15 398.224 508.521 397.39 509.936 396.883L510.801 396.585L511.665 396.883C513.095 397.39 514.451 398.224 515.435 399.297C516.418 398.224 517.789 397.39 519.205 396.883L520.069 396.585L520.933 396.883C522.364 397.39 523.72 398.224 524.703 399.297C525.687 398.224 527.058 397.39 528.473 396.883L529.337 396.585L530.202 396.883C531.632 397.39 532.988 398.224 533.972 399.297C534.955 398.224 536.326 397.39 537.741 396.883L538.606 396.585L539.47 396.883C540.9 397.39 542.256 398.224 543.24 399.297C544.223 398.224 545.594 397.39 547.01 396.883L547.874 396.585L548.738 396.883C550.169 397.39 551.525 398.224 552.508 399.297C553.492 398.224 554.862 397.39 556.278 396.883L557.142 396.585L558.007 396.883C559.437 397.39 560.793 398.224 561.776 399.297C562.76 398.224 564.131 397.39 565.546 396.883L566.411 396.585L567.275 396.883C568.705 397.39 570.061 398.224 571.045 399.297C572.028 398.224 573.399 397.39 574.815 396.883L575.679 396.585L576.543 396.883C577.974 397.39 579.33 398.224 580.313 399.297C581.297 398.224 582.667 397.39 584.083 396.883L584.947 396.585L585.812 396.883C587.242 397.39 588.598 398.224 589.581 399.297C590.565 398.224 591.936 397.39 593.351 396.883L594.216 396.585L595.08 396.883C596.51 397.39 597.866 398.224 598.85 399.297C599.833 398.224 601.204 397.39 602.62 396.883L603.484 396.585L604.348 396.883C605.779 397.39 607.135 398.224 608.118 399.297C608.953 398.388 610.04 397.658 611.217 397.152V395.185C611.054 394.007 610.651 392.979 610.338 392.815L608.55 392.368V385.469H610.785V381.476H608.55V375.203H610.279V374.368C603.782 362.045 591.906 352.211 577.184 347.01H579.553C579.553 347.01 564.786 338.994 559.586 330.172C559.586 330.172 558.185 328.25 554.952 327.714V324.152C556.919 323.541 558.319 321.962 558.319 320.084C558.319 318.207 556.919 316.627 554.952 316.016V311.531C556.919 311.263 558.319 310.578 558.319 309.773C558.319 308.968 556.874 308.253 554.862 308L553.208 295.096L551.554 308C549.558 308.253 548.098 308.953 548.098 309.773C548.098 310.593 549.498 311.278 551.465 311.531V316.016C549.498 316.627 548.098 318.207 548.098 320.084C548.098 321.962 549.498 323.541 551.465 324.152V327.714C548.232 328.25 546.831 330.172 546.831 330.172C541.631 338.994 526.864 347.01 526.864 347.01H529.233C514.511 352.211 502.635 362.03 496.138 374.353C496.138 374.428 496.138 374.487 496.138 374.547V375.59H497.867V381.863H495.632V385.857H497.867V388.107H497.792Z" fill="#DD0031"/>
<path d="M188.183 504.215C183.415 469.362 226.314 461.121 226.314 461.121C217.016 448.664 190.686 458.797 190.686 458.797C185.396 454.982 179.034 452.688 172.358 451.376C166.547 438.085 162.3 416.851 159.409 397.674V395.841H159.141C155.878 373.743 154.417 354.864 154.417 354.864C154.417 354.864 143.972 199.418 143.063 184.204C142.452 173.878 147.906 165.116 151.467 160.542H151.869V145.328H141.633C140.619 130.069 139.859 118.462 139.666 115.079C139.144 106.362 143.748 98.9714 146.744 95.127H147.086V82.2973H136.134V33.7355C136.045 26.1212 129.891 19.9373 122.157 19.5201H122.798V0H119.848V19.5201H120.488C112.755 19.9373 106.616 26.1212 106.511 33.7355V82.342H95.5591V95.1717H95.9019C98.9118 99.0161 103.501 106.407 102.98 115.124C102.771 118.506 102.011 130.114 101.013 145.373H90.776V160.586H91.1782C94.7395 165.146 100.193 173.908 99.5823 184.249C98.6734 199.463 88.2279 354.908 88.2279 354.908C88.2279 354.908 86.7677 373.788 83.5044 395.886H83.2362V397.718C80.3454 416.896 76.0987 438.129 70.2873 451.421C63.5969 452.717 57.2491 455.027 51.9593 458.842C51.9593 458.842 25.6295 448.709 16.3314 461.166C16.3314 461.166 59.2309 469.406 54.4626 504.259C49.6944 539.112 0 553.045 0 553.045H27.4176C27.4176 553.045 52.2722 531.394 58.1879 517.611C59.4246 514.735 61.6746 512.306 64.6846 510.995C66.9495 510.011 69.2294 509.728 69.9148 512.053C70.1979 512.976 70.0638 513.96 69.6614 514.839C67.1581 520.367 54.7457 545.728 35.0617 553.06H75.5771C75.5771 553.06 87.8256 527.713 89.8819 509.966C89.8819 509.966 93.2793 505.317 100.998 505.317C100.998 505.317 112.799 504.468 114.155 509.534C115.511 514.601 116.882 541.213 105.528 553.045H137.103C125.748 541.213 127.119 514.601 128.475 509.534C129.831 504.468 141.633 505.317 141.633 505.317C149.351 505.317 152.749 509.966 152.749 509.966C154.79 527.713 167.053 553.06 167.053 553.06H207.569C187.9 545.728 175.487 520.367 172.969 514.839C172.567 513.96 172.433 512.976 172.716 512.053C173.416 509.728 175.681 510.011 177.946 510.995C180.956 512.306 183.206 514.735 184.443 517.611C190.358 531.394 215.213 553.045 215.213 553.045H242.63C242.63 553.045 192.921 539.098 188.168 504.259L188.183 504.215ZM111.369 407.27H116.912V425.643H111.145L111.384 407.27H111.369ZM125.763 356.577V305.274H129.995L130.651 356.577H125.763ZM130.8 367.976L131.157 395.856H125.763V367.976H130.8ZM125.763 233.645H129.071L129.92 299.566H125.763V233.645ZM116.912 299.566H112.755L113.604 233.645H116.912V299.566ZM136.626 305.274H139.412L141.513 356.577H139.457C138.474 341.259 137.52 323.542 136.626 305.274ZM136.358 299.566C135.285 276.932 134.331 253.776 133.601 233.645H136.477L139.174 299.566H136.358ZM133.392 227.938C132.364 199.09 131.813 177.558 132.021 174.712C132.215 172.254 132.886 169.452 133.735 166.681L136.238 227.938H133.377H133.392ZM129.012 227.938H125.778V160.557H128.147L129.012 227.938ZM125.078 145.358V95.1568H127.298L127.939 145.358H125.078ZM117.612 145.358H114.751L115.392 95.1568H117.612V145.358ZM116.912 160.571V227.953H113.679L114.543 160.571H116.912ZM110.669 174.727C110.892 177.573 110.341 199.105 109.298 227.953H106.437L108.94 166.696C109.789 169.467 110.46 172.269 110.654 174.727H110.669ZM109.089 233.66C108.344 253.791 107.39 276.947 106.332 299.581H103.516L106.213 233.66H109.089ZM106.049 305.288C105.17 323.542 104.202 341.274 103.218 356.592H101.162L103.263 305.288H106.034H106.049ZM112.68 305.288H116.912V356.592H112.025L112.68 305.288ZM116.912 367.991V395.871H111.518L111.876 367.991H116.912ZM125.763 407.27H131.306L131.545 425.643H125.778V407.27H125.763ZM142.72 395.871C141.901 389.359 141.051 379.703 140.217 367.991H141.975L143.123 395.871H142.735H142.72ZM131.485 145.373C130.77 124.437 130.397 109.298 130.561 107.107C130.71 105.215 131.187 103.084 131.813 100.938L133.631 145.358H131.47L131.485 145.373ZM125.778 53.0768H116.927V39.7703H125.778V53.0768ZM116.927 58.0537H125.778V82.357H116.927V58.0537ZM110.877 100.953C111.503 103.084 111.995 105.215 112.129 107.122C112.293 109.298 111.935 124.437 111.205 145.388H109.044L110.862 100.968L110.877 100.953ZM100.715 367.991H102.473C101.639 379.703 100.789 389.359 99.9698 395.871H99.5823L100.73 367.991H100.715ZM110.803 452.464L110.952 440.871H116.912V453.746C115.228 453.358 113.157 452.911 110.803 452.464ZM125.763 453.746V440.871H131.723L131.872 452.464C129.518 452.911 127.447 453.358 125.763 453.746Z" fill="#DD0031"/>
</svg>
