<?xml version="1.0" encoding="utf-8"?>
<svg viewBox="-1655.482 -687.358 3503.54 2381.334" width="3503.54" height="2381.334" xmlns="http://www.w3.org/2000/svg">
  <g transform="matrix(1.333333, 0, 0, -1.333333, -1770.370728, 1836.641479)" id="g10">
    <g transform="scale(0.1)" id="g12">
      <g transform="scale(1.71779)" id="g14"/>
      <g transform="scale(1.6942)" id="g18">
        <path id="path20" style="fill:#d5f0ff;fill-opacity:1;fill-rule:evenodd;stroke:none" d="M 2823.93,8984.58 C 3901.46,10548.1 6663.02,11423.5 9732.72,11015 13497.2,10513.9 16300,8274.24 15995.7,6012.43 15846.6,4907.68 14983,4002.18 13703.3,3422.61 12623.8,1857.04 9864.23,981.7 6792.58,1390.21 3030.01,1891.28 225.281,4132.98 531.463,6394.76 680.632,7499.51 1542.27,8405.04 2823.93,8984.58 v 0"/>
      </g>
      <path id="path22" style="fill:#060352;fill-opacity:1;fill-rule:evenodd;stroke:none" d="m 13399.9,10285.8 c 297.8,832.4 646.3,1844.1 -297.8,1844.1 -399.3,0 -578.6,768.2 -1448.2,666.7 -186.2,-20.3 -541.5,-223.4 -734.3,-541.4 -115.1,-182.8 -673.4,-50.8 -768.2,-670 -37.2,-253.8 -189.46,-209.8 57.6,-1072.7 179.3,-632.8 -412.86,-1610.7 -443.32,-2047.2 -43.99,-697.1 -351.91,-663.2 -351.91,-1262.2 118.43,-304.5 866.23,-416.2 1671.63,-148.9 277.4,91.4 639.5,152.3 920.4,47.4 165.8,-60.9 720.7,-54.1 720.7,348.5 0,331.7 808.7,-429.7 653.1,906.9 -40.6,351.9 -331.6,-192.9 -331.6,920.4 0,375.6 88,159 351.9,1008.4 v 0"/>
      <g transform="scale(1.05272)" id="g24">
        <path id="path26" style="fill:#ff4d8a;fill-opacity:1;fill-rule:evenodd;stroke:none" d="m 11375.6,8128.2 v 0 c 713.6,-250.78 2031.5,-591.52 2266.1,-1057.55 L 16300,2069.12 c -292.5,-292.58 -578.6,-607.57 -871.1,-491.87 l -2385,3571.24 321.4,-4056.55 H 9250.92 L 9492,5492.35 c -77.14,623.63 -154.28,1247.16 -231.43,1870.78 601.05,372.85 1398.23,540.03 2115.03,765.07 v 0"/>
      </g>
      <path id="path28" style="fill:#ff9866;fill-opacity:1;fill-rule:evenodd;stroke:none" d="m 12506.6,9138.7 -964.4,44 -20.3,-832.5 c 416.2,-385.7 805.3,-402.6 1045.6,-199.6 l -60.9,988.1"/>
      <path id="path30" style="fill:#ffaa81;fill-opacity:1;fill-rule:evenodd;stroke:none" d="m 11048.1,10894.9 c 659.9,118.4 1316.4,240.2 1972.8,362 247,-375.6 372.2,-2033.6 54.2,-2466.8 -389.2,-548.1 -1235.1,-277.4 -1499.1,182.8 -267.3,419.6 -622.6,1502.4 -527.9,1922 v 0"/>
      <path id="path32" style="fill:#ffaa81;fill-opacity:1;fill-rule:evenodd;stroke:none" d="m 11322.2,9598.9 c 392.6,196.2 341.8,368.8 47.4,592.1 -101.5,115.1 -287.6,192.9 -368.8,16.9 -47.4,-165.8 189.5,-473.7 321.4,-609 v 0"/>
      <path id="path34" style="fill:#060352;fill-opacity:1;fill-rule:evenodd;stroke:none" d="m 13027.7,11514.1 c -44,-159 321.4,-544.8 -304.6,-544.8 -379,0 -84.6,182.7 -538,-148.9 -287.6,-209.8 -690.3,240.3 -815.5,-375.6 -44,-213.2 -30.4,-463.6 -128.6,-656.4 -54.1,-104.9 -263.9,-676.8 -416.2,-216.6 -165.8,497.4 -297.8,406 -199.6,1103.1 20.3,142.1 280.8,568.5 433.1,666.6 301.2,203.1 548.2,236.9 920.4,250.4 145.5,6.8 1021.9,94.8 1052.4,-27 3.3,-13.6 0,-44 -3.4,-50.8 v 0"/>
      <path id="path36" style="fill:#ff9866;fill-opacity:1;fill-rule:evenodd;stroke:none" d="m 13163,2184.9 c 270.7,-91.3 -30.4,-27 220,-71 199.6,-40.6 121.8,-27.1 297.8,-20.3 223.3,247 994.8,-274.1 1150.4,-47.4 389.2,565.1 -568.4,1197.9 -1702,849.3 l -182.7,-490.6 c -10.2,-60.9 -88,-94.8 216.5,-220 v 0"/>
      <path id="path38" style="fill:#ff4d8a;fill-opacity:1;fill-rule:evenodd;stroke:none" d="m 10547.3,6959.5 c -267.3,257.2 -538,514.3 -808.69,771.5 C 8906.2,6188 8506.91,4983.3 8198.98,3751.6 8131.3,3078.3 8435.85,2783.9 8716.7,2716.2 l 4476.8,-710.6 121.8,1258.8 -3285.7,906.8 517.7,2788.3"/>
      <path id="path40" style="fill:#ed357c;fill-opacity:1;fill-rule:evenodd;stroke:none" d="M 10117.6,5815.8 9857.05,4019 l -267.32,98.1 z"/>
      <path id="path42" style="fill:#feb542;fill-opacity:1;fill-rule:evenodd;stroke:none" d="M 4204.27,4784.7 H 8565.8 c 96.66,0 176.59,-74.4 176.59,-164.5 v -666.4 c 0,-90.1 -79.93,-164.5 -176.59,-164.5 H 4204.27 c -80.86,0 -149.63,51.2 -170.08,119.9 9.3,-1.8 18.59,-2.8 27.89,-2.8 h 4397.78 c 79.92,0 145.91,60.5 145.91,134.8 v 491.6 c 0,73.5 -65.99,134.8 -145.91,134.8 H 4062.08 c -9.3,0 -18.59,-0.9 -27.89,-2.8 20.45,68.8 89.22,119.9 170.08,119.9 v 0"/>
      <path id="path44" style="fill:#ffffff;fill-opacity:1;fill-rule:evenodd;stroke:none" d="m 4095.53,4667.6 h 4364.33 c 79.92,0 145.91,-61.3 145.91,-134.8 v -491.6 c 0,-74.3 -65.99,-134.8 -145.91,-134.8 H 4095.53 v 761.2"/>
      <path id="path46" style="fill:#dfe6ff;fill-opacity:1;fill-rule:evenodd;stroke:none" d="m 4095.53,4093.2 h 4374.55 c 15.8,0 28.81,-7.4 28.81,-16.7 v 0 c 0,-8.3 -13.01,-16.7 -28.81,-16.7 H 4095.53 v 33.4"/>
      <path id="path48" style="fill:#dfe6ff;fill-opacity:1;fill-rule:evenodd;stroke:none" d="m 4095.53,4009.6 h 4374.55 c 15.8,0 28.81,-7.4 28.81,-16.7 v 0 c 0,-9.3 -13.01,-16.8 -28.81,-16.8 H 4095.53 v 33.5"/>
      <path id="path50" style="fill:#dfe6ff;fill-opacity:1;fill-rule:evenodd;stroke:none" d="m 4095.53,4350.7 h 4374.55 c 15.8,0 28.81,-7.5 28.81,-16.7 v 0 c 0,-9.3 -13.01,-16.8 -28.81,-16.8 H 4095.53 v 33.5"/>
      <path id="path52" style="fill:#dfe6ff;fill-opacity:1;fill-rule:evenodd;stroke:none" d="m 4095.53,4267 h 4374.55 c 15.8,0 28.81,-7.4 28.81,-16.7 v 0 c 0,-9.3 -13.01,-16.7 -28.81,-16.7 H 4095.53 v 33.4"/>
      <path id="path54" style="fill:#dfe6ff;fill-opacity:1;fill-rule:evenodd;stroke:none" d="m 4095.53,4179.7 h 4374.55 c 15.8,0 28.81,-7.5 28.81,-16.8 v 0 c 0,-9.2 -13.01,-16.7 -28.81,-16.7 H 4095.53 v 33.5"/>
      <path id="path56" style="fill:#dfe6ff;fill-opacity:1;fill-rule:evenodd;stroke:none" d="m 4095.53,4597.9 h 4374.55 c 15.8,0 28.81,-7.4 28.81,-16.7 v 0 c 0,-9.3 -13.01,-16.8 -28.81,-16.8 H 4095.53 v 33.5"/>
      <path id="path58" style="fill:#dfe6ff;fill-opacity:1;fill-rule:evenodd;stroke:none" d="m 4095.53,4514.3 h 4374.55 c 15.8,0 28.81,-7.5 28.81,-16.8 v 0 c 0,-9.3 -13.01,-16.7 -28.81,-16.7 H 4095.53 v 33.5"/>
      <path id="path60" style="fill:#dfe6ff;fill-opacity:1;fill-rule:evenodd;stroke:none" d="m 4095.53,4426 h 4374.55 c 15.8,0 28.81,-7.5 28.81,-16.8 v 0 c 0,-9.3 -13.01,-16.7 -28.81,-16.7 H 4095.53 v 33.5"/>
      <path id="path62" style="fill:#6799fe;fill-opacity:1;fill-rule:evenodd;stroke:none" d="m 5060.22,4684.3 h 301.12 v -453.5 l -51.12,28.8 -99.44,53.9 -98.52,-53.9 -52.04,-28.8 v 453.5"/>
      <path id="path64" style="fill:#42c5a0;fill-opacity:1;fill-rule:evenodd;stroke:none" d="m 8652.24,3788.4 h -5284.4 c -118.03,0 -214.69,-74.3 -214.69,-164.5 v -666.3 c 0,-90.2 96.66,-164.5 214.69,-164.5 h 5284.4 c 97.58,0 180.29,51.1 206.32,119.8 -11.16,-1.8 -23.24,-2.7 -34.39,-2.7 H 3496.09 c -97.58,0 -176.58,61.3 -176.58,134.7 v 491.7 c 0,74.3 79,134.7 176.58,134.7 h 5328.08 c 11.15,0 23.23,-0.9 34.39,-2.8 -26.03,68.8 -108.74,119.9 -206.32,119.9 v 0"/>
      <path id="path66" style="fill:#ffffff;fill-opacity:1;fill-rule:evenodd;stroke:none" d="M 8783.28,3671.3 H 3496.09 c -97.58,0 -176.58,-60.4 -176.58,-134.7 v -491.7 c 0,-73.4 79,-134.7 176.58,-134.7 h 5287.19 v 761.1"/>
      <path id="path68" style="fill:#dfe6ff;fill-opacity:1;fill-rule:evenodd;stroke:none" d="M 8783.28,3097.9 H 3484.01 c -19.52,0 -35.32,-7.4 -35.32,-16.7 v 0 c 0,-9.3 15.8,-16.8 35.32,-16.8 h 5299.27 v 33.5"/>
      <path id="path70" style="fill:#dfe6ff;fill-opacity:1;fill-rule:evenodd;stroke:none" d="M 8783.28,3013.3 H 3484.01 c -19.52,0 -35.32,-7.4 -35.32,-16.7 v 0 c 0,-9.3 15.8,-16.7 35.32,-16.7 h 5299.27 v 33.4"/>
      <path id="path72" style="fill:#dfe6ff;fill-opacity:1;fill-rule:evenodd;stroke:none" d="M 8783.28,3354.4 H 3484.01 c -19.52,0 -35.32,-7.4 -35.32,-16.7 v 0 c 0,-9.3 15.8,-16.8 35.32,-16.8 h 5299.27 v 33.5"/>
      <path id="path74" style="fill:#dfe6ff;fill-opacity:1;fill-rule:evenodd;stroke:none" d="M 8783.28,3270.8 H 3484.01 c -19.52,0 -35.32,-7.5 -35.32,-16.8 v 0 c 0,-9.3 15.8,-16.7 35.32,-16.7 h 5299.27 v 33.5"/>
      <path id="path76" style="fill:#dfe6ff;fill-opacity:1;fill-rule:evenodd;stroke:none" d="M 8783.28,3183.4 H 3484.01 c -19.52,0 -35.32,-7.4 -35.32,-16.7 v 0 c 0,-9.3 15.8,-16.8 35.32,-16.8 h 5299.27 v 33.5"/>
      <path id="path78" style="fill:#dfe6ff;fill-opacity:1;fill-rule:evenodd;stroke:none" d="M 8783.28,3601.6 H 3484.01 c -19.52,0 -35.32,-7.4 -35.32,-16.7 v 0 c 0,-9.3 15.8,-16.7 35.32,-16.7 h 5299.27 v 33.4"/>
      <path id="path80" style="fill:#dfe6ff;fill-opacity:1;fill-rule:evenodd;stroke:none" d="M 8783.28,3518 H 3484.01 c -19.52,0 -35.32,-7.5 -35.32,-16.8 v 0 c 0,-9.3 15.8,-16.7 35.32,-16.7 h 5299.27 v 33.5"/>
      <path id="path82" style="fill:#dfe6ff;fill-opacity:1;fill-rule:evenodd;stroke:none" d="M 8783.28,3429.7 H 3484.01 c -19.52,0 -35.32,-7.5 -35.32,-16.8 v 0 c 0,-8.3 15.8,-16.7 35.32,-16.7 h 5299.27 v 33.5"/>
      <path id="path84" style="fill:#ea718b;fill-opacity:1;fill-rule:evenodd;stroke:none" d="m 8087.18,3667.6 h -304.84 v -453.5 l 52.05,28.8 100.37,54.8 100.37,-54.8 52.05,-28.8 v 453.5"/>
      <path id="path86" style="fill:#8183f1;fill-opacity:1;fill-rule:evenodd;stroke:none" d="m 3949.62,2801.4 h 5342.02 c 118.96,0 216.55,-73.4 216.55,-163.5 v -667.3 c 0,-90.2 -97.59,-163.6 -216.55,-163.6 H 3949.62 c -99.44,0 -183.08,50.2 -209.11,119 11.16,-1 23.24,-1.9 34.39,-1.9 h 5387.56 c 98.51,0 178.44,60.4 178.44,134.8 v 490.7 c 0,74.3 -79.93,134.7 -178.44,134.7 H 3774.9 c -11.15,0 -23.23,-0.9 -34.39,-2.8 26.03,68.8 109.67,119.9 209.11,119.9 v 0"/>
      <path id="path88" style="fill:#ffffff;fill-opacity:1;fill-rule:evenodd;stroke:none" d="m 3815.79,2684.3 h 5346.67 c 98.51,0 178.44,-60.4 178.44,-134.7 v -490.7 c 0,-74.4 -79.93,-134.8 -178.44,-134.8 H 3815.79 v 760.2"/>
      <path id="path90" style="fill:#dfe6ff;fill-opacity:1;fill-rule:evenodd;stroke:none" d="m 3815.79,2110.9 h 5358.75 c 19.52,0 35.32,-7.4 35.32,-16.7 v 0 c 0,-9.3 -15.8,-16.8 -35.32,-16.8 H 3815.79 v 33.5"/>
      <path id="path92" style="fill:#dfe6ff;fill-opacity:1;fill-rule:evenodd;stroke:none" d="m 3815.79,2027.3 h 5358.75 c 19.52,0 35.32,-7.5 35.32,-16.8 v 0 c 0,-9.3 -15.8,-16.7 -35.32,-16.7 H 3815.79 v 33.5"/>
      <path id="path94" style="fill:#dfe6ff;fill-opacity:1;fill-rule:evenodd;stroke:none" d="m 3815.79,2368.3 h 5358.75 c 19.52,0 35.32,-8.3 35.32,-16.7 v 0 c 0,-9.3 -15.8,-16.7 -35.32,-16.7 H 3815.79 v 33.4"/>
      <path id="path96" style="fill:#dfe6ff;fill-opacity:1;fill-rule:evenodd;stroke:none" d="m 3815.79,2284.7 h 5358.75 c 19.52,0 35.32,-8.4 35.32,-16.7 v 0 c 0,-9.3 -15.8,-16.8 -35.32,-16.8 H 3815.79 v 33.5"/>
      <path id="path98" style="fill:#dfe6ff;fill-opacity:1;fill-rule:evenodd;stroke:none" d="m 3815.79,2196.4 h 5358.75 c 19.52,0 35.32,-7.4 35.32,-16.7 v 0 c 0,-9.3 -15.8,-16.8 -35.32,-16.8 H 3815.79 v 33.5"/>
      <path id="path100" style="fill:#dfe6ff;fill-opacity:1;fill-rule:evenodd;stroke:none" d="m 3815.79,2614.6 h 5358.75 c 19.52,0 35.32,-7.4 35.32,-16.7 v 0 c 0,-9.3 -15.8,-16.7 -35.32,-16.7 H 3815.79 v 33.4"/>
      <path id="path102" style="fill:#dfe6ff;fill-opacity:1;fill-rule:evenodd;stroke:none" d="m 3815.79,2531 h 5358.75 c 19.52,0 35.32,-7.5 35.32,-16.8 v 0 c 0,-9.2 -15.8,-16.7 -35.32,-16.7 H 3815.79 v 33.5"/>
      <path id="path104" style="fill:#dfe6ff;fill-opacity:1;fill-rule:evenodd;stroke:none" d="m 3815.79,2443.6 h 5358.75 c 19.52,0 35.32,-7.4 35.32,-16.7 v 0 c 0,-9.3 -15.8,-16.7 -35.32,-16.7 H 3815.79 v 33.4"/>
      <path id="path106" style="fill:#feb542;fill-opacity:1;fill-rule:evenodd;stroke:none" d="m 4512.82,2684.3 h 266.73 v -453.5 l -45.54,28.8 -88.29,54.8 -87.36,-54.8 -45.54,-28.8 v 453.5"/>
      <path id="path108" style="fill:#ea718b;fill-opacity:1;fill-rule:evenodd;stroke:none" d="M 9060.23,5767 H 4635.5 c -98.52,0 -179.37,-73.4 -179.37,-163.5 v -667.3 c 0,-90.2 80.85,-163.6 179.37,-163.6 h 4424.73 c 81.78,0 151.49,51.1 172.86,119.9 -9.29,-1.9 -18.59,-2.8 -28.81,-2.8 H 4742.37 c -80.85,0 -147.77,60.4 -147.77,134.8 v 490.7 c 0,74.3 66.92,134.7 147.77,134.7 h 4461.91 c 10.22,0 19.52,-0.9 28.81,-1.8 -21.37,68.8 -91.08,118.9 -172.86,118.9 v 0"/>
      <path id="path110" style="fill:#ffffff;fill-opacity:1;fill-rule:evenodd;stroke:none" d="M 9170.82,5649.9 H 4742.37 c -80.85,0 -147.77,-60.4 -147.77,-134.7 v -490.7 c 0,-74.4 66.92,-134.8 147.77,-134.8 h 4428.45 v 760.2"/>
      <path id="path112" style="fill:#dfe6ff;fill-opacity:1;fill-rule:evenodd;stroke:none" d="M 9170.82,5076.5 H 4732.15 c -15.8,0 -28.81,-7.4 -28.81,-16.7 v 0 c 0,-9.3 13.01,-16.7 28.81,-16.7 h 4438.67 v 33.4"/>
      <path id="path114" style="fill:#dfe6ff;fill-opacity:1;fill-rule:evenodd;stroke:none" d="M 9170.82,4992.9 H 4732.15 c -15.8,0 -28.81,-7.5 -28.81,-16.8 v 0 c 0,-9.2 13.01,-16.7 28.81,-16.7 h 4438.67 v 33.5"/>
      <path id="path116" style="fill:#dfe6ff;fill-opacity:1;fill-rule:evenodd;stroke:none" d="M 9170.82,5334 H 4732.15 c -15.8,0 -28.81,-7.5 -28.81,-16.8 v 0 c 0,-9.3 13.01,-16.7 28.81,-16.7 h 4438.67 v 33.5"/>
      <path id="path118" style="fill:#dfe6ff;fill-opacity:1;fill-rule:evenodd;stroke:none" d="M 9170.82,5250.3 H 4732.15 c -15.8,0 -28.81,-7.4 -28.81,-16.7 v 0 c 0,-9.3 13.01,-16.7 28.81,-16.7 h 4438.67 v 33.4"/>
      <path id="path120" style="fill:#dfe6ff;fill-opacity:1;fill-rule:evenodd;stroke:none" d="M 9170.82,5162 H 4732.15 c -15.8,0 -28.81,-7.4 -28.81,-16.7 v 0 c 0,-9.3 13.01,-16.7 28.81,-16.7 h 4438.67 v 33.4"/>
      <path id="path122" style="fill:#dfe6ff;fill-opacity:1;fill-rule:evenodd;stroke:none" d="M 9170.82,5580.2 H 4732.15 c -15.8,0 -28.81,-7.4 -28.81,-16.7 v 0 c 0,-8.4 13.01,-16.7 28.81,-16.7 h 4438.67 v 33.4"/>
      <path id="path124" style="fill:#dfe6ff;fill-opacity:1;fill-rule:evenodd;stroke:none" d="M 9170.82,5496.6 H 4732.15 c -15.8,0 -28.81,-7.4 -28.81,-16.7 v 0 c 0,-9.3 13.01,-16.8 28.81,-16.8 h 4438.67 v 33.5"/>
      <path id="path126" style="fill:#dfe6ff;fill-opacity:1;fill-rule:evenodd;stroke:none" d="M 9170.82,5409.2 H 4732.15 c -15.8,0 -28.81,-7.4 -28.81,-16.7 v 0 c 0,-9.3 13.01,-16.7 28.81,-16.7 h 4438.67 v 33.4"/>
      <path id="path128" style="fill:#2c7efe;fill-opacity:1;fill-rule:evenodd;stroke:none" d="m 8192.2,5666.7 h -305.77 v -453.6 l 52.05,28.8 100.37,54.9 100.37,-54.9 52.98,-28.8 v 453.6"/>
      <g transform="scale(1.5529)" id="g130">
        <path id="path132" style="fill:#dfcffd;fill-opacity:1;fill-rule:evenodd;stroke:none" d="m 14462.4,6393.19 1837.6,-1519.67 -96.1,-113.59 -1835.8,1519.73 94.3,113.53"/>
      </g>
      <g transform="scale(1.39348)" id="g134">
        <path id="path136" style="fill:#be96f8;fill-opacity:1;fill-rule:evenodd;stroke:none" d="m 15828.9,7671.62 416.6,-342.61 c 46.7,-40.88 54.5,-110.95 13.6,-159.62 l -451.6,-546.97 c -40.9,-46.72 -111,-54.54 -159.7,-15.57 l -414.6,344.53 c -46.7,38.9 -54.5,110.94 -15.5,157.66 l 453.5,547.01 c 38.9,48.66 111,54.5 157.7,15.57 v 0"/>
      </g>
      <g transform="scale(1.38433)" id="g138">
        <path id="path140" style="fill:#8183f1;fill-opacity:1;fill-rule:evenodd;stroke:none" d="m 16223.6,7340.25 68.5,-56.83 c 7.9,-5.88 7.9,-17.63 2,-25.47 l -601.5,-726.97 c -6,-7.87 -17.7,-9.82 -25.5,-1.95 l -68.6,56.78 c -7.9,5.92 -9.8,17.7 -4,25.5 l 601.6,726.97 c 7.9,7.84 19.6,9.8 27.5,1.97 v 0"/>
      </g>
      <g transform="scale(1.36835)" id="g142">
        <path id="path144" style="fill:#8183f1;fill-opacity:1;fill-rule:evenodd;stroke:none" d="m 16220.7,7584.53 69.4,-57.49 c 7.9,-5.94 9.9,-17.84 3.9,-25.77 l -608.5,-735.46 c -8,-7.96 -19.9,-9.94 -27.8,-1.97 l -69.4,57.44 c -7.9,6 -7.9,17.91 -2,25.8 l 608.6,735.47 c 5.9,7.93 17.8,7.93 25.8,1.98 v 0"/>
      </g>
      <g transform="scale(1.35304)" id="g146">
        <path id="path148" style="fill:#8183f1;fill-opacity:1;fill-rule:evenodd;stroke:none" d="m 16219.8,7822.74 72.2,-58.15 c 8,-8.02 8,-20.04 2,-28.06 l -615.5,-741.75 c -6,-8.05 -18,-10.05 -26.1,-4.06 l -70.1,58.17 c -8.1,7.98 -10.1,20.02 -4,28.08 l 615.4,743.77 c 6.1,8.01 18.1,8.01 26.1,2 v 0"/>
      </g>
      <g transform="scale(1.37201)" id="g150">
        <path id="path152" style="fill:#dfcffd;fill-opacity:1;fill-rule:evenodd;stroke:none" d="m 15965.9,7228.25 v 0 c 296.6,-245.19 334.1,-692.06 83,-992.56 l -361.8,-438.92 -1075.5,889.72 363.8,436.95 c 249.1,302.48 695.9,349.93 990.5,104.81 v 0"/>
      </g>
      <g transform="scale(1.32441)" id="g154">
        <path id="path156" style="fill:#be96f8;fill-opacity:1;fill-rule:evenodd;stroke:none" d="m 15593.4,6343.05 c 307.3,-253.93 600.1,-407.58 653.4,-342.04 53.2,63.5 -151.6,323.61 -458.8,577.61 -307.2,253.93 -600.1,407.58 -655.4,344.08 -53.3,-65.54 153.6,-323.61 460.8,-579.65 v 0"/>
      </g>
      <g transform="scale(1.29612)" id="g158">
        <path id="path160" style="fill:#feb542;fill-opacity:1;fill-rule:evenodd;stroke:none" d="m 16300,6573.6 c -6.2,-8.4 -12.6,-18.82 -20.9,-27.23 -75.4,-92.04 -215.6,-102.54 -311.9,-22.99 -96.2,79.47 -113,217.65 -35.5,309.69 6.2,10.5 14.6,18.83 23,25.15 58.6,-41.89 117.2,-85.79 177.9,-136.02 58.5,-50.22 115.1,-100.45 167.4,-148.6 v 0"/>
      </g>
      <g transform="scale(1.55407)" id="g162">
        <path id="path164" style="fill:#dfcffd;fill-opacity:1;fill-rule:evenodd;stroke:none" d="m 14640,2916.67 1541.3,2040.45 118.7,-90.79 -1553.5,-2056.16 -106.5,106.5"/>
      </g>
      <g transform="scale(1.5549)" id="g166">
        <path id="path168" style="fill:#be96f8;fill-opacity:1;fill-rule:evenodd;stroke:none" d="m 16130.7,4666.6 c 92.5,0 169.3,75.05 169.3,169.2 0,94.22 -76.8,171.01 -169.3,171.01 -94.1,0 -170.9,-76.79 -170.9,-171.01 0,-94.15 76.8,-169.2 170.9,-169.2 v 0"/>
      </g>
      <g transform="scale(1.54791)" id="g170">
        <path id="path172" style="fill:#dfcffd;fill-opacity:1;fill-rule:evenodd;stroke:none" d="m 16203.6,4759.52 c 52.6,0 96.4,43.8 96.4,98.13 0,54.33 -43.8,98.14 -96.4,98.14 -54.3,0 -98.1,-43.81 -98.1,-98.14 0,-54.33 43.8,-98.13 98.1,-98.13 v 0"/>
      </g>
      <g transform="scale(1.40512)" id="g174">
        <path id="path176" style="fill:#dfcffd;fill-opacity:1;fill-rule:evenodd;stroke:none" d="m 16136,1445.93 v 1718.13 h 164 V 1445.93 h -164"/>
      </g>
      <g transform="scale(1.41411)" id="g178">
        <path id="path180" style="fill:#be96f8;fill-opacity:1;fill-rule:evenodd;stroke:none" d="m 16112,2931.03 c 103.6,0 188,84.37 188,187.96 0,101.69 -84.4,186.06 -188,186.06 -103.6,0 -186,-84.37 -186,-186.06 0,-103.59 82.4,-187.96 186,-187.96 v 0"/>
      </g>
      <g transform="scale(1.40712)" id="g182">
        <path id="path184" style="fill:#dfcffd;fill-opacity:1;fill-rule:evenodd;stroke:none" d="m 16192,3026.53 c 59.8,0 108,48.18 108,107.95 0,57.85 -48.2,106.03 -108,106.03 -59.7,0 -107.9,-48.18 -107.9,-106.03 0,-59.77 48.2,-107.95 107.9,-107.95 v 0"/>
      </g>
      <g transform="scale(1.51313)" id="g186">
        <path id="path188" style="fill:#8183f1;fill-opacity:1;fill-rule:evenodd;stroke:none" d="M 13910.3,1389.31 H 16205 c 52,0 95,-41.24 95,-93.25 v -35.82 c 0,-52.02 -43,-95.04 -95,-95.04 h -2294.7 c -51.9,0 -95,43.02 -95,95.04 v 35.82 c 0,52.01 43.1,93.25 95,93.25 v 0"/>
      </g>
      <g transform="scale(1.17317)" id="g190">
        <path id="path192" style="fill:#0643a3;fill-opacity:1;fill-rule:evenodd;stroke:none" d="m 16180.9,1909.28 h -5112.8 c -68,0 -119.1,-51.06 -119.1,-115.67 v -180.45 c 0,-64.7 51.1,-119.17 119.1,-119.17 h 5112.8 c 68,0 119.1,54.47 119.1,119.17 v 180.45 c 0,64.61 -51.1,115.67 -119.1,115.67 v 0"/>
      </g>
      <g transform="scale(1.39391)" id="g194">
        <path id="path196" style="fill:#2c7efe;fill-opacity:1;fill-rule:evenodd;stroke:none" d="m 16122.4,4460.41 c -661.8,0 -1323.6,0 -1985.4,0 -661.8,0 -1323.6,0 -1985.4,0 -111.7,0 -226.3,-88.82 -255,-200.51 -120.3,-469.91 -243.5,-936.87 -363.8,-1403.83 -123.2,-466.96 -243.5,-933.99 -363.8,-1398.08 -28.7,-111.78 37.2,-200.59 148.9,-200.59 658.9,0 1317.9,0 1976.8,0 658.9,0 1317.9,0 1976.8,0 111.7,0 223.5,88.81 252.1,200.59 126.1,464.09 249.2,931.12 372.4,1398.08 123.3,466.96 249.3,933.92 372.5,1403.83 31.5,111.69 -34.4,200.51 -146.1,200.51 v 0"/>
      </g>
      <g transform="scale(1.20355)" id="g198">
        <path id="path200" style="fill:#ffffff;fill-opacity:1;fill-rule:evenodd;stroke:none" d="m 15891.9,3772.35 c -172.5,0 -172.5,-23.26 -252.2,-63.06 119.5,-79.68 172.6,-228.99 126.1,-401.48 -43.1,-172.58 -175.9,-321.88 -335.1,-401.48 56.4,-39.8 46.5,-63.07 215.6,-63.07 172.6,0 521,209.05 587.4,464.55 66.3,255.49 -172.6,464.54 -341.8,464.54 v 0"/>
      </g>
      <path id="path202" style="fill:#6767fd;fill-opacity:1;fill-rule:evenodd;stroke:none" d="m 5113.05,12099.3 c 156.21,0 284.5,127.2 284.5,283.4 0,157.3 -128.29,284.5 -284.5,284.5 -156.21,0 -283.46,-127.2 -283.46,-284.5 0,-156.2 127.25,-283.4 283.46,-283.4 v 0"/>
      <path id="path204" style="fill:#ccccfe;fill-opacity:1;fill-rule:evenodd;stroke:none" d="m 4720.96,13148.3 h 785.21 c 94.14,0 170.7,-76.6 170.7,-170.7 v -508 c 0,-94.1 -76.56,-171.7 -170.7,-171.7 h -785.21 c -94.14,0 -171.73,77.6 -171.73,171.7 v 508 c 0,94.1 77.59,170.7 171.73,170.7 v 0"/>
      <path id="path206" style="fill:#feb542;fill-opacity:1;fill-rule:evenodd;stroke:none" d="m 4338.19,13462.8 h -1.04 c 1.04,0 1.04,0 1.04,0 3.1,-4.2 7.24,-7.3 10.34,-11.4 45.52,-48.6 135.53,-200.7 221.39,-396.2 h 1086.26 c 83.79,192.4 172.76,342.4 218.28,394.1 204.84,198.6 333.12,476.9 333.12,785.2 0,604.2 -490.37,1093.5 -1094.53,1093.5 -604.16,0 -1093.5,-489.3 -1093.5,-1093.5 0,-301 121.04,-574.1 318.64,-771.7 v 0"/>
      <path id="path208" style="fill:#6767fd;fill-opacity:1;fill-rule:evenodd;stroke:none" d="m 4591.65,12732.4 h 1042.8 c 83.8,0 153.11,-68.3 153.11,-152.1 v 0 c 0,-83.8 -69.31,-153.1 -153.11,-153.1 h -1042.8 c -83.8,0 -152.08,69.3 -152.08,153.1 v 0 c 0,83.8 68.28,152.1 152.08,152.1 v 0"/>
      <path id="path210" style="fill:#ffffff;fill-opacity:1;fill-rule:nonzero;stroke:none" d="m 4805,12946.5 h -35.66 v 1120.7 h 680.04 l 8.41,-1102.9 -35.66,-0.3 -8.14,1067.5 H 4805 v -1085"/>
      <path id="path212" style="fill:#6767fd;fill-opacity:1;fill-rule:evenodd;stroke:none" d="m 4591.65,13148.3 h 1042.8 c 83.8,0 153.11,-68.3 153.11,-153.1 v 0 c 0,-83.8 -69.31,-152.1 -153.11,-152.1 h -1042.8 c -83.8,0 -152.08,68.3 -152.08,152.1 v 0 c 0,84.8 68.28,153.1 152.08,153.1 v 0"/>
      <path id="path214" style="fill:#ffffff;fill-opacity:1;fill-rule:evenodd;stroke:none" d="m 4782,13966.6 c 45.52,0 82.76,37.2 82.76,82.7 0,45.6 -37.24,82.8 -82.76,82.8 -45.52,0 -82.76,-37.2 -82.76,-82.8 0,-45.5 37.24,-82.7 82.76,-82.7 v 0"/>
      <path id="path216" style="fill:#ffffff;fill-opacity:1;fill-rule:evenodd;stroke:none" d="m 4947.53,13966.6 c 45.52,0 82.76,37.2 82.76,82.7 0,45.6 -37.24,82.8 -82.76,82.8 -45.52,0 -82.77,-37.2 -82.77,-82.8 0,-45.5 37.25,-82.7 82.77,-82.7 v 0"/>
      <path id="path218" style="fill:#ffffff;fill-opacity:1;fill-rule:evenodd;stroke:none" d="m 5114.08,13966.6 c 45.52,0 82.77,37.2 82.77,82.7 0,45.6 -37.25,82.8 -82.77,82.8 -45.51,0 -82.76,-37.2 -82.76,-82.8 0,-45.5 37.25,-82.7 82.76,-82.7 v 0"/>
      <path id="path220" style="fill:#ffffff;fill-opacity:1;fill-rule:evenodd;stroke:none" d="m 5279.61,13966.6 c 45.52,0 82.76,37.2 82.76,82.7 0,45.6 -37.24,82.8 -82.76,82.8 -45.52,0 -82.76,-37.2 -82.76,-82.8 0,-45.5 37.24,-82.7 82.76,-82.7 v 0"/>
      <path id="path222" style="fill:#ffffff;fill-opacity:1;fill-rule:evenodd;stroke:none" d="m 5444.1,13966.6 c 45.52,0 82.76,37.2 82.76,82.7 0,45.6 -37.24,82.8 -82.76,82.8 -45.52,0 -82.76,-37.2 -82.76,-82.8 0,-45.5 37.24,-82.7 82.76,-82.7 v 0"/>
      <path id="path224" style="fill:#ffffff;fill-opacity:1;fill-rule:evenodd;stroke:none" d="m 6062.75,14017.3 c 26.89,91 41.38,188.3 40.34,289.6 -6.21,494.5 -379.67,891.8 -832.79,885.6 -109.66,-1.1 -214.15,-25.9 -309.33,-69.3 23.8,2 46.56,3.1 70.35,3.1 561.75,7.2 1024.18,-485.2 1031.43,-1098.7 0,-3.1 0,-6.2 0,-10.3 v 0"/>
      <g transform="scale(1.00764)" id="g226">
        <path id="path228" style="fill:#ffc328;fill-opacity:1;fill-rule:evenodd;stroke:none" d="m 5074.26,16300 v 0 c 23.61,0 43.12,-19.5 43.12,-43.1 v -448.7 c 0,-23.6 -19.51,-43.1 -43.12,-43.1 v 0 c -23.61,0 -43.12,19.5 -43.12,43.1 v 448.7 c 0,23.6 19.51,43.1 43.12,43.1 v 0"/>
      </g>
      <path id="path230" style="fill:#ffc328;fill-opacity:1;fill-rule:evenodd;stroke:none" d="m 3714.37,15868 v 0 c 16.55,16.6 44.48,16.6 61.04,0 l 319.67,-319.6 c 16.55,-16.6 16.55,-44.5 0,-61.1 v 0 c -16.56,-17.6 -44.49,-17.6 -62.08,0 l -318.63,318.7 c -17.59,17.6 -17.59,45.5 0,62 v 0"/>
      <path id="path232" style="fill:#ffc328;fill-opacity:1;fill-rule:evenodd;stroke:none" d="m 3117.45,14753.9 v 0 c 0,24.8 19.65,44.4 44.48,44.4 h 451.05 c 23.8,0 43.45,-19.6 43.45,-44.4 v 0 c 0,-23.8 -19.65,-43.5 -43.45,-43.5 h -451.05 c -24.83,0 -44.48,19.7 -44.48,43.5 v 0"/>
      <path id="path234" style="fill:#ffc328;fill-opacity:1;fill-rule:evenodd;stroke:none" d="m 6512.76,15868 v 0 c -17.58,16.6 -44.48,16.6 -62.07,0 l -319.67,-319.6 c -16.55,-16.6 -16.55,-44.5 0,-61.1 v 0 c 17.59,-17.6 45.52,-17.6 62.08,0 l 319.66,318.7 c 16.56,17.6 16.56,45.5 0,62 v 0"/>
      <path id="path236" style="fill:#ffc328;fill-opacity:1;fill-rule:evenodd;stroke:none" d="m 7108.65,14753.9 v 0 c 0,24.8 -19.65,44.4 -43.45,44.4 h -452.09 c -23.79,0 -43.45,-19.6 -43.45,-44.4 v 0 c 0,-23.8 19.66,-43.5 43.45,-43.5 h 452.09 c 23.8,0 43.45,19.7 43.45,43.5 v 0"/>
      <g transform="scale(1.46344)" id="g238">
        <path id="path240" style="fill:#0643a3;fill-opacity:1;fill-rule:evenodd;stroke:none" d="m 15427.7,10155.1 c 337.4,-243.61 413.4,-714.56 170.5,-1051.97 -243.6,-337.41 -714.7,-414.13 -1052,-170.48 -337.4,242.93 -414.2,713.88 -170.5,1051.29 242.9,338.16 713.9,414.16 1052,171.16 z m 235.9,327.5 c 519.2,-373.6 636.4,-1097.47 262,-1616.02 -373.6,-518.54 -1097.4,-635.75 -1616,-262.11 -518.6,373.64 -635.7,1097.47 -262.1,1616.03 373.6,518.5 1097.5,636.5 1616.1,262.1 v 0"/>
      </g>
      <g transform="scale(1.4494)" id="g242">
        <path id="path244" style="fill:#ea718b;fill-opacity:1;fill-rule:evenodd;stroke:none" d="m 15891.9,9608.67 408.1,-15.06 c -8.6,-230.23 -84.7,-454 -220.2,-641.2 -377.2,-523.56 -1108.1,-641.9 -1631.7,-264.65 -523.6,377.26 -641.9,1108.09 -264.6,1631.64 377.2,523.6 1108.1,642.6 1631.7,264.7 l -238.2,-330.7 c -341.4,245.3 -816.9,168.6 -1062.1,-172.8 -246.1,-340.68 -168.6,-816.2 172.1,-1061.48 340.6,-246.01 816.2,-168.55 1062.2,172.13 91,126.94 137.7,271.82 142.7,417.42 v 0"/>
      </g>
      <g transform="scale(1.40629)" id="g246">
        <path id="path248" style="fill:#62cbec;fill-opacity:1;fill-rule:evenodd;stroke:none" d="m 14943.5,9495.92 -349.6,-233.59 c -279.4,418.39 -269.8,966.17 24.4,1373.47 388.8,539.6 1142.1,662.3 1681.7,272.7 l -245.5,-340.7 c -351.8,252.8 -841.9,173.7 -1094.7,-178.2 -196.6,-272.8 -192.9,-629.04 -16.3,-893.68 v 0"/>
      </g>
      <g transform="scale(1.40629)" id="g250">
        <path id="path252" style="fill:#feb542;fill-opacity:1;fill-rule:evenodd;stroke:none" d="m 15322,10666.1 -146.4,394.7 c 377,139.7 798.4,82.8 1124.4,-152.3 l -245.5,-340.7 c -220.2,158.2 -495.2,186.2 -732.5,98.3 v 0"/>
      </g>
      <g transform="scale(1.1592)" id="g254">
        <path id="path256" style="fill:#be96f8;fill-opacity:1;fill-rule:evenodd;stroke:none" d="m 12870.5,13674.1 c 723.6,0 1314.7,587.7 1314.7,1314.6 0,723.6 -591.1,1311.3 -1314.7,1311.3 -723.6,0 -1314.7,-587.7 -1314.7,-1311.3 0,-726.9 591.1,-1314.6 1314.7,-1314.6 v 0"/>
      </g>
      <g transform="scale(1.14035)" id="g258">
        <path id="path260" style="fill:#8183f1;fill-opacity:1;fill-rule:nonzero;stroke:none" d="m 14343.7,15647.8 c -12.6,0 -24.3,7.8 -28.9,20.2 -81.6,224.6 -220.5,423 -401.7,574 -13,10.9 -14.7,30.2 -4,43.2 10.9,13.1 30.3,14.8 43.3,4 189.5,-158 334.8,-365.5 420.1,-600.2 5.8,-15.9 -2.4,-33.5 -18.3,-39.3 -3.5,-1.3 -7,-1.9 -10.5,-1.9"/>
      </g>
      <g transform="scale(1.16135)" id="g262">
        <path id="path264" style="fill:#8183f1;fill-opacity:1;fill-rule:nonzero;stroke:none" d="m 12846.7,13618.6 c -359,0 -696.3,139.6 -949.6,392.9 -253.3,253.3 -392.8,590.5 -392.8,949.5 0,738.3 602.2,1339 1342.4,1339 226.9,0 442.7,-54.8 641.6,-163 14.7,-8 20.1,-26.3 12.1,-40.9 -7.9,-14.6 -26.2,-20 -40.8,-12.1 -190,103.3 -396.2,155.7 -612.9,155.7 -707,0 -1282.1,-573.6 -1282.1,-1278.7 0,-706.9 575.1,-1282.1 1282.1,-1282.1 706.9,0 1282.1,575.2 1282.1,1282.1 0,97.4 -11.1,189.6 -33,273.9 -4.2,16.1 5.5,32.5 21.6,36.7 16.1,4.2 32.6,-5.5 36.8,-21.6 23.1,-89.3 34.9,-186.5 34.9,-289 0,-740.2 -602.2,-1342.4 -1342.4,-1342.4"/>
      </g>
      <g transform="scale(1.11016)" id="g266">
        <path id="path268" style="fill:#ffffff;fill-opacity:1;fill-rule:evenodd;stroke:none" d="m 13024.1,15345.8 -588.9,312.2 c -28.3,17.7 -35.5,-14.2 -24.8,-32 l 532.1,-581.7 c 56.7,-49.6 99.2,-49.6 163.1,0 454.1,404.4 904.5,808.8 1358.5,1213.1 14.3,14.2 0,42.6 -24.7,28.4 l -1415.3,-940"/>
      </g>
      <g transform="scale(1.51664)" id="g270">
        <path id="path272" style="fill:#0ebaa0;fill-opacity:1;fill-rule:evenodd;stroke:none" d="M 1898.17,1187.36 H 16152.5 c 79.4,0 147.5,-63.23 147.5,-139.59 V 842.387 c 0,-76.353 -68.1,-136.882 -147.5,-136.882 H 1898.17 c -82.26,0 -147.51,60.529 -147.51,136.882 v 205.383 c 0,76.36 65.25,139.59 147.51,139.59 v 0"/>
      </g>
    </g>
  </g>
</svg>