<?xml version="1.0" encoding="UTF-8"?> <svg xmlns="http://www.w3.org/2000/svg" width="43" height="42" fill="none"><path fill="#A21047" d="M0 0h42v42H0z"></path><path d="M21.2 35.7c-8.1 0-14.7-6.6-14.7-14.7S13.1 6.3 21.2 6.3 35.9 12.9 35.9 21s-6.6 14.7-14.7 14.7zM39.3 21l2.9-3.6-4-2.5 1.4-4.4-4.6-1-.2-4.6-4.6.6-1.8-4.3-4.2 2.2L21.1 0 18 3.4l-4.2-2.2L12 5.5l-4.6-.6-.2 4.6-4.6 1L4 14.9l-4 2.5L2.9 21 0 24.6l4 2.5-1.4 4.4 4.6 1 .2 4.6 4.6-.6 1.8 4.3 4.2-2.2 3.1 3.4 3.1-3.4 4.2 2.2 1.8-4.3 4.6.6.2-4.6 4.6-1-1.4-4.4 4-2.5-2.9-3.6zM9.2 21c0 6.6 5.4 12 12 12s12-5.4 12-12-5.4-12-12-12-12 5.4-12 12zm17.5-1.1c0-.7-.1-1.2-.3-1.6-.2-.4-.5-.5-.9-.5s-.7.2-.9.5c-.2.3-.3.8-.3 1.5v2.5c0 .7.1 1.3.3 1.6.2.3.5.5.9.5s.7-.2.9-.5c.2-.3 1.1-3.9 1.1-4.6l-.5-1.4-.3 2z" fill="#fff"></path><path d="M20.499 26h-6.822v-1.354l3.22-3.431c.442-.483.767-.905.977-1.265.214-.36.321-.702.321-1.025 0-.442-.111-.789-.335-1.04-.223-.255-.542-.382-.957-.382-.446 0-.8.155-1.06.465-.255.305-.382.708-.382 1.21h-1.982c0-.606.143-1.16.43-1.661a3.06 3.06 0 011.23-1.176c.53-.287 1.129-.43 1.799-.43 1.025 0 1.82.245 2.385.737.57.493.855 1.188.855 2.085 0 .493-.128.994-.383 1.504s-.693 1.105-1.313 1.785l-2.262 2.385h4.279V26zm1.51-4.895l.575-5.058h5.578v1.647h-3.958l-.246 2.14c.47-.25.968-.376 1.497-.376.948 0 1.69.294 2.229.882.537.588.806 1.41.806 2.468 0 .642-.136 1.219-.41 1.73-.269.505-.656.9-1.162 1.182-.506.278-1.103.417-1.791.417-.602 0-1.16-.121-1.675-.363a3.021 3.021 0 01-1.224-1.032 2.821 2.821 0 01-.471-1.51h1.955c.04.414.184.738.43.97.251.228.577.342.978.342.447 0 .79-.16 1.032-.479.242-.323.363-.779.363-1.367 0-.565-.14-.998-.417-1.299-.278-.3-.672-.45-1.183-.45-.47 0-.85.122-1.142.368l-.191.178-1.572-.39z" fill="#A21047"></path></svg> 